<?xml version="1.0" standalone="no"?>
<!DOCTYPE svg PUBLIC "-//W3C//DTD SVG 1.1//EN" "http://www.w3.org/Graphics/SVG/1.1/DTD/svg11.dtd" >
<svg>
<metadata>
Created by FontForge 20090914 at Sun Nov 19 09:02:26 2017
 By www-data
Copyright (c) 2010 by Font Diner, Inc. All rights reserved.
</metadata>
<defs>
<font id="Schoolbell" horiz-adv-x="563" >
  <font-face 
    font-family="Schoolbell"
    font-weight="400"
    font-stretch="normal"
    units-per-em="1024"
    panose-1="2 0 0 0 0 0 0 0 0 0"
    ascent="819"
    descent="-205"
    x-height="402"
    cap-height="744"
    bbox="-225.24 -382.999 949.548 1017.65"
    underline-thickness="51"
    underline-position="-52"
    unicode-range="U+0020-U+FB02"
  />
<missing-glyph horiz-adv-x="317" 
 />
    <glyph glyph-name=".notdef" horiz-adv-x="317" 
 />
    <glyph glyph-name="space" unicode=" " horiz-adv-x="317" 
 />
    <glyph glyph-name="exclam" unicode="!" horiz-adv-x="212" 
d="M88 70c8.66699 -5.33301 15.3311 -13.3311 19.998 -23.998s5.33398 -20.667 2.00098 -30c-2.66699 -10 -9 -18.333 -19 -25c-7.33301 -8 -16.666 -11.833 -27.999 -11.5s-20.666 4.16602 -27.999 11.499c-10 7.33301 -16.333 14 -19 20
c-5.33301 9.33301 -6.83301 18.666 -4.5 27.999s7.16602 17.333 14.499 24c2 1.33301 3.83301 2.83301 5.5 4.5s3.83398 3.16699 6.50098 4.5c6 2.66699 9.5 4 10.5 4s4.5 0.666992 10.5 2c2 0 4.33301 -0.166992 7 -0.5s4.66699 -0.833008 6 -1.5
c5.33301 -0.666992 10.666 -2.66699 15.999 -6zM79.9971 715.002c0 12.667 4.16797 22.3359 12.501 29.0029s17.333 10 27 10s18.667 -3.33301 27 -10s12.5 -16.334 12.5 -29.001c0 -44 0.5 -88.167 1.5 -132.5s1 -88.5 0 -132.5s-3.66699 -88 -8 -132
s-11.833 -87.667 -22.5 -131c-3.33301 -12.667 -9.66602 -21 -18.999 -25s-18.833 -4.66699 -28.5 -2s-17.834 8.16699 -24.501 16.5s-8.33398 18.833 -5.00098 31.5c10 41.333 17 83.166 21 125.499s6.5 84.666 7.5 126.999s1 84.833 0 127.5s-1.5 85 -1.5 127z" />
    <glyph glyph-name="quotedbl" unicode="&#x22;" horiz-adv-x="315" 
d="M40 721c0 12.667 4.16602 22.334 12.499 29.001s17.5 10 27.5 10s19.167 -3.33301 27.5 -10s12.5 -16.334 12.5 -29.001c0 -42.667 -0.5 -85.334 -1.5 -128.001s-3.5 -85 -7.5 -127c-1.33301 -11.333 -5.5 -20.833 -12.5 -28.5s-16.167 -11.5 -27.5 -11.5
c-10 0 -19.5 3.83301 -28.5 11.5s-12.833 17.167 -11.5 28.5c4.66699 42 7.33398 84.333 8.00098 127s1 85.334 1 128.001zM264.999 463c0.666992 -13.333 -2.99805 -23.166 -10.998 -29.499s-17 -9.5 -27 -9.5s-19.333 3.16699 -28 9.5s-13.334 16.166 -14.001 29.499
c-1.33301 21.333 -1.33301 42.833 0 64.5s2.83301 43.167 4.5 64.5s3 42.833 4 64.5s0.833008 43.167 -0.5 64.5c-0.666992 11.333 3.33301 20.833 12 28.5s18 11.5 28 11.5c11.333 0 20.666 -3.83301 27.999 -11.5s11.333 -17.167 12 -28.5
c1.33301 -21.333 1.5 -42.833 0.5 -64.5s-2.33301 -43.167 -4 -64.5s-3.16699 -42.833 -4.5 -64.5s-1.33301 -43.167 0 -64.5z" />
    <glyph glyph-name="numbersign" unicode="#" horiz-adv-x="610" 
d="M163 36c-4 -12 -11.1641 -19.832 -21.4971 -23.499s-20.333 -4.16699 -30 -1.5s-17.334 8.16699 -23.001 16.5s-6.5 18.5 -2.5 30.5c8.66699 24.667 16.5 49.167 23.5 73.5s13.5 49.166 19.5 74.499l-39.5 2c-13 0.666992 -26.167 1.66699 -39.5 3
c-11.333 1.33301 -20.833 5.5 -28.5 12.5s-11.5 16.167 -11.5 27.5c0 10 3.83301 19.333 11.5 28s17.167 12.667 28.5 12c31.333 -2.66699 63.666 -4.66699 96.999 -6l15.5 80l15.5 81c-17.333 -1.33301 -34.333 -2.83301 -51 -4.5s-33.334 -3.5 -50.001 -5.5
c-11.333 -1.33301 -20.833 2.5 -28.5 11.5s-11.5 18.5 -11.5 28.5c0 12 3.83301 21.333 11.5 28s17.167 10.667 28.5 12c19.333 2.66699 38.333 4.66699 57 6l57 4l16 92.5c5.33301 30.333 11 60.833 17 91.5c2 11.333 8.16699 19.666 18.5 24.999s20.5 6.33301 30.5 3
c11.333 -3.33301 19.333 -9.66602 24 -18.999s5.66699 -19.333 3 -30c-5.33301 -26.667 -10.166 -53.334 -14.499 -80.001l-13.5 -80c21.333 0 42.833 -0.5 64.5 -1.5s43.5 -2.16699 65.5 -3.5c6.66699 28.667 13 57.334 19 86.001s11.667 57.667 17 87
c2 11.333 8.33301 19.666 19 24.999s20.667 6.33301 30 3c11.333 -3.33301 19.333 -9.66602 24 -18.999s6 -19.333 4 -30l-16.5 -81l-17.5 -80l45 -7.5c14.667 -2.33301 29.667 -5.16602 45 -8.49902c12.667 -2.66699 21 -8.66699 25 -18s4.66699 -18.833 2 -28.5
s-8.16699 -17.834 -16.5 -24.501s-18.833 -8.66699 -31.5 -6c-29.333 6 -58.333 11 -87 15l-11.5 -49.5l-11.5 -49.5l-6 -29.5l-6 -29.5c16 -0.666992 31.833 -1.16699 47.5 -1.5s31.167 -0.833008 46.5 -1.5c12.667 -0.666992 22.167 -5.33398 28.5 -14.001
s9.5 -18 9.5 -28s-3.16699 -19 -9.5 -27s-15.833 -11.667 -28.5 -11c-18 1.33301 -36 2.16602 -54 2.49902s-36 0.833008 -54 1.5c-6 -31.333 -12.333 -62.166 -19 -92.499s-15.667 -60.5 -27 -90.5c-4 -10 -10.333 -17.833 -19 -23.5s-18.667 -6.83398 -30 -3.50098
c-10 2.66699 -18.167 8.83398 -24.5 18.501s-7.5 19.834 -3.5 30.501c9.33301 26 17.333 52.5 24 79.5s12.667 54.5 18 82.5c-20.667 0.666992 -41.167 1 -61.5 1s-40.833 0.333008 -61.5 1c-6.66699 -28 -13.834 -55.833 -21.501 -83.5s-16.167 -55.5 -25.5 -83.5z
M259.003 449.001l-15.498 -83.5l-15.5 -83.5c20 0 40 -0.166992 60 -0.5s40 -0.833008 60 -1.5c2.66699 13.333 5.16699 26.5 7.5 39.5s4.83301 26.167 7.5 39.5l10 43.5l10 42.5c-20.667 2 -41.334 3.33301 -62.001 4s-41.334 0.666992 -62.001 0z" />
    <glyph glyph-name="dollar" unicode="$" horiz-adv-x="475" 
d="M456 665c11.333 -1.33301 19.4941 -7.5 24.4941 -18.5s6.16699 -21.167 3.5 -30.5c-3.33301 -11.333 -9.66602 -19.166 -18.999 -23.499s-19.333 -5.83301 -30 -4.5c-6.66699 0.666992 -11 1.33398 -13 2.00098h-12c-4 0 -8 0.333008 -12 1
c-9.33301 0 -18.5 -0.166992 -27.5 -0.5s-18.167 -0.833008 -27.5 -1.5l-34 -2c-11.333 -0.666992 -22.666 -2 -33.999 -4v-10c0.666992 -27.333 1.66699 -54.333 3 -81s1.33301 -53.334 0 -80.001c-0.666992 -2.66699 -1 -5.33398 -1 -8.00098v-8
c14 -8 27.333 -17.167 40 -27.5s24 -22.166 34 -35.499c10.667 -14 21.5 -30.5 32.5 -49.5s20 -38.667 27 -59s10.333 -40.666 10 -60.999s-6.83301 -38.833 -19.5 -55.5c-17.333 -24 -37.333 -39.833 -60 -47.5s-46.667 -11.167 -72 -10.5
c0 -8.66699 0.166992 -17.167 0.5 -25.5s0.5 -17.166 0.5 -26.499c0 -12.667 -4 -22.167 -12 -28.5s-17 -9.5 -27 -9.5s-19.333 3.16699 -28 9.5s-13 15.833 -13 28.5c0 10.667 -0.166992 21 -0.5 31s-0.833008 20.333 -1.5 31l-45 7.5
c-14.667 2.33301 -29 4.16602 -43 5.49902c-12.667 0.666992 -22.167 5.33398 -28.5 14.001s-9.5 18 -9.5 28s3.16699 18.833 9.5 26.5s15.833 11.167 28.5 10.5c14.667 -0.666992 29 -2.16699 43 -4.5s27.667 -4.83301 41 -7.5c0 11.333 -0.166992 22.833 -0.5 34.5
s-0.166016 23.167 0.500977 34.5c1.33301 23.333 2.83301 46.666 4.5 69.999s3.5 46.666 5.5 69.999l-33.5 15.5l-33.5 15.5c-16 7.33301 -32 15.166 -48 23.499s-30 18.833 -42 31.5c-11.333 12 -19.666 26.5 -24.999 43.5s-2.66602 32.833 8.00098 47.5
c11.333 15.333 24.833 29 40.5 41s31.167 23 46.5 33c13.333 8.66699 27.5 17.334 42.5 26.001s30.167 15.667 45.5 21c1.33301 18 3.5 35.667 6.5 53s7.83301 34.333 14.5 51c4 10 10.333 18 19 24s18.667 7.33301 30 4c10 -2.66699 18.167 -9 24.5 -19s7.5 -20 3.5 -30
c-7.33301 -20 -12.666 -42 -15.999 -66c8.66699 1.33301 17 2.16602 25 2.49902s16 0.833008 24 1.5c21.333 1.33301 43 2 65 2s43.667 -1.66699 65 -5zM198.994 434c0 20.667 -0.498047 41.3311 -1.49805 61.998s-2.16699 41.667 -3.5 63l-45 -26.5
c-12.667 -7.66699 -24.667 -16.167 -36 -25.5c-5.33301 -4.66699 -8.33301 -7 -9 -7c-1.33301 -1.33301 -2.83301 -2.66602 -4.5 -3.99902s-3.16699 -2.66602 -4.5 -3.99902c3.33301 -5.33301 6.5 -8.83301 9.5 -10.5l15.5 -8.5c7.33301 -4.66699 15 -9 23 -13l24 -12
c5.33301 -2.66699 10.666 -5 15.999 -7s10.666 -4.33301 15.999 -7zM278.996 296.997l-4.49805 4.50195l-4.5 4.5l-4 -52c-1.33301 -17.333 -2 -35 -2 -53c-0.666992 -12 -0.833984 -24 -0.500977 -36s0.833008 -24 1.5 -36c12.667 -0.666992 25 0.166016 37 2.49902
s21.667 7.16602 29 14.499c5.33301 5.33301 8 12 8 20c0 6.66699 -0.333008 12.5 -1 17.5s-2.33398 11.5 -5.00098 19.5c-4.66699 13.333 -10.667 26.5 -18 39.5s-15 25.5 -23 37.5l-4.5 6.5c-1.66699 2.33301 -3.5 4.5 -5.5 6.5z" />
    <glyph glyph-name="percent" unicode="%" horiz-adv-x="658" 
d="M450 502c-28.667 -59.333 -59.9951 -118.004 -93.9951 -176.004l-52.5 -90c-17.667 -30.667 -36.5 -60.5 -56.5 -89.5s-42 -56.167 -66 -81.5s-50.667 -47.666 -80 -66.999c-10.667 -7.33301 -20.834 -9 -30.501 -5s-17 10.167 -22 18.5s-6.83301 17.833 -5.5 28.5
s7.33301 19.667 18 27c27.333 17.333 51.666 38.5 72.999 63.5s40.666 50.833 57.999 77.5c19.333 29.333 37.5 58.833 54.5 88.5l52.5 89.5c17.333 29.333 33.333 59 48 89l45 91c15.333 30 31.666 59.333 48.999 88s38.666 54.334 63.999 77.001
c9.33301 8.66699 19.333 12.167 30 10.5s19.667 -6 27 -13s11.5 -15.5 12.5 -25.5s-3.16699 -19.333 -12.5 -28c-26 -23.333 -47.333 -50.166 -64 -80.499s-32.667 -61.166 -48 -92.499zM442.005 326.996c20 10 40 13.833 60 11.5s38.5 -8.83301 55.5 -19.5
s31.5 -24.5 43.5 -41.5s20.333 -35.5 25 -55.5c4 -17.333 6 -35.833 6 -55.5s-2.66699 -38.667 -8 -57s-13.333 -35.333 -24 -51s-24.667 -27.834 -42 -36.501c-19.333 -9.33301 -39.333 -13.666 -60 -12.999s-40.667 5 -60 13c-23.333 9.33301 -42.833 22.5 -58.5 39.5
s-25.5 38.167 -29.5 63.5c-0.666992 4.66699 -1.16699 7.33398 -1.5 8.00098s-0.5 1.66699 -0.5 3c0 21.333 2 41.166 6 59.499s10 36 18 53s17.833 32.5 29.5 46.5s25.167 24.667 40.5 32zM525.005 95.9961c14 13.333 22.8389 30.833 26.5059 52.5
s1.83398 42.834 -5.49902 63.501c-1.33301 4.66699 -1.83301 6.66699 -1.5 6s-0.833984 1.33301 -3.50098 6c-0.666992 0.666992 -2.33398 3.33398 -5.00098 8.00098s-3 5.66699 -1 3c-4.66699 5.33301 -9.33398 9.83301 -14.001 13.5s-10.334 6.83398 -17.001 9.50098
c-3.33301 1.33301 -6.83301 2.16602 -10.5 2.49902s-6.16699 0.166016 -7.5 -0.500977l-7 -3.5c-3.33301 -1.66699 -6.33301 -3.83398 -9 -6.50098c-7.33301 -7.33301 -14 -16.166 -20 -26.499s-10.667 -20.833 -14 -31.5c-1.33301 -3.33301 -2.33301 -6.5 -3 -9.5
s-1.33398 -6.16699 -2.00098 -9.5c-0.666992 -1.33301 -1.33398 -4.16602 -2.00098 -8.49902s-1 -5.83301 -1 -4.5c-0.666992 -6.66699 -0.666992 -13.334 0 -20.001c1.33301 -6 3 -11.833 5 -17.5s5 -10.167 9 -13.5c3.33301 -3.33301 7.83301 -6.33301 13.5 -9
s11.5 -4.66699 17.5 -6c8 -2.66699 14.333 -4.5 19 -5.5s10.667 -0.833008 18 0.5c6 2.66699 10.167 4.66699 12.5 6s3.16602 1.66602 2.49902 0.999023zM190.011 742.996c12 -2 23.668 -5.50195 35.001 -10.502s21.666 -11.5 30.999 -19.5s17.666 -17.167 24.999 -27.5
s13 -21.166 17 -32.499c6.66699 -20 9.66699 -41 9 -63s-3.66699 -43 -9 -63s-12.666 -39.5 -21.999 -58.5s-22.666 -35.167 -39.999 -48.5c-14.667 -11.333 -32.167 -19.166 -52.5 -23.499s-39.5 -4.83301 -57.5 -1.5c-16.667 2.66699 -30.834 9 -42.501 19
s-21 21.667 -28 35s-12 28 -15 44s-4.5 31.333 -4.5 46c0 28 3.16699 56.167 9.5 84.5s17.833 53.833 34.5 76.5l7 9c28 30 62.333 41.333 103 34zM226.012 571.994c0.666992 7.33301 0.999023 15.499 0.999023 24.499s-0.666992 15.5 -2 19.5
c-1.33301 7.33301 -2.33301 12.333 -3 15s-3.33398 6.33398 -8.00098 11.001c-11.333 11.333 -23.166 18.666 -35.499 21.999s-24.166 -0.666992 -35.499 -12c-4.66699 -6 -7.16699 -9.83301 -7.5 -11.5s-1.16602 -3.16699 -2.49902 -4.5
c0 -0.666992 -0.666992 -2.66699 -2 -6s-2 -5.66602 -2 -6.99902c-1.33301 -2.66699 -2.16602 -5.16699 -2.49902 -7.5s-1.16602 -5.16602 -2.49902 -8.49902c-0.666992 -3.33301 -1.33398 -6.5 -2.00098 -9.5s-1.33398 -6.16699 -2.00098 -9.5
c-0.666992 -1.33301 -1.33398 -4.16602 -2.00098 -8.49902s-0.666992 -5.83301 0 -4.5c-1.33301 -5.33301 -2 -10.833 -2 -16.5v-16.5v-20c1.33301 -8.66699 2.33301 -14.334 3 -17.001l2 -8c2.66699 -6 4.83398 -10.167 6.50098 -12.5s2.5 -3.83301 2.5 -4.5
c6 -4 9.33301 -6.16699 10 -6.5s1.66699 -0.5 3 -0.5c3.33301 -1.33301 6.66602 -1.33301 9.99902 0l13.5 3c3 0.666992 6.16699 1.66699 9.5 3c5.33301 1.33301 10.333 3.66602 15 6.99902c12 16 20.5 31 25.5 45s8.16699 27.667 9.5 41z" />
    <glyph glyph-name="ampersand" unicode="&#x26;" horiz-adv-x="580" 
d="M540 89c8.66699 -6 14.6611 -14.001 17.9941 -24.001s2 -20 -4 -30c-5.33301 -9.33301 -13.5 -15.666 -24.5 -18.999s-20.833 -2 -29.5 4c-14 10 -27.333 20.667 -40 32s-25 23 -37 35c-12.667 -14.667 -28.667 -30 -48 -46c-26 -21.333 -56.167 -38.833 -90.5 -52.5
s-68.5 -21.167 -102.5 -22.5c-19.333 -0.666992 -38.333 1.66602 -57 6.99902s-35.667 14.666 -51 27.999c-17.333 14 -30.166 31.333 -38.499 52s-13.166 41.667 -14.499 63c-2 24 -0.333008 47.833 5 71.5s13.5 46.334 24.5 68.001s24.167 41.834 39.5 60.501
s32 35.667 50 51c6.66699 5.33301 13 10.666 19 15.999l18 16c-2 2.66699 -4.33301 6.66699 -7 12c-13.333 24.667 -24.166 50.334 -32.499 77.001s-9.5 54 -3.5 82c5.33301 25.333 17.333 49 36 71s40.334 39.167 65.001 51.5s50.5 18.333 77.5 18
s51.5 -10.166 73.5 -29.499c19.333 -17.333 33 -37.333 41 -60s6.66699 -46.667 -4 -72c-9.33301 -22 -21.833 -41.833 -37.5 -59.5s-32.167 -34.5 -49.5 -50.5l-27.5 -26l-27.5 -27l18 -23c6 -8 12.333 -15.667 19 -23l51.5 -64l51.5 -64l23 39.5l22 38.5
c6.66699 10.667 15.167 16.667 25.5 18s19.833 -0.5 28.5 -5.5s15 -12.333 19 -22s2.66699 -19.834 -4 -30.501l-30 -51c-10 -16.667 -20.667 -33 -32 -49c10.667 -11.333 21.334 -22 32.001 -32s22.334 -19.667 35.001 -29zM226.994 586.999
c-13.333 -16.667 -19.001 -34.999 -17.001 -54.999s7.33301 -39 16 -57c2.66699 -6.66699 6.33398 -13.334 11.001 -20.001l45 41c14.667 14 28.667 28.667 42 44c6 7.33301 11.833 15 17.5 23s9.16699 16.333 10.5 25c2 10 -3.66699 20.667 -17 32
c-8 7.33301 -17.167 11 -27.5 11s-20.5 -2 -30.5 -6s-19.5 -9.66699 -28.5 -17s-16.167 -14.333 -21.5 -21zM351.993 128c6.66699 6 13 12.333 19 19l-51 64l-51 63c-16.667 20 -32.334 39.667 -47.001 59l-38.5 -32c-12.333 -10.667 -23.5 -22.667 -33.5 -36
c-13.333 -17.333 -24.833 -37 -34.5 -59s-14.834 -44.333 -15.501 -67c0 -10.667 0.833008 -21.334 2.5 -32.001s4.83398 -20.334 9.50098 -29.001c4 -7.33301 7.5 -12.5 10.5 -15.5s8.16699 -6.16699 15.5 -9.5c9.33301 -4.66699 22.666 -7 39.999 -7
c9.33301 0 17 0.5 23 1.5s13.667 2.83301 23 5.5c16.667 4.66699 31.834 9.83398 45.501 15.501s27.834 13.834 42.501 24.501l14 11c10 8 18.667 16 26 24z" />
    <glyph glyph-name="quotesingle" unicode="'" horiz-adv-x="161" 
d="M111 463c0.666992 -13.333 -2.99902 -23.166 -10.999 -29.499s-17 -9.5 -27 -9.5s-19.333 3.16699 -28 9.5s-13.334 16.166 -14.001 29.499c-1.33301 21.333 -1.16602 42.833 0.500977 64.5l5 64.5c1.66699 21.333 3 42.833 4 64.5s0.5 43.167 -1.5 64.5
c-0.666992 11.333 3.33301 20.833 12 28.5s18 11.5 28 11.5c11.333 0 20.666 -3.83301 27.999 -11.5s11.333 -17.167 12 -28.5c1.33301 -21.333 1.5 -42.833 0.5 -64.5s-2.33301 -43.167 -4 -64.5s-3.16699 -42.833 -4.5 -64.5s-1.33301 -43.167 0 -64.5z" />
    <glyph glyph-name="parenleft" unicode="(" horiz-adv-x="262" 
d="M240 -82c-20 -5.33301 -38.332 -6.16602 -54.999 -2.49902s-31.5 10.667 -44.5 21s-24.167 23 -33.5 38s-17 31.167 -23 48.5c-11.333 34 -19.166 68.667 -23.499 104s-7.5 70.666 -9.5 105.999l-6 87.5c-2 29 -3.33301 58.167 -4 87.5
c-0.666992 36 0.5 75.167 3.5 117.5s10.667 83 23 122s30.666 73.5 54.999 103.5s57.5 50.667 99.5 62c12.667 3.33301 23.167 1.83301 31.5 -4.5s13.833 -14.333 16.5 -24s2 -19.334 -2 -29.001s-12 -16.167 -24 -19.5c-19.333 -5.33301 -35.5 -13.5 -48.5 -24.5
s-24.167 -25.833 -33.5 -44.5c-16.667 -32 -27.5 -67 -32.5 -105s-7.83301 -75.667 -8.5 -113c-0.666992 -30.667 0 -61 2 -91l6 -91c1.33301 -35.333 3.33301 -68.666 6 -99.999s8.66699 -63.666 18 -96.999c1.33301 -4.66699 2.66602 -9 3.99902 -13
s2.66602 -8.33301 3.99902 -13c2 -6 3.16699 -9.16699 3.5 -9.5s0.5 -0.833008 0.5 -1.5c2 -4.66699 3.83301 -8.33398 5.5 -11.001s3.5 -5.33398 5.5 -8.00098l6 -9l9 -9c6 -2 9.33301 -3.16699 10 -3.5s1.33398 -0.5 2.00098 -0.5c7.33301 0.666992 11.333 1.16699 12 1.5
s1.66699 0.5 3 0.5c12.667 3.33301 23.167 1.83301 31.5 -4.5s13.833 -14.166 16.5 -23.499s2 -18.833 -2 -28.5s-12 -16.167 -24 -19.5z" />
    <glyph glyph-name="parenright" unicode=")" horiz-adv-x="262" 
d="M22 813c20 5.33301 38.165 6.16699 54.498 2.5s31 -10.667 44 -21s24.333 -23.166 34 -38.499s17.5 -31.333 23.5 -48c11.333 -34 19 -68.667 23 -104s7.33301 -70.666 10 -105.999c1.33301 -29.333 3 -58.5 5 -87.5s3.33301 -58.167 4 -87.5
c0.666992 -36 -0.5 -75.167 -3.5 -117.5s-10.5 -83 -22.5 -122s-30.333 -73.667 -55 -104s-58 -50.833 -100 -61.5c-12 -3.33301 -22.333 -1.83301 -31 4.5s-14.334 14.166 -17.001 23.499s-2 18.833 2 28.5s12.333 16.167 25 19.5c19.333 5.33301 35.333 13.666 48 24.999
s24 26.333 34 45c16.667 32 27.5 67 32.5 105s7.83301 75.667 8.5 113c0.666992 30.667 -0.166016 61 -2.49902 91s-4.16602 60.333 -5.49902 91c-2 35.333 -4.16699 68.666 -6.5 99.999s-8.16602 63.666 -17.499 96.999l-4 12.5l-4 12.5
c-2.66699 6.66699 -4.16699 10.5 -4.5 11.5s-0.833008 1.83301 -1.5 2.5c-2 6.66699 -5 12.334 -9 17.001l-6 9c-5.33301 5.33301 -8.33301 8 -9 8c-6 2.66699 -9.5 4.16699 -10.5 4.5s-1.83301 0.5 -2.5 0.5c-7.33301 -0.666992 -12.333 -1.66699 -15 -3
c-12 -3.33301 -22.167 -1.83301 -30.5 4.5s-13.833 14.333 -16.5 24s-2 19.334 2 29.001s12 16.167 24 19.5z" />
    <glyph glyph-name="asterisk" unicode="*" horiz-adv-x="466" 
d="M407 597c12.667 0 22.3359 -4.16797 29.0029 -12.501s10 -17.5 10 -27.5s-3.33301 -19.167 -10 -27.5s-16.334 -12.5 -29.001 -12.5c-12.667 0.666992 -25.334 1 -38.001 1h-38c10.667 -19.333 19.667 -39.333 27 -60s12.666 -42.667 15.999 -66
c1.33301 -10.667 -2.66699 -20 -12 -28s-18.666 -12 -27.999 -12c-12 0 -21.333 4 -28 12s-10.667 17.333 -12 28c-2 17.333 -6.33301 34 -13 50s-14.667 31.667 -24 47c-13.333 -24 -28.833 -46.167 -46.5 -66.5s-38.5 -37.5 -62.5 -51.5
c-11.333 -6.66699 -21.833 -8.16699 -31.5 -4.5s-17 9.83398 -22 18.501s-6.83301 18.167 -5.5 28.5s7.66602 18.833 18.999 25.5c15.333 9.33301 28.333 20 39 32s20.667 25 30 39c-18 -1.33301 -35.833 -3.5 -53.5 -6.5l-53.5 -9.5
c-12.667 -2.66699 -23.167 -0.666992 -31.5 6s-13.833 14.667 -16.5 24s-2 18.666 2 27.999s12.333 15.333 25 18c21.333 5.33301 42.833 9.5 64.5 12.5s43.5 5.5 65.5 7.5l-41 45l-41 45c-8.66699 10 -12.167 20.333 -10.5 31s6.16699 19.5 13.5 26.5s16 11 26 12
s19.333 -3.16699 28 -12.5l43.5 -48l44.5 -49c8.66699 16.667 18.334 32.667 29.001 48s22.667 29.666 36 42.999c9.33301 8.66699 19.166 12.334 29.499 11.001s19 -5.5 26 -12.5s11.167 -15.667 12.5 -26s-2.66699 -20.166 -12 -29.499
c-11.333 -11.333 -21.333 -23.5 -30 -36.5s-16.667 -26.5 -24 -40.5h98z" />
    <glyph glyph-name="plus" unicode="+" horiz-adv-x="427" 
d="M373 349c12.667 0 22.166 -4.16797 28.499 -12.501s9.5 -17.5 9.5 -27.5s-3.16699 -19.167 -9.5 -27.5s-15.833 -12.5 -28.5 -12.5c-19.333 -0.666992 -39 -0.666992 -59 0l-59 2c0.666992 -18.667 1.16699 -37 1.5 -55s0.5 -36.333 0.5 -55
c0 -13.333 -4.16699 -23.166 -12.5 -29.499s-17.5 -9.5 -27.5 -9.5s-19 3.16699 -27 9.5s-12 16.166 -12 29.499c0 18.667 -0.333008 37.167 -1 55.5l-2 55.5c-21.333 0 -42.166 -0.666992 -62.499 -2s-41.166 -3.66602 -62.499 -6.99902
c-10.667 -1.33301 -20.667 0.166992 -30 4.5s-15.666 12.166 -18.999 23.499c-2.66699 9.33301 -1.33398 19.333 3.99902 30s13.333 17 24 19c24.667 4 49.167 6.66699 73.5 8s49.166 2.33301 74.499 3c0.666992 16 1.66699 32.167 3 48.5l4 49.5
c1.33301 10.667 5.5 20 12.5 28s16.167 12 27.5 12c10 0 19.5 -4 28.5 -12s12.833 -17.333 11.5 -28l-4 -49.5l-4 -49.5c19.333 -0.666992 38.833 -1.16699 58.5 -1.5s39.167 -0.166016 58.5 0.500977z" />
    <glyph glyph-name="comma" unicode="," horiz-adv-x="147" 
d="M48 65c3.33301 12.667 9.83301 21 19.5 25s19.334 4.66699 29.001 2s17.667 -8.33398 24 -17.001s7.83301 -19 4.5 -31c-9.33301 -37.333 -23.333 -71.5 -42 -102.5s-46.667 -53.833 -84 -68.5c-10 -4 -19.833 -2.83301 -29.5 3.5s-16.167 14.5 -19.5 24.5
c-3.33301 11.333 -2 21.166 4 29.499s14 14.833 24 19.5c11.333 4.66699 20.833 11.334 28.5 20.001s14.167 18.167 19.5 28.5s9.66602 21.333 12.999 33s6.33301 22.834 9 33.501z" />
    <glyph glyph-name="hyphen" unicode="-" horiz-adv-x="477" 
d="M418 336c12.667 -0.666992 22.3311 -5.16406 28.998 -13.4971s10 -17.5 10 -27.5s-3.33301 -19 -10 -27s-16.334 -12 -29.001 -12c-28.667 0.666992 -57.5 2 -86.5 4s-58 3.5 -87 4.5s-58 0.833008 -87 -0.5s-57.833 -4.33301 -86.5 -9
c-11.333 -2 -21.5 -0.833008 -30.5 3.5s-15.167 12.166 -18.5 23.499c-3.33301 10 -2.33301 20.333 3 31s13.666 16.667 24.999 18c30.667 5.33301 61.334 8.83301 92.001 10.5s61.334 2.16699 92.001 1.5s61.334 -1.83398 92.001 -3.50098s61.334 -2.83398 92.001 -3.50098
z" />
    <glyph glyph-name="period" unicode="." horiz-adv-x="143" 
d="M99 70c8.66699 -5.33301 15.3291 -13.332 19.9961 -23.999s5.33398 -20.667 2.00098 -30c-4 -11.333 -10.667 -19.666 -20 -24.999c-7.33301 -8 -16.666 -11.833 -27.999 -11.5s-20.666 4.16602 -27.999 11.499c-10 8 -16.333 14.667 -19 20
c-5.33301 9.33301 -6.83301 18.666 -4.5 27.999s7.5 17.333 15.5 24c1.33301 1.33301 3 2.83301 5 4.5s4 3.16699 6 4.5c6 2.66699 9.5 4 10.5 4s4.83301 0.666992 11.5 2c5.33301 0 9.33301 -0.666992 12 -2c6.66699 -1.33301 12.334 -3.33301 17.001 -6z" />
    <glyph glyph-name="slash" unicode="/" horiz-adv-x="364" 
d="M300 753c6 11.333 14.1689 17.833 24.502 19.5s19.666 0 27.999 -5s14.666 -12.5 18.999 -22.5s3.5 -20.667 -2.5 -32c-30 -58.667 -57.5 -118.5 -82.5 -179.5l-72.5 -184l-71 -184.5c-24 -61.333 -50.333 -121.666 -79 -180.999c-5.33301 -10 -13.5 -16.167 -24.5 -18.5
s-21.167 -0.833008 -30.5 4.5c-10 5.33301 -16.167 13.333 -18.5 24s-0.833008 20.667 4.5 30c28.667 59.333 55 119.666 79 180.999l71 184.5l72.5 184c25 61 52.5 120.833 82.5 179.5z" />
    <glyph glyph-name="zero" unicode="0" horiz-adv-x="479" 
d="M62 588c7.33301 16 16.668 31.1699 28.001 45.5029s24.166 27 38.499 38s29.833 19.667 46.5 26s34 9.5 52 9.5c36 -0.666992 69.667 -10 101 -28s57.666 -41.333 78.999 -70c15.333 -20.667 25.166 -42.334 29.499 -65.001s6.5 -46.667 6.5 -72
c0.666992 -40.667 -1.66602 -81.667 -6.99902 -123s-13.333 -82 -24 -122c-4.66699 -17.333 -10 -35 -16 -53s-13.5 -35.333 -22.5 -52s-19.667 -31.834 -32 -45.501s-26.833 -24.834 -43.5 -33.501c-30 -15.333 -57.167 -20.666 -81.5 -15.999s-46 15.667 -65 33
s-35.5 39.5 -49.5 66.5s-25.667 55 -35 84s-16.666 57.667 -21.999 86s-9 52.5 -11 72.5c-3.33301 37.333 -3.5 74.666 -0.5 111.999s12.5 73 28.5 107zM361.002 521.003c-3.33301 15.333 -10.8301 30.6689 -22.4971 46.002s-25.5 28.333 -41.5 39s-33.167 17.667 -51.5 21
s-35.5 0.666016 -51.5 -8.00098c-22 -12 -38.833 -27.667 -50.5 -47s-20 -40.5 -25 -63.5s-7.66699 -46.667 -8 -71s0.5 -47.166 2.5 -68.499c3.33301 -34 9.83301 -69.667 19.5 -107s23.5 -71.333 41.5 -102l13 -19.5c3.33301 -5 8.33301 -10.5 15 -16.5
c4.66699 -4.66699 7.83398 -7.5 9.50098 -8.5s2.5 -1.83301 2.5 -2.5l10 -4l10 -2.5c1.33301 -0.333008 2.33301 -0.5 3 -0.5c5.33301 1.33301 9 2 11 2c4 1.33301 8.66699 3.33301 14 6s10.666 6.33398 15.999 11.001l9 9l8.5 13
c1.66699 2.66699 3.16699 5.33398 4.5 8.00098l6 10.5c2 3.66699 3.66699 7.16699 5 10.5c2 4 3.33301 6.83301 4 8.5l4 10.5c7.33301 19.333 13.333 38.666 18 57.999s8.66699 39 12 59c3.33301 19.333 6.16602 38.666 8.49902 57.999s4.16602 39 5.49902 59
c0 9.33301 0.166992 18.5 0.5 27.5s0.166016 18.167 -0.500977 27.5v11.5c0 3.66699 -0.333008 7.5 -1 11.5c0 1.33301 -0.166992 3.66602 -0.5 6.99902s-0.5 5.66602 -0.5 6.99902z" />
    <glyph glyph-name="one" unicode="1" horiz-adv-x="278" 
d="M100 4c-11.333 3.33301 -19.166 9.66602 -23.499 18.999s-5.5 19.333 -3.5 30c10 54 17 108 21 162s6.33301 108.167 7 162.5s0.5 108.833 -0.5 163.5s-1.5 109 -1.5 163c0 12.667 4.16699 22.167 12.5 28.5s17.5 9.5 27.5 9.5s19.167 -3.16699 27.5 -9.5
s12.5 -15.833 12.5 -28.5c0 -56 0.5 -112.167 1.5 -168.5s1 -112.5 0 -168.5s-3.83301 -112 -8.5 -168s-12.334 -111.667 -23.001 -167c-2 -10.667 -8.16699 -18.667 -18.5 -24s-20.5 -6.66602 -30.5 -3.99902z" />
    <glyph glyph-name="two" unicode="2" horiz-adv-x="526" 
d="M499 78c2.66699 -9.33301 1.5 -19.4961 -3.5 -30.4961s-13.167 -17.5 -24.5 -19.5c-70 -9.33301 -140.667 -11.666 -212 -6.99902s-141.333 16 -210 34c-9.33301 2 -16.166 6 -20.499 12s-6.83301 12.667 -7.5 20s0.5 14.666 3.5 21.999s7.83301 13.666 14.5 18.999
c35.333 25.333 69.833 51.666 103.5 78.999s66.167 56.333 97.5 87c14 13.333 27.667 27.333 41 42s25.666 29.667 36.999 45c12 15.333 24 31.666 36 48.999s20.667 35.666 26 54.999c4 14.667 5.33301 29.167 4 43.5s-5 27.833 -11 40.5s-14.5 23.667 -25.5 33
s-24.167 16.333 -39.5 21c-17.333 5.33301 -34.666 8 -51.999 8s-34.833 -1.83301 -52.5 -5.5s-35 -8.33398 -52 -14.001s-33.5 -11.5 -49.5 -17.5c-12 -4 -22.167 -3.16699 -30.5 2.5s-13.833 13.334 -16.5 23.001s-2 19.667 2 30s12 17.5 24 21.5
c21.333 7.33301 43.166 14.333 65.499 21s44.833 11.667 67.5 15s45.334 4 68.001 2s45 -7.66699 67 -17c40 -17.333 70.667 -44.5 92 -81.5s28.666 -77.5 21.999 -121.5c-4 -25.333 -12 -48.833 -24 -70.5s-25.667 -42.5 -41 -62.5c-26.667 -38 -55.667 -72.667 -87 -104
c-25.333 -25.333 -51.166 -49.333 -77.499 -72s-53.5 -44.667 -81.5 -66c49.333 -9.33301 99.166 -14.833 149.499 -16.5s99.833 0.833008 148.5 7.5c11.333 1.33301 21.5 0 30.5 -4s15.167 -11.667 18.5 -23z" />
    <glyph glyph-name="three" unicode="3" horiz-adv-x="533" 
d="M296 399c34 -11.333 67.333 -26.1689 100 -44.502s59 -42.5 79 -72.5c11.333 -16.667 19 -34.5 23 -53.5s4.66699 -38 2 -57s-8.5 -37.333 -17.5 -55s-20.833 -33.167 -35.5 -46.5c-28 -26.667 -60.833 -45.167 -98.5 -55.5s-75.5 -15.833 -113.5 -16.5
c-32 -0.666992 -64.167 1.33301 -96.5 6s-63.5 13.334 -93.5 26.001c-10 4.66699 -16.167 12.834 -18.5 24.501s-0.833008 21.834 4.5 30.501c6 10 14 16 24 18s20 0.666992 30 -4c-3.33301 1.33301 -4.66602 2 -3.99902 2s1.83398 -0.333008 3.50098 -1l6 -2.5
c2.33301 -1 3.83301 -1.5 4.5 -1.5c3.33301 -1.33301 6.33301 -2.16602 9 -2.49902s5.66699 -1.16602 9 -2.49902l20 -4l21 -4c8 -1.33301 13 -2 15 -2s4.33301 -0.333008 7 -1c4 0 8 -0.166992 12 -0.5s8.33301 -0.5 13 -0.5c16.667 -0.666992 34 -0.666992 52 0
c10.667 0.666992 19.334 1.33398 26.001 2.00098s14.667 2 24 4c4 1.33301 8 2.5 12 3.5s8 2.16699 12 3.5l12 3c12 5.33301 21.833 10.166 29.5 14.499s13.167 8.16602 16.5 11.499c7.33301 6 12.666 11 15.999 15s6.66602 9.33301 9.99902 16
c3.33301 5.33301 6.16602 12.166 8.49902 20.499s3.5 15.166 3.5 20.499v10c-2 8.66699 -3.66699 14.667 -5 18c-8 16.667 -17.333 29.834 -28 39.501s-23.334 18.834 -38.001 27.501c-16 9.33301 -31.5 17 -46.5 23s-31.5 11.667 -49.5 17l-23 6
c-8 2 -15.667 3.66699 -23 5c-1.33301 0 -4.66602 0.333008 -9.99902 1s-7.33301 1 -6 1c-2.66699 0.666992 -5.16699 1 -7.5 1s-4.83301 0.333008 -7.5 1c-9.33301 0.666992 -17.333 3.83398 -24 9.50098s-11.334 12.5 -14.001 20.5s-2.66699 16 0 24s8.66699 14.667 18 20
l75 39c24.667 12.667 48.667 26.667 72 42c10 6.66699 19.667 13.667 29 21s18 15.666 26 24.999c1.33301 1.33301 3.16602 3.66602 5.49902 6.99902s4.16602 7 5.49902 11c-0.666992 -1.33301 -0.333984 -0.333008 0.999023 3s2 5.66602 2 6.99902
c0.666992 4 0.666992 7.66699 0 11s-2.33398 7 -5.00098 11c-3.33301 4.66699 -6.66602 8.83398 -9.99902 12.501s-7 7.5 -11 11.5c-9.33301 8.66699 -19.833 16.5 -31.5 23.5s-24.167 11.167 -37.5 12.5c-16 1.33301 -32 1 -48 -1s-31.833 -5 -47.5 -9
s-31.167 -8.33301 -46.5 -13s-30.666 -9 -45.999 -13c-12.667 -3.33301 -23.167 -1.66602 -31.5 5.00098s-13.833 14.834 -16.5 24.501s-2 19.167 2 28.5s12.333 15.666 25 18.999c18.667 4.66699 37.834 10 57.501 16s39.5 11.167 59.5 15.5s40.167 7 60.5 8
s40.5 -0.833008 60.5 -5.5c14.667 -4 30.167 -10.167 46.5 -18.5s31.333 -18.333 45 -30s25.334 -24.834 35.001 -39.501s15.5 -30.334 17.5 -47.001c2.66699 -16 2 -31.167 -2 -45.5s-10 -27.666 -18 -39.999s-17.667 -23.833 -29 -34.5s-23 -20.334 -35 -29.001
c-11.333 -8.66699 -23.166 -16.667 -35.499 -24z" />
    <glyph glyph-name="four" unicode="4" horiz-adv-x="534" 
d="M485 360c12 -3.33301 20 -9.66699 24 -19s4.66699 -18.833 2 -28.5s-8.16699 -17.667 -16.5 -24s-18.833 -7.83301 -31.5 -4.5l-10.5 2l-10.5 2c-0.666992 -15.333 -1.16699 -30.5 -1.5 -45.5s-1.16602 -30.167 -2.49902 -45.5
c-1.33301 -24.667 -2.16602 -49.334 -2.49902 -74.001s1.5 -49 5.5 -73c2 -11.333 0.666992 -21.5 -4 -30.5s-12.667 -15.167 -24 -18.5c-9.33301 -3.33301 -19.333 -2.33301 -30 3s-17 13.666 -19 24.999c-4.66699 26.667 -7.16699 53.334 -7.5 80.001
s0.166992 53.334 1.5 80.001c1.33301 18.667 2.33301 37.167 3 55.5l2 55.5c-46 4 -92.167 5.33301 -138.5 4s-92.5 -1.33301 -138.5 0c-10 0 -19.333 3.83301 -28 11.5s-12.667 17.167 -12 28.5c4 56 6.66699 111.667 8 167s4 111.333 8 168
c0.666992 10.667 4.66699 20 12 28s16.666 12 27.999 12c10 0 19.333 -4 28 -12s12.667 -17.333 12 -28c-4 -50 -6.5 -99.5 -7.5 -148.5s-3.16699 -98.167 -6.5 -147.5c40 0 79.5 0.166992 118.5 0.5s78.5 -1.16699 118.5 -4.5c-0.666992 53.333 -3.83398 106 -9.50098 158
s-8.83398 104.667 -9.50098 158c0 12.667 4.16699 22.167 12.5 28.5s17.5 9.5 27.5 9.5s19.167 -3.16699 27.5 -9.5s12.5 -15.833 12.5 -28.5c0 -27.333 1 -54.5 3 -81.5s4.16699 -54.167 6.5 -81.5s4.33301 -54.5 6 -81.5s2.5 -54.167 2.5 -81.5
c12.667 -2 26.334 -5 41.001 -9z" />
    <glyph glyph-name="five" unicode="5" horiz-adv-x="550" 
d="M384 375c16 -8 32.8389 -17.5127 50.5059 -28.5127s34 -23.5 49 -37.5s27.667 -29.333 38 -46s16.166 -35 17.499 -55c1.33301 -20.667 -3.5 -39.5 -14.5 -56.5s-24.5 -31.167 -40.5 -42.5c-5.33301 -4 -10.833 -7.5 -16.5 -10.5l-17.5 -9.5
c-3.33301 -1.33301 -6.83301 -2.83301 -10.5 -4.5s-7.5 -3.16699 -11.5 -4.5l-29 -13c-8.66699 -4 -17.334 -7.66699 -26.001 -11c-18.667 -7.33301 -38.667 -14.666 -60 -21.999s-42.833 -12.666 -64.5 -15.999s-43 -3.5 -64 -0.5s-40.5 11.5 -58.5 25.5
c-8.66699 6.66699 -12.667 15.834 -12 27.501s4.66699 21.167 12 28.5c8.66699 8.66699 18.167 12.667 28.5 12s19.833 -4.66699 28.5 -12l15 -4c-0.666992 0.666992 1 0.833984 5 0.500977s6.33301 -0.5 7 -0.5c6.66699 0 11.334 0.333008 14.001 1
c9.33301 0.666992 19.833 2.33398 31.5 5.00098s22.5 5.66699 32.5 9c22.667 7.33301 43.834 14.833 63.501 22.5s39.167 16.167 58.5 25.5c5.33301 2.66699 11.166 5.83398 17.499 9.50098s11.5 7.16699 15.5 10.5c2.66699 2 6.33398 5.33301 11.001 10l5 9
c0.666992 6 0.666992 9.33301 0 10l-4 11c-2 4 -4 7.33301 -6 10s-3 3.66699 -3 3c-3.33301 3.33301 -6.5 6.66602 -9.5 9.99902s-6.16699 6.66602 -9.5 9.99902c-14.667 13.333 -31 25.333 -49 36c-34.667 20.667 -68.667 37.334 -102 50.001
c-18.667 6.66699 -37.667 11.334 -57 14.001s-38.666 6 -57.999 10c-20.667 3.33301 -41.167 8.66602 -61.5 15.999s-37.5 19 -51.5 35c-6.66699 7.33301 -12.334 15.833 -17.001 25.5s-6.33398 19.834 -5.00098 30.501c1.33301 8.66699 2.5 17.167 3.5 25.5
s2.16699 17.166 3.5 26.499c3.33301 16 6.33301 32.667 9 50s8.66699 33 18 47c11.333 18 25.5 32.833 42.5 44.5s35.167 21.167 54.5 28.5c38 12.667 77.167 19.334 117.5 20.001s80.166 0 119.499 -2c12.667 -0.666992 22.334 -5.33398 29.001 -14.001s10 -18 10 -28
s-3.33301 -19 -10 -27s-16.334 -11.667 -29.001 -11c-23.333 1.33301 -46.833 2.33301 -70.5 3s-47.167 -0.333008 -70.5 -3c-19.333 -1.33301 -39.833 -4.83301 -61.5 -10.5s-38.5 -14.5 -50.5 -26.5c-6.66699 -6 -11.334 -11.5 -14.001 -16.5s-5 -12.5 -7 -22.5
c-2.66699 -10 -4.83398 -20.167 -6.50098 -30.5s-3.16699 -20.833 -4.5 -31.5c-0.666992 -3.33301 -1.16699 -6.16602 -1.5 -8.49902s-0.833008 -5.16602 -1.5 -8.49902c1.33301 -4.66699 3 -8.16699 5 -10.5s2.33301 -3.16602 1 -2.49902
c2.66699 -1.33301 5 -2.66602 7 -3.99902s4.33301 -2.66602 7 -3.99902c3.33301 -1.33301 7.33301 -2.66602 12 -3.99902l14 -4c20 -5.33301 40.333 -9.16602 61 -11.499s41 -6.16602 61 -11.499c19.333 -5.33301 38.166 -12 56.499 -20s36.166 -16.667 53.499 -26z" />
    <glyph glyph-name="six" unicode="6" horiz-adv-x="510" 
d="M133 -19c-22 6.66699 -39.1719 17.3311 -51.5049 31.998s-21.166 31.334 -26.499 50.001s-8.16602 38.334 -8.49902 59.001s0.833984 40.334 3.50098 59.001c1.33301 11.333 3.16602 22.833 5.49902 34.5s4.16602 23.167 5.49902 34.5
c-6.66699 2.66699 -12.167 7.16699 -16.5 13.5s-7 13 -8 20s0 13.833 3 20.5s8.5 12.334 16.5 17.001c2 1.33301 4.16699 2.66602 6.5 3.99902s4.83301 2.66602 7.5 3.99902l8 58.5c2.66699 19.667 6.33398 39.167 11.001 58.5c11.333 54.667 28.833 106 52.5 154
s53.5 93.667 89.5 137c6.66699 8 15.834 11.833 27.501 11.5s21.167 -4.16602 28.5 -11.499c8 -8.66699 11.833 -18.167 11.5 -28.5s-4.16602 -19.833 -11.499 -28.5c-29.333 -34.667 -53.666 -71.834 -72.999 -111.501s-34.333 -81.5 -45 -125.5
c-3.33301 -14 -6 -27.833 -8 -41.5l-6 -41.5c38 10.667 77.667 16 119 16c34.667 0 67.5 -5.5 98.5 -16.5s57.833 -30.5 80.5 -58.5c10 -12.667 18.167 -26.334 24.5 -41.001s10.166 -29.5 11.499 -44.5s-0.166992 -30 -4.5 -45s-11.833 -29.167 -22.5 -42.5
c-14.667 -17.333 -32 -32.166 -52 -44.499s-39.667 -23.833 -59 -34.5c-19.333 -10 -38.666 -19.5 -57.999 -28.5s-39.333 -17.167 -60 -24.5c-15.333 -5.33301 -32 -10.333 -50 -15s-34.667 -4.66699 -50 0zM133.995 209.997
c-3.33301 -17.333 -5.83594 -34.4971 -7.50293 -51.4971s-1.5 -35.167 0.5 -54.5c0.666992 -4.66699 1.83398 -10.334 3.50098 -17.001s3.83398 -12.334 6.50098 -17.001c4.66699 -5.33301 7.33398 -8 8.00098 -8c9.33301 -2.66699 15 -3.66699 17 -3
c5.33301 0.666992 9.83301 1.33398 13.5 2.00098s7.5 1.66699 11.5 3c8.66699 2.66699 17.167 5.66699 25.5 9l25.5 10c17.333 7.33301 35.166 15.666 53.499 24.999s35.833 19 52.5 29l21.5 13.5c7 4.33301 13.833 9.16602 20.5 14.499c-0.666992 0 0.5 1.16699 3.5 3.5
s5.16699 4.16602 6.5 5.49902c2.66699 2.66699 4.83398 5 6.50098 7s3.16699 4.66699 4.5 8c5.33301 10 5 23 -1 39c-3.33301 6.66699 -7.83301 13.5 -13.5 20.5s-11.5 13.167 -17.5 18.5c-18 15.333 -38.167 24.333 -60.5 27s-44.833 3 -67.5 1c-36 -2 -70.333 -9 -103 -21
c-1.33301 -11.333 -2.83301 -22.166 -4.5 -32.499s-3.5 -20.833 -5.5 -31.5z" />
    <glyph glyph-name="seven" unicode="7" horiz-adv-x="490" 
d="M271 621c-35.333 0 -70.502 -0.168945 -105.502 -0.501953s-70.167 -2.83301 -105.5 -7.5c-10.667 -1.33301 -20 2.5 -28 11.5s-12 18.5 -12 28.5c0 12 4 21.333 12 28s17.333 10.667 28 12c35.333 4.66699 70.5 7 105.5 7h105.5h69c22.667 0 45.667 -0.666992 69 -2
c13.333 0 24 -5.16699 32 -15.5s10.333 -21.833 7 -34.5l-81 -276l-32.5 -105.5c-11 -35 -22.5 -69.833 -34.5 -104.5l-25.5 -72c-8.33301 -24.667 -19.166 -47.667 -32.499 -69c-6 -11.333 -14.167 -17.666 -24.5 -18.999s-19.833 0.5 -28.5 5.5s-15 12.333 -19 22
s-2.66699 20.167 4 31.5l12 24c0.666992 1.33301 1.5 3.33301 2.5 6s1.83301 4.33398 2.5 5.00098c0.666992 4 2.33398 8.33301 5.00098 13c5.33301 13.333 10.333 26.833 15 40.5s9.66699 27.5 15 41.5l66 207l33 111l32 111c-14.667 0 -29.167 0.166992 -43.5 0.5
s-28.5 0.5 -42.5 0.5z" />
    <glyph glyph-name="eight" unicode="8" horiz-adv-x="518" 
d="M321 -30c-18.667 -4.66699 -38.1641 -7.16602 -58.4971 -7.49902s-40.333 1.5 -60 5.5s-38.5 10.667 -56.5 20s-33.333 21.666 -46 36.999c-15.333 18 -26.5 37.167 -33.5 57.5s-10.5 41 -10.5 62s2.83301 42.333 8.5 64s13.167 42.5 22.5 62.5
c13.333 28.667 28.666 56 45.999 82s35.666 51.667 54.999 77l-39 28c-12.667 9.33301 -25 19.666 -37 30.999c-14 13.333 -27.333 28.5 -40 45.5s-19.667 36.167 -21 57.5c-0.666992 18.667 3.66602 34.334 12.999 47.001s21.166 23.334 35.499 32.001s30 15.5 47 20.5
s32.833 8.83301 47.5 11.5c28.667 5.33301 57.167 9 85.5 11s56.833 3.66699 85.5 5c2 7.33301 3.83301 14.666 5.5 21.999s3.5 14.666 5.5 21.999c3.33301 12 9.83301 20 19.5 24s19.334 4.66699 29.001 2s17.667 -8.16699 24 -16.5s7.83301 -18.5 4.5 -30.5l-6 -24
c8 -4 13.5 -10.167 16.5 -18.5s3.66699 -16.666 2 -24.999s-5.66699 -15.833 -12 -22.5s-14.833 -10 -25.5 -10c-6 -16 -12.333 -30.333 -19 -43c-12.667 -29.333 -28.5 -56.5 -47.5 -81.5s-38.833 -49.833 -59.5 -74.5c4 -2 7.66699 -4.66699 11 -8
c20 -17.333 37.5 -36.833 52.5 -58.5s28.833 -44.167 41.5 -67.5c13.333 -24 24.833 -49.333 34.5 -76s15.167 -54 16.5 -82c2 -44 -9.5 -82.5 -34.5 -115.5s-59.167 -54.833 -102.5 -65.5zM143.003 572.001c7.33301 -8.66699 14.833 -16.501 22.5 -23.501
s16.167 -14.167 25.5 -21.5c16 -12.667 31.667 -24.334 47 -35.001l6 6c2 2 3.66699 4.33301 5 7l43.5 53c14.333 18 26.833 37.333 37.5 58c1.33301 3.33301 3 7 5 11s3.66699 7.66699 5 11c-26.667 -0.666992 -53 -2.66699 -79 -6
c-16 -1.33301 -32.667 -3.66602 -50 -6.99902s-34.333 -8 -51 -14c-6 -2.66699 -9.83301 -4.16699 -11.5 -4.5s-3.16699 -1.16602 -4.5 -2.49902c-5.33301 -3.33301 -8.33301 -5 -9 -5l-3 -10c1.33301 -3.33301 3 -6.5 5 -9.5s4 -5.5 6 -7.5zM169.003 68
c27.333 -18 57.333 -26.6689 90 -26.002c15.333 0 30.333 1.83301 45 5.5s28.667 10.167 42 19.5l11.5 11.5c4.33301 4.33301 7.83301 9.5 10.5 15.5c4.66699 10.667 7.33398 18.334 8.00098 23.001c2 8.66699 3 18 3 28c-1.33301 25.333 -7 50 -17 74
s-21.333 46.667 -34 68l-19 33c-6.66699 11.333 -14.667 21.666 -24 30.999l-16 16c-5.33301 5.33301 -11 10.333 -17 15c-1.33301 -2 -3 -4 -5 -6s-3.66699 -4 -5 -6l-37.5 -51.5c-13 -18.333 -24.833 -37.166 -35.5 -56.499s-19.334 -39.166 -26.001 -59.499
s-9.66699 -40.5 -9 -60.5c0.666992 -14 4.16699 -28 10.5 -42s14.5 -24.667 24.5 -32z" />
    <glyph glyph-name="nine" unicode="9" horiz-adv-x="480" 
d="M422 581c-2 -29.333 -5.50195 -58.499 -10.502 -87.499s-6.83301 -58.167 -5.5 -87.5l4 -96c1.33301 -32 1.66602 -64.333 0.999023 -97c-1.33301 -34 -2.33301 -68 -3 -102s-0.666992 -68 0 -102c0 -12.667 -4.16699 -22.167 -12.5 -28.5s-17.5 -9.5 -27.5 -9.5
s-19.167 3.16699 -27.5 9.5s-12.5 15.833 -12.5 28.5c-0.666992 48 0 95.667 2 143s2.66699 95 2 143c-46.667 -13.333 -96 -15.666 -148 -6.99902l-38 6.5c-13.333 2.33301 -26.333 5.5 -39 9.5s-24.667 9.33301 -36 16s-21 15.334 -29 26.001
c-7.33301 10.667 -12.166 22.667 -14.499 36s-2.66602 26.833 -0.999023 40.5s4.33398 27.167 8.00098 40.5s7.83398 25.666 12.501 36.999c12.667 31.333 28 61 46 89s38.667 53.667 62 77c17.333 17.333 36.333 32.666 57 45.999s42.667 23.666 66 30.999
c15.333 5.33301 31.333 8.33301 48 9s32 -3.33301 46 -12c13.333 -8 23.666 -18.167 30.999 -30.5s12.5 -25.833 15.5 -40.5s4.5 -29.5 4.5 -44.5s-0.333008 -29.5 -1 -43.5zM343.998 603.001l-0.000976562 20c0 6.66699 -0.333008 13.334 -1 20.001
c-0.666992 0 -1.16699 1.83301 -1.5 5.5s-0.833008 6.16699 -1.5 7.5c-2.66699 8 -4.66699 12.333 -6 13l-14 3c-21.333 -4.66699 -40.333 -12 -57 -22s-32.334 -22 -47.001 -36c-38 -37.333 -67.667 -79.666 -89 -126.999c-4.66699 -10 -8.83398 -20.333 -12.501 -31
s-6.16699 -21.334 -7.5 -32.001c0 -4.66699 -0.166992 -9.16699 -0.5 -13.5s-0.166016 -8.5 0.500977 -12.5l8 -11c6.66699 -2.66699 11 -4.33398 13 -5.00098l6 -2c24 -6 48 -11 72 -15c44 -7.33301 84.667 -3.33301 122 12c-0.666992 10 -1.16699 20.167 -1.5 30.5
s-0.166016 20.5 0.500977 30.5l4 36l4 35c2 15.333 3.83301 30.833 5.5 46.5s2.83398 31.5 3.50098 47.5z" />
    <glyph glyph-name="colon" unicode=":" horiz-adv-x="159" 
d="M99 70c8.66699 -5.33301 15.3291 -13.332 19.9961 -23.999s5.33398 -20.667 2.00098 -30c-4 -11.333 -10.667 -19.666 -20 -24.999c-7.33301 -8 -16.666 -11.833 -27.999 -11.5s-20.666 4.16602 -27.999 11.499c-10 8 -16.333 14.667 -19 20
c-5.33301 9.33301 -6.83301 18.666 -4.5 27.999s7.5 17.333 15.5 24c1.33301 1.33301 3 2.83301 5 4.5s4 3.16699 6 4.5c6 2.66699 9.5 4 10.5 4s4.83301 0.666992 11.5 2c5.33301 0 9.33301 -0.666992 12 -2c6.66699 -1.33301 12.334 -3.33301 17.001 -6zM114.995 362.001
c8.66699 -5.33301 15.3311 -13.1689 19.998 -23.502s5.33398 -20.166 2.00098 -29.499c-2.66699 -9.33301 -9 -18 -19 -26c-7.33301 -8 -16.666 -11.667 -27.999 -11s-20.666 4.66699 -27.999 12c-9.33301 6 -16 12.333 -20 19
c-5.33301 9.33301 -6.66602 18.833 -3.99902 28.5s7.66699 17.5 15 23.5c4.66699 4.66699 8.66699 7.66699 12 9c5.33301 2.66699 8.66602 4.16699 9.99902 4.5s5 0.833008 11 1.5c2 0.666992 4.33301 0.666992 7 0s4.66699 -1 6 -1
c3.33301 -0.666992 6.16602 -1.66699 8.49902 -3s4.83301 -2.66602 7.5 -3.99902z" />
    <glyph glyph-name="semicolon" unicode=";" horiz-adv-x="162" 
d="M107 354c8.66699 -5.33301 15.3301 -13.168 19.9971 -23.501s5.33398 -20.5 2.00098 -30.5c-2.66699 -10 -9 -18.333 -19 -25c-7.33301 -8 -16.666 -11.833 -27.999 -11.5s-20.666 4.16602 -27.999 11.499c-9.33301 6.66699 -16 13.334 -20 20.001
c-5.33301 9.33301 -6.66602 18.833 -3.99902 28.5s7.66699 17.5 15 23.5c2 1.33301 3.83301 2.83301 5.5 4.5s3.83398 3.16699 6.50098 4.5c5.33301 2.66699 8.66602 4 9.99902 4s5 0.666992 11 2c4.66699 0 9 -0.666992 13 -2c3.33301 0 6.16602 -0.666992 8.49902 -2
s4.83301 -2.66602 7.5 -3.99902zM47.9961 64.998c3.33301 12.667 9.83301 21 19.5 25s19.334 4.66699 29.001 2s17.667 -8.33398 24 -17.001s7.83301 -19 4.5 -31c-9.33301 -37.333 -23.333 -71.5 -42 -102.5s-46.667 -53.833 -84 -68.5c-10 -4 -19.833 -2.83301 -29.5 3.5
s-16.167 14.5 -19.5 24.5c-3.33301 11.333 -2 21.166 4 29.499s14 14.833 24 19.5c11.333 4.66699 20.833 11.334 28.5 20.001s14.167 18.167 19.5 28.5s9.66602 21.333 12.999 33s6.33301 22.834 9 33.501z" />
    <glyph glyph-name="less" unicode="&#x3c;" horiz-adv-x="460" 
d="M401 471c12.667 0 22.168 -4.00391 28.501 -12.0039s9.5 -17 9.5 -27s-3.16699 -19.333 -9.5 -28s-15.833 -13 -28.5 -13c-7.33301 -1.33301 -12.333 -2.66602 -15 -3.99902c-14 -3.33301 -27 -7.33301 -39 -12c-31.333 -10.667 -62.666 -22.667 -93.999 -36l-53.5 -26.5
c-17.667 -9 -35.167 -18.833 -52.5 -29.5c-4 -2.66699 -8 -5.16699 -12 -7.5s-7.66699 -4.83301 -11 -7.5c40 -22.667 82.167 -42.167 126.5 -58.5s87.833 -34.833 130.5 -55.5c10 -5.33301 16.333 -13.5 19 -24.5s1.33398 -21.167 -3.99902 -30.5
c-6 -10 -14.167 -16.167 -24.5 -18.5s-20.5 -0.833008 -30.5 4.5c-25.333 12 -51.166 23.333 -77.499 34l-79 31.5c-26.333 10.333 -52.5 21.166 -78.5 32.499s-51.333 24 -76 38c-8.66699 4.66699 -14.834 12.667 -18.501 24s-2.16699 21.333 4.5 30
c12 16 25.667 30.333 41 43s31.666 24.334 48.999 35.001s35.166 20.334 53.499 29.001l53.5 25c19.333 8.66699 38.666 16.834 57.999 24.501l58 22.5l35.5 10.5c12.333 3.66699 24.5 5.83398 36.5 6.50098z" />
    <glyph glyph-name="equal" unicode="=" horiz-adv-x="542" 
d="M67 321c-11.333 -1.33301 -20.833 2.49902 -28.5 11.499s-11.5 18.5 -11.5 28.5c0 11.333 3.83301 20.333 11.5 27s17.167 10.667 28.5 12c34 4 68.167 6.33301 102.5 7s68.833 0.833984 103.5 0.500977s69.167 -1 103.5 -2s68.5 -1.16699 102.5 -0.5
c12.667 0.666992 22.167 -3 28.5 -11s9.5 -17 9.5 -27s-3.16699 -19.333 -9.5 -28s-15.833 -13 -28.5 -13c-34 -1.33301 -68.167 -1.5 -102.5 -0.5s-68.833 1.66699 -103.5 2s-69.167 0.333008 -103.5 0s-68.5 -2.5 -102.5 -6.5zM483 237.999c12.667 0 22.167 -4 28.5 -12
s9.5 -17 9.5 -27s-3.16699 -19.333 -9.5 -28s-15.833 -13 -28.5 -13c-35.333 -0.666992 -70.666 -0.333984 -105.999 0.999023s-70.666 2.5 -105.999 3.5s-70.666 1.5 -105.999 1.5s-70.666 -1 -105.999 -3c-12.667 -0.666992 -22.167 2.83301 -28.5 10.5
s-9.5 16.5 -9.5 26.5s3.16699 19.333 9.5 28s15.833 13.667 28.5 15c35.333 2 70.666 3 105.999 3s70.666 -0.5 105.999 -1.5s70.666 -2.16699 105.999 -3.5s70.666 -1.66602 105.999 -0.999023z" />
    <glyph glyph-name="greater" unicode="&#x3e;" horiz-adv-x="435" 
d="M244 409c31.333 -11.333 61.5029 -24.501 90.5029 -39.501s55.167 -34.5 78.5 -58.5c7.33301 -7.33301 11.333 -16.833 12 -28.5s-3.33301 -21.167 -12 -28.5c-26 -21.333 -54.167 -39.166 -84.5 -53.499s-60.5 -29.5 -90.5 -45.5l-69 -41l-68 -42
c-11.333 -6.66699 -21.833 -8.16699 -31.5 -4.5s-17 9.83398 -22 18.501s-6.83301 18.334 -5.5 29.001s7.33301 19.334 18 26.001l69 42c22.667 14 45.667 27.333 69 40c19.333 11.333 39.666 21.666 60.999 30.999s41.666 19.666 60.999 30.999
c-16 11.333 -33 20.833 -51 28.5s-36.667 14.834 -56 21.501l-81.5 30.5c-26.333 10.333 -53.833 19.166 -82.5 26.499c-12.667 3.33301 -21 9.83301 -25 19.5s-4.66699 19.167 -2 28.5s8.16699 17.166 16.5 23.499s18.833 8.16602 31.5 5.49902
c30 -7.33301 59.167 -16.666 87.5 -27.999s57.166 -22 86.499 -32z" />
    <glyph glyph-name="question" unicode="?" horiz-adv-x="465" 
d="M226 726c20.667 -4.66699 42.335 -11.002 65.002 -19.002s44 -18.333 64 -31s37.333 -27.834 52 -45.501s24 -38.5 28 -62.5c3.33301 -16 4.66602 -32.333 3.99902 -49s-6.33398 -32 -17.001 -46c-9.33301 -12.667 -20.5 -22.834 -33.5 -30.501
s-27.167 -13.834 -42.5 -18.501c-14 -4 -28 -7.16699 -42 -9.5s-28 -4.83301 -42 -7.5l-21.5 -4c-7 -1.33301 -14.167 -3 -21.5 -5c-3.33301 -1.33301 -6.5 -2.16602 -9.5 -2.49902s-6.16699 -1.16602 -9.5 -2.49902c-8.66699 -4 -15 -7.33301 -19 -10
c-4 -4 -6.16699 -6.5 -6.5 -7.5s-0.833008 -1.83301 -1.5 -2.5c-0.666992 -6.66699 -0.666992 -11 0 -13c0 -6 1.66699 -12.833 5 -20.5s6 -14.5 8 -20.5c2.66699 -7.33301 5.33398 -14.166 8.00098 -20.499s5 -13.166 7 -20.499c5.33301 -14 9.33301 -28 12 -42
s4.33398 -28.667 5.00098 -44c0 -13.333 -4 -23.166 -12 -29.499s-17 -9.5 -27 -9.5s-19.167 3.33301 -27.5 10s-12.833 16.334 -13.5 29.001c0 16 -2.5 31.5 -7.5 46.5s-10.5 30.167 -16.5 45.5c-4 10.667 -7.66699 21.334 -11 32.001s-5.83301 21.5 -7.5 32.5s-2 22 -1 33
s4.16699 21.833 9.5 32.5c7.33301 13.333 17.166 24.166 29.499 32.499s25.5 15.166 39.5 20.499c13.333 4.66699 26.833 8.5 40.5 11.5s27.5 5.5 41.5 7.5s27.667 4.33301 41 7s26.666 6.66699 39.999 12c5.33301 2 9.33301 4 12 6c4 3.33301 7 6 9 8
c1.33301 4 1.83301 7 1.5 9s-0.5 4 -0.5 6s0.166992 3.83301 0.5 5.5s0.833008 1.5 1.5 -0.5c-1.33301 4.66699 -2.33301 9 -3 13s-1.66699 8 -3 12c-2 5.33301 -5.5 10.833 -10.5 16.5s-10.167 11.167 -15.5 16.5c-15.333 13.333 -33.666 23.833 -54.999 31.5
s-42 14.167 -62 19.5c-26.667 6 -53.5 10.333 -80.5 13s-54.167 4.33398 -81.5 5.00098c-13.333 0.666992 -23.166 5.16699 -29.499 13.5s-9.5 17.5 -9.5 27.5s3.16699 19 9.5 27s16.166 12 29.499 12c30 -1.33301 59.667 -3.33301 89 -6s58.666 -7.33398 87.999 -14.001z
M216.001 69.998c9.33301 -5.33301 16.166 -13.3311 20.499 -23.998s4.83301 -20.667 1.5 -30c-2.66699 -10.667 -9 -19 -19 -25c-7.33301 -8 -16.666 -11.833 -27.999 -11.5s-20.666 4.16602 -27.999 11.499c-10 8 -16.333 14.667 -19 20
c-5.33301 9.33301 -6.83301 18.666 -4.5 27.999s7.5 17.333 15.5 24c1.33301 1.33301 3 2.83301 5 4.5s4 3.16699 6 4.5c6 2.66699 9.5 4 10.5 4s4.83301 0.666992 11.5 2c5.33301 0 9.33301 -0.666992 12 -2c5.33301 -0.666992 10.666 -2.66699 15.999 -6z" />
    <glyph glyph-name="at" unicode="@" horiz-adv-x="691" 
d="M391 -8c-23.333 -1.33301 -47.0029 -1.82617 -71.0029 -1.49316s-47.667 2.83301 -71 7.5c-48.667 10 -91.334 31.333 -128.001 64s-62.667 72.667 -78 120c-20 60.667 -29.167 122 -27.5 184s16.5 122 44.5 180c11.333 23.333 24 47 38 71s30.667 44.667 50 62
c42.667 38.667 92.334 62 149.001 70c15.333 2 30.166 3.66699 44.499 5s28.833 1.33301 43.5 0c11.333 -0.666992 23.833 -1.16699 37.5 -1.5s26.167 -2.5 37.5 -6.5c10.667 -3.33301 20.5 -7.83301 29.5 -13.5s18.167 -11.834 27.5 -18.501
c7.33301 -4.66699 14.5 -8.83398 21.5 -12.501s13.833 -7.83398 20.5 -12.501c20.667 -14.667 37.167 -32.5 49.5 -53.5s22.5 -43.167 30.5 -66.5c9.33301 -26.667 17 -54.334 23 -83.001s9 -57.667 9 -87c-1.33301 -51.333 -11.333 -101 -30 -149
c-7.33301 -20.667 -16.166 -41.334 -26.499 -62.001s-24.166 -38 -41.499 -52c-21.333 -17.333 -44 -25.166 -68 -23.499s-47 9.5 -69 23.5c-26 16.667 -44.333 37 -55 61c-28 -4.66699 -56.167 -4.5 -84.5 0.5s-52.833 18.833 -73.5 41.5
c-21.333 23.333 -35.166 50.333 -41.499 81s-7.5 61.667 -3.5 93c2 14 4.66699 27.833 8 41.5s8.33301 26.5 15 38.5s15 22.5 25 31.5s22.333 15.833 37 20.5c21.333 7.33301 43.5 10.166 66.5 8.49902s45.5 -4.16699 67.5 -7.5c2.66699 16 9.33398 26.667 20.001 32
s20.667 6.66602 30 3.99902c11.333 -3.33301 19.333 -9.66602 24 -18.999s6 -19.333 4 -30c-5.33301 -27.333 -8.83301 -54.166 -10.5 -80.499s-3.16699 -53.5 -4.5 -81.5c-1.33301 -22 -3.66602 -42.5 -6.99902 -61.5s-4.33301 -39.167 -3 -60.5
c0 -4.66699 0.666992 -9.83398 2 -15.501s3.33301 -9.83398 6 -12.501c12.667 -14 27.334 -23.333 44.001 -28c6 -1.33301 9.66699 -1.66602 11 -0.999023c4 1.33301 7.33301 3.33301 10 6c10 10 19 23 27 39c9.33301 18 17.333 37.333 24 58s11.667 41 15 61
c3.33301 26 3.5 52.333 0.5 79s-8.16699 52.667 -15.5 78c-5.33301 17.333 -11.333 35.166 -18 53.499s-16.667 33.833 -30 46.5c-5.33301 5.33301 -11.333 9.66602 -18 12.999s-13 7 -19 11l-22 16c-7.33301 5.33301 -15 10 -23 14c-6.66699 2 -12 3.33301 -16 4
s-5.33301 1 -4 1l-39 3h-36.5c-12.333 0 -24.5 -1.33301 -36.5 -4c-23.333 -4 -46.333 -11.167 -69 -21.5s-41.334 -25.5 -56.001 -45.5c-34 -46 -59.667 -96 -77 -150s-21 -110 -11 -168c4.66699 -24 10.334 -47.667 17.001 -71s17.334 -45 32.001 -65
c11.333 -17.333 25.666 -31.833 42.999 -43.5s35.666 -20.167 54.999 -25.5c20.667 -5.33301 41.834 -8.66602 63.501 -9.99902s43.167 -1.33301 64.5 0c19.333 0.666992 39.166 2.5 59.499 5.5s38.166 9.83301 53.499 20.5c8.66699 6.66699 18.5 8.16699 29.5 4.5
s19.167 -9.83398 24.5 -18.501c6 -10 7.5 -20 4.5 -30s-9.16699 -18 -18.5 -24c-19.333 -14 -41 -23.333 -65 -28s-47.667 -7.66699 -71 -9zM380.997 378.007c1.33301 15.333 2.33105 30.335 2.99805 45.002s1.66699 29.334 3 44.001c-8 1.33301 -15.833 2.33301 -23.5 3
l-23.5 2c-5.33301 0.666992 -10.666 1 -15.999 1h-16c-7.33301 -1.33301 -11.666 -2 -12.999 -2s-2.66602 -0.333008 -3.99902 -1c-6 -2 -10.333 -3.66699 -13 -5c-4.66699 -4.66699 -7 -7.33398 -7 -8.00098c-3.33301 -5.33301 -5.33301 -8.5 -6 -9.5
s-1.66699 -5.16699 -3 -12.5c-1.33301 -4.66699 -2.33301 -9.33398 -3 -14.001s-1.33398 -9 -2.00098 -13c-2 -22 -2 -43.167 0 -63.5s9.66699 -36.833 23 -49.5c4 -4 7 -6.83301 9 -8.5s6 -4.16699 12 -7.5c-1.33301 1.33301 -0.166016 1.16602 3.50098 -0.500977
s6.16699 -2.5 7.5 -2.5c2.66699 -0.666992 5 -1.33398 7 -2.00098s4.33301 -1 7 -1c6.66699 -1.33301 14 -1.5 22 -0.5s15.667 2.16699 23 3.5c0.666992 4.66699 1.16699 9 1.5 13s0.833008 8 1.5 12c1.33301 10.667 2.66602 22.834 3.99902 36.501s2.33301 27.167 3 40.5z
" />
    <glyph glyph-name="A" unicode="A" horiz-adv-x="552" 
d="M110 13c0 -12.667 -4.16504 -22.167 -12.498 -28.5s-17.5 -9.5 -27.5 -9.5s-19 3.16699 -27 9.5s-12 15.833 -12 28.5c0 52 6 102 18 150s27 95.667 45 143c-4.66699 8.66699 -6 18.334 -4 29.001c4 14 12.667 22.667 26 26l41.5 95.5l41.5 95.5
c13.333 32 25.666 64.333 36.999 97s20.666 66 27.999 100c2 10 6.16699 18.667 12.5 26s15.166 11 26.499 11c10.667 0 20.334 -3.83301 29.001 -11.5s12.334 -17.167 11.001 -28.5c-2 -38.667 -1.33301 -74.167 2 -106.5s8.33301 -64.333 15 -96
s14.167 -63.334 22.5 -95.001s16.166 -63.167 23.499 -94.5c7.33301 -30 14 -60 20 -90s15.667 -59 29 -87c6.66699 -14 13.667 -27.5 21 -40.5s15.333 -26.167 24 -39.5c8 -12 15.333 -24.5 22 -37.5s11.334 -27.167 14.001 -42.5
c1.33301 -10.667 -0.166992 -20.667 -4.5 -30s-12.166 -15.666 -23.499 -18.999c-9.33301 -2.66699 -19.333 -1.33398 -30 3.99902s-17 13.333 -19 24c-2.66699 15.333 -7.83398 29 -15.501 41l-23.5 37c-9.33301 14.667 -17.833 29.5 -25.5 44.5s-14.5 30.5 -20.5 46.5
c-6.66699 16.667 -12.334 33.5 -17.001 50.5s-9 34.167 -13 51.5c-30 2 -59.5 3.5 -88.5 4.5s-58.167 3.16699 -87.5 6.5c-16 -42.667 -29.5 -86 -40.5 -130s-16.833 -89 -17.5 -135zM204.002 367c-1.33301 -2 -2.16895 -4.16895 -2.50195 -6.50195
s-1.16602 -4.5 -2.49902 -6.5c21.333 -2 42.333 -3.16699 63 -3.5s41.667 -1.16602 63 -2.49902c-7.33301 32 -15.166 63.833 -23.499 95.5s-15.833 63.834 -22.5 96.501l-37 -86.5z" />
    <glyph glyph-name="B" unicode="B" horiz-adv-x="511" 
d="M75 353c-10.667 -1.33301 -19.8291 2.33105 -27.4961 10.998s-11.5 18 -11.5 28c0 12 3.83301 21.333 11.5 28s17.167 10.667 28.5 12c6 43.333 9.83301 86.333 11.5 129s3.16699 85.667 4.5 129c-8.66699 2.66699 -15.834 7.16699 -21.501 13.5s-8.5 14.5 -8.5 24.5
s3.83301 19.5 11.5 28.5s17.167 12.833 28.5 11.5c24.667 -2.66699 49.5 -5.5 74.5 -8.5s50 -6.83301 75 -11.5s49.667 -10.667 74 -18s47.5 -16.666 69.5 -27.999c15.333 -7.33301 29.833 -16.833 43.5 -28.5s25 -24.667 34 -39s14.667 -29.833 17 -46.5
s-0.166992 -34 -7.5 -52c-13.333 -32.667 -31.5 -60.167 -54.5 -82.5s-50.5 -40.166 -82.5 -53.499c-6.66699 -3.33301 -13.334 -6 -20.001 -8s-13.334 -4.33301 -20.001 -7c10 -5.33301 20.333 -12.333 31 -21c23.333 -19.333 43.666 -41.166 60.999 -65.499
s32.666 -50.166 45.999 -77.499l22.5 -47c7.66699 -16 11.834 -32.667 12.501 -50c0.666992 -21.333 -5.83301 -39.5 -19.5 -54.5s-29.5 -26.5 -47.5 -34.5c-48 -20.667 -96.833 -32.834 -146.5 -36.501s-100.167 -3.16699 -151.5 1.5c-8.66699 -4.66699 -18 -6.5 -28 -5.5
s-17.667 5.83301 -23 14.5c-6 3.33301 -11 7.83301 -15 13.5s-6 12.5 -6 20.5c0 4.66699 0.833008 9.16699 2.5 13.5s3.83398 8.16602 6.50098 11.499c-0.666992 20.667 0.666016 41.167 3.99902 61.5l10 61.5c4.66699 26.667 7.5 53.5 8.5 80.5s2.16699 53.833 3.5 80.5z
M171.005 679.997c-1.33301 -40 -2.83496 -80.1689 -4.50195 -120.502s-3.5 -80.5 -5.5 -120.5c25.333 2.66699 50.833 6.5 76.5 11.5s50.167 12.167 73.5 21.5c9.33301 3.33301 19.833 8.33301 31.5 15s20.5 12.667 26.5 18c9.33301 9.33301 16.5 17.333 21.5 24
s10.5 16.667 16.5 30c-1.33301 -2 -1.5 -1.33301 -0.5 2s1.83301 6.33301 2.5 9c0 0.666992 0.166992 2.16699 0.5 4.5s0.5 4.5 0.5 6.5c-2 6.66699 -3.5 11 -4.5 13s-2.16699 3.66699 -3.5 5c0 0.666992 -1.16699 2.33398 -3.5 5.00098s-4.16602 4.33398 -5.49902 5.00098
c-3.33301 3.33301 -7 6.33301 -11 9l-17.5 10.5c-6.33301 3.66699 -12.166 6.5 -17.499 8.5c-28 11.333 -56.833 20.333 -86.5 27s-59.5 12 -89.5 16zM145.003 191.995l-10.499 -56.498c-3.66699 -19 -5.5 -38.167 -5.5 -57.5c40.667 -3.33301 81.167 -3.83301 121.5 -1.5
s79.833 11.166 118.5 26.499c8 2.66699 16 6.66699 24 12c3.33301 6.66699 4.33301 11.334 3 14.001c-3.33301 10.667 -7.16602 20.834 -11.499 30.501s-9.5 20.167 -15.5 31.5c-5.33301 11.333 -11 22.166 -17 32.499s-12.667 20.5 -20 30.5l-10 12l-12 15
c-4.66699 4.66699 -9.83398 9.5 -15.501 14.5s-10.167 8.5 -13.5 10.5c-19.333 14 -39.333 24.667 -60 32s-42.334 12 -65.001 14c-1.33301 -26.667 -2.5 -53.334 -3.5 -80.001s-3.5 -53.334 -7.5 -80.001z" />
    <glyph glyph-name="C" unicode="C" horiz-adv-x="507" 
d="M57 162c-16 38.667 -27.0049 78.332 -33.0049 118.999c-3.33301 23.333 -6.16602 46.833 -8.49902 70.5s-0.166016 47.167 6.50098 70.5c3.33301 14.667 7.66602 28.834 12.999 42.501l16 41.5c4 10.667 6.83301 21.334 8.5 32.001s4.16699 21.667 7.5 33
c6.66699 24 16.667 44.833 30 62.5s31 32.167 53 43.5c20.667 11.333 42 20.333 64 27s44.333 12 67 16c20.667 4 41.5 7 62.5 9s42.167 1.66699 63.5 -1c11.333 -1.33301 20.833 -5.33301 28.5 -12s11.5 -15.667 11.5 -27c0 -10 -3.83301 -19.5 -11.5 -28.5
s-17.167 -12.833 -28.5 -11.5c-2 0 -4 0.166992 -6 0.5s-4 0.5 -6 0.5c-20 1.33301 -40.167 0.833008 -60.5 -1.5s-40.166 -5.83301 -59.499 -10.5c-11.333 -3.33301 -22.666 -6.5 -33.999 -9.5s-22.333 -6.83301 -33 -11.5c-7.33301 -3.33301 -14.666 -7 -21.999 -11
c-5.33301 -2.66699 -9 -5 -11 -7c-12.667 -10.667 -21 -20.667 -25 -30s-7.16699 -19.166 -9.5 -29.499s-4.5 -20.833 -6.5 -31.5s-4.66699 -20.667 -8 -30l-16 -41c-5.33301 -14 -9.66602 -28.333 -12.999 -43c-2 -10 -2.66699 -20 -2 -30s1.66699 -20 3 -30
c1.33301 -17.333 3.5 -35.333 6.5 -54s7.16699 -36.667 12.5 -54s12.5 -33.833 21.5 -49.5s20.167 -29.5 33.5 -41.5c16.667 -14 35.667 -24.167 57 -30.5s42.666 -10.833 63.999 -13.5c26.667 -4 52.667 -4.33301 78 -1s49.333 12.666 72 27.999
c10.667 6.66699 20.834 8.16699 30.501 4.5s17 -9.66699 22 -18s7 -18 6 -29s-6.83301 -19.833 -17.5 -26.5c-32 -21.333 -66.167 -33.833 -102.5 -37.5s-72.833 -2.83398 -109.5 2.49902c-24.667 3.33301 -48.667 8.5 -72 15.5s-45 18.167 -65 33.5
c-34.667 25.333 -60.667 58.333 -78 99z" />
    <glyph glyph-name="D" unicode="D" horiz-adv-x="570" 
d="M523 247c-3.33301 -40.667 -15.333 -76.835 -36 -108.502s-48 -58.5 -82 -80.5c-22.667 -14 -47 -26.667 -73 -38s-52 -20 -78 -26c-23.333 -5.33301 -46.166 -7.66602 -68.499 -6.99902s-44.833 2.33398 -67.5 5.00098c-5.33301 -6 -11.833 -10.167 -19.5 -12.5
s-15.167 -2.5 -22.5 -0.5c-15.333 4 -24.666 13.667 -27.999 29c-8 8 -12 17.667 -12 29c0 14.667 6.66699 26.334 20 35.001c4 26.667 7.16699 53.334 9.5 80.001s4.16602 53.667 5.49902 81c2 32 3.66699 63.667 5 95s1.66602 63 0.999023 95c0 20 -0.666992 40.667 -2 62
s-2 42.5 -2 63.5s1.16699 41.833 3.5 62.5s7.16602 40.667 14.499 60c-3.33301 10.667 -2.66602 21.667 2.00098 33s13.667 18.333 27 21c8 8.66699 17.5 12.667 28.5 12s20.167 -4.33398 27.5 -11.001c32.667 -2.66699 64.5 -8.83398 95.5 -18.501s59.5 -25.167 85.5 -46.5
c32 -25.333 57.667 -55.833 77 -91.5s35 -72.5 47 -110.5l16.5 -51c5.66699 -17.333 10.667 -35 15 -53s7.5 -36 9.5 -54s2.33301 -36 1 -54zM356 121.999c8.66699 5.33301 16.498 10.6729 23.498 16.0059s14.167 11.666 21.5 18.999l14 16c3.33301 4 7.33301 10 12 18
c11.333 23.333 16.666 49.666 15.999 78.999c0 16.667 -1.33301 32.167 -4 46.5s-6.66699 30.5 -12 48.5l-16.5 55.5c-5.66699 18.333 -12.167 36.166 -19.5 53.499c-5.33301 14.667 -12.5 30.5 -21.5 47.5s-18.167 31.167 -27.5 42.5
c-23.333 28 -49.666 48.167 -78.999 60.5s-61.333 19.5 -96 21.5c-7.33301 -18.667 -11.833 -38.167 -13.5 -58.5s-2.16699 -40.833 -1.5 -61.5s1.83398 -41.334 3.50098 -62.001s2.16699 -40.667 1.5 -60c-2.66699 -56.667 -5.16699 -112.667 -7.5 -168
s-7.16602 -111 -14.499 -167c12 -1.33301 24.167 -2.33301 36.5 -3s24.5 -0.333984 36.5 0.999023c25.333 2.66699 50.833 9.16699 76.5 19.5s49.5 22.166 71.5 35.499z" />
    <glyph glyph-name="E" unicode="E" horiz-adv-x="520" 
d="M46 602c-13.333 4 -21.332 12.667 -23.999 26c-3.33301 9.33301 -2.33301 19.5 3 30.5s13.666 17.167 24.999 18.5c64.667 10 129.5 15.5 194.5 16.5s130.167 1.83301 195.5 2.5c12.667 0 22.334 -4 29.001 -12s10 -17 10 -27s-3.33301 -19.167 -10 -27.5
s-16.334 -12.5 -29.001 -12.5c-52 -1.33301 -104.333 -2 -157 -2s-105.334 -2.66699 -158.001 -8c1.33301 -26.667 3 -53.167 5 -79.5l6 -79.5c50.667 2.66699 101.167 6 151.5 10s100.833 4.66699 151.5 2c12.667 -0.666992 22.334 -5.33398 29.001 -14.001s10 -18 10 -28
s-3.33301 -19 -10 -27s-16.334 -11.667 -29.001 -11c-50 2.66699 -99.5 2 -148.5 -2s-98.5 -7.33301 -148.5 -10l11.5 -143.5c3.66699 -47.667 6.16699 -95.5 7.5 -143.5l71 15.5c24 5 48 9 72 12s48 4.5 72 4.5s48 -2 72 -6c10.667 -2 18.667 -8.33301 24 -19
s6.66602 -20.667 3.99902 -30c-3.33301 -11.333 -9.66602 -19.333 -18.999 -24s-19.666 -6 -30.999 -4c-21.333 4 -43 5.33301 -65 4s-43.667 -3.66602 -65 -6.99902c-24.667 -4 -49.167 -8.66699 -73.5 -14s-48.5 -11 -72.5 -17c-11.333 -2.66699 -22 -0.666992 -32 6
c-9.33301 1.33301 -17.666 5 -24.999 11s-11 15 -11 27c-1.33301 56.667 -3.83301 112.667 -7.5 168s-7.83398 111 -12.501 167c-7.33301 7.33301 -11.5 16.5 -12.5 27.5s1.83301 20.5 8.5 28.5c-5.33301 56.667 -9.33301 113.667 -12 171z" />
    <glyph glyph-name="F" unicode="F" horiz-adv-x="467" 
d="M81 -32c-10 0 -19.5 4.00195 -28.5 12.002s-12.833 17.333 -11.5 28c10.667 106.667 16 213.334 16 320.001s-0.333008 213.667 -1 321c-5.33301 8 -8.16602 17.167 -8.49902 27.5s3.16699 19.166 10.5 26.499c4 12 12 19.667 24 23s23.333 2.33301 34 -3
c31.333 6.66699 63 10.5 95 11.5s64 1 96 0l96.5 -3c32.333 -1 64.5 -0.5 96.5 1.5c12.667 0.666992 22.167 -2.83301 28.5 -10.5s9.5 -16.5 9.5 -26.5s-3.16699 -19.5 -9.5 -28.5s-15.833 -13.833 -28.5 -14.5c-30 -2 -60.333 -2.33301 -91 -1s-61.334 2.5 -92.001 3.5
s-61 1.16699 -91 0.5s-60 -4 -90 -10c0 -46 0.166992 -91.667 0.5 -137s0.5 -91 0.5 -137c20.667 0 41.667 0.333008 63 1s42.5 1 63.5 1s42 -0.833008 63 -2.5s41.833 -4.83398 62.5 -9.50098c12.667 -3.33301 21 -9.66602 25 -18.999s4.66699 -18.833 2 -28.5
s-8.16699 -17.834 -16.5 -24.501s-18.833 -8.33398 -31.5 -5.00098c-38 8.66699 -76.5 12 -115.5 10s-77.833 -3 -116.5 -3c-1.33301 -47.333 -3 -94.5 -5 -141.5s-5.33301 -94.5 -10 -142.5c-1.33301 -10.667 -5.5 -20 -12.5 -28s-16.167 -12 -27.5 -12z" />
    <glyph glyph-name="G" unicode="G" horiz-adv-x="600" 
d="M156 -17c-20 12.667 -38 28.334 -54 47.001s-30 39 -42 61s-22 44.667 -30 68s-14 46.666 -18 69.999c-4 22 -6.33301 44.5 -7 67.5s2.33301 45.5 9 67.5c5.33301 17.333 12.5 34 21.5 50s18.833 31.333 29.5 46c26 36 55 70 87 102s67 60 105 84
c17.333 11.333 35.5 21.333 54.5 30s38.333 15 58 19s39.5 5.16699 59.5 3.5s40 -7.16699 60 -16.5c10 -4.66699 16.333 -12.667 19 -24s1.33398 -21.333 -3.99902 -30c-6 -10 -14.167 -16 -24.5 -18s-20.5 -0.666992 -30.5 4c-11.333 5.33301 -25.666 7.33301 -42.999 6
c-6.66699 0 -14.834 -1.16699 -24.501 -3.5s-19.167 -5.5 -28.5 -9.5c-19.333 -7.33301 -38.5 -17.5 -57.5 -30.5s-36.833 -26.5 -53.5 -40.5c-29.333 -25.333 -56.833 -52.833 -82.5 -82.5s-47.167 -61.834 -64.5 -96.501c-2 -4.66699 -4 -11.667 -6 -21
s-3.33301 -17.333 -4 -24c-1.33301 -19.333 -0.333008 -38.333 3 -57c4 -22 9.5 -43.833 16.5 -65.5s16.167 -42.167 27.5 -61.5c10.667 -18 23.167 -35.833 37.5 -53.5s32.166 -29.167 53.499 -34.5c22.667 -6 46 -4.66699 70 4c5.33301 2 10.333 4.16699 15 6.5l15 7.5
l6 4l6 4c15.333 13.333 29 27.333 41 42s23.333 30 34 46l16.5 28.5c5.66699 9.66699 10.167 19.167 13.5 28.5c3.33301 8.66699 6 16.5 8 23.5s3 14.167 3 21.5c-6.66699 2.66699 -13.334 4 -20.001 4h-21c-18.667 -0.666992 -37.167 -2 -55.5 -4s-37.166 -3 -56.499 -3
c-12.667 0 -22.167 4.16699 -28.5 12.5s-9.5 17.5 -9.5 27.5s3.16699 19 9.5 27s15.833 12 28.5 12c18 0 36 1 54 3s36 3.33301 54 4s35.667 0 53 -2s34.666 -6.66699 51.999 -14c17.333 -6.66699 32 -18.667 44 -36c7.33301 -11.333 10.5 -24 9.5 -38
s-1.5 -27.667 -1.5 -41c-1.33301 -28.667 -2.16602 -57.167 -2.49902 -85.5s-0.833008 -56.5 -1.5 -84.5c0 -13.333 -4.33301 -23.166 -13 -29.499s-18 -9.5 -28 -9.5s-19 3.16699 -27 9.5s-12 16.166 -12 29.499c0.666992 13.333 1 26.666 1 39.999
s0.333008 26.666 1 39.999c-19.333 -30.667 -41 -59 -65 -85c-16 -17.333 -34.667 -32.166 -56 -44.499s-43.5 -21.166 -66.5 -26.499s-46.5 -6.66602 -70.5 -3.99902s-46.333 11 -67 25z" />
    <glyph glyph-name="H" unicode="H" horiz-adv-x="542" 
d="M56 341c0.666992 56.667 0.166016 112.835 -1.50098 168.502s-9.16699 111.167 -22.5 166.5c-3.33301 12.667 -1.66602 23.167 5.00098 31.5s14.834 13.833 24.501 16.5s19.167 2 28.5 -2s15.666 -12.333 18.999 -25c14 -56.667 21.667 -113.834 23 -171.501
s1.66602 -115.834 0.999023 -174.501c20.667 -2 41.334 -4.16699 62.001 -6.5s41.334 -4 62.001 -5s41.167 -1 61.5 0s40.5 4.16699 60.5 9.5c5.33301 2 11 2.33301 17 1c2 30 4.66699 59.5 8 88.5s5.33301 58.5 6 88.5c1.33301 32 0.666016 63.667 -2.00098 95
s-5.66699 63 -9 95c-1.33301 10.667 2.33398 20 11.001 28s18.334 12 29.001 12c11.333 0 20.333 -4 27 -12s10.667 -17.333 12 -28l9.5 -95c3 -31.333 3.83301 -63 2.5 -95s-3.83301 -63.167 -7.5 -93.5s-6.16699 -61.5 -7.5 -93.5
c-3.33301 -52 -5.66602 -104.167 -6.99902 -156.5s-0.333008 -104.5 3 -156.5c0.666992 -13.333 -3 -23.166 -11 -29.499s-17 -9.5 -27 -9.5s-19.333 3.16699 -28 9.5s-13.334 16.166 -14.001 29.499c-2.66699 40 -3.83398 80.333 -3.50098 121s1.5 81.334 3.5 122.001
c-21.333 -5.33301 -42.666 -8.5 -63.999 -9.5s-42.666 -1 -63.999 0s-42.833 2.66699 -64.5 5s-43.167 4.5 -64.5 6.5c0.666992 -37.333 2.5 -74.333 5.5 -111s9.16699 -73.334 18.5 -110.001c3.33301 -12.667 1.83301 -23.167 -4.5 -31.5s-14.333 -13.833 -24 -16.5
s-19.334 -2 -29.001 2s-15.834 12.333 -18.501 25c-11.333 42.667 -18.333 85.5 -21 128.5s-4.33398 86.5 -5.00098 130.5c-5.33301 7.33301 -8 16 -8 26s2.66699 18.667 8 26z" />
    <glyph glyph-name="I" unicode="I" horiz-adv-x="455" 
d="M18 0c-12 3.33301 -20.0029 9.99512 -24.0029 19.9951s-4.66699 19.667 -2 29s8.16699 17.166 16.5 23.499s18.5 7.83301 30.5 4.5c26.667 -8 53.334 -13 80.001 -15s54 -2.33301 82 -1c-11.333 47.333 -17 94.833 -17 142.5s1.83301 95.334 5.5 143.001l11 143.5
c3.66699 48 3.83398 96 0.500977 144c-25.333 0.666992 -50.833 1.83398 -76.5 3.50098s-51.167 4.16699 -76.5 7.5c-11.333 1.33301 -20.833 5.33301 -28.5 12s-11.5 15.667 -11.5 27c0 10 3.83301 19.5 11.5 28.5s17.167 12.833 28.5 11.5
c30.667 -3.33301 61.5 -6.16602 92.5 -8.49902s61.833 -3.16602 92.5 -2.49902s61.167 3.33398 91.5 8.00098s60.5 12.334 90.5 23.001c10 3.33301 19.833 2 29.5 -4s16.167 -14 19.5 -24c3.33301 -11.333 2.16602 -21.5 -3.50098 -30.5s-13.834 -15.167 -24.501 -18.5
c-50 -17.333 -102 -27.666 -156 -30.999c4 -47.333 4 -95 0 -143l-12 -143c-4 -47.333 -5.83301 -94.666 -5.5 -141.999s6.5 -94.333 18.5 -141l63 6c20.667 2 41.334 3.66699 62.001 5c12.667 0.666992 22.167 -2.83301 28.5 -10.5s9.5 -16.5 9.5 -26.5
s-3.16699 -19.333 -9.5 -28s-15.833 -13.334 -28.5 -14.001c-32.667 -2 -65.167 -4.83301 -97.5 -8.5s-64.666 -6.33398 -96.999 -8.00098s-64.666 -1.5 -96.999 0.5s-64.5 7.66699 -96.5 17z" />
    <glyph glyph-name="J" unicode="J" horiz-adv-x="471" 
d="M176 -37c-21.333 6.66699 -41.3301 16.1621 -59.9971 28.4951s-36.167 26.166 -52.5 41.499s-31.5 31.833 -45.5 49.5s-26.667 35.834 -38 54.501c-6.66699 10.667 -8 20.834 -4 30.501s10.333 17 19 22s18.167 6.83301 28.5 5.5s18.833 -7.33301 25.5 -18
c8.66699 -14 18.5 -28.333 29.5 -43s23.333 -28.667 37 -42s28.167 -24.833 43.5 -34.5s31.333 -16.5 48 -20.5c7.33301 -1.33301 14.666 -2 21.999 -2s15 1.66699 23 5c6.66699 2 12 5 16 9c12 15.333 19.833 29.666 23.5 42.999s6.16699 26.333 7.5 39
c4 36.667 5 73.334 3 110.001s-5 73.334 -9 110.001c-4.66699 41.333 -7.66699 82.666 -9 123.999s-6 82.333 -14 123c-32 -1.33301 -63.333 -1.5 -94 -0.5s-62 4.16699 -94 9.5c-10.667 2 -18.667 8.33301 -24 19s-6.66602 20.667 -3.99902 30
c3.33301 11.333 9.66602 19.333 18.999 24s19.666 6 30.999 4c35.333 -6 70.666 -8.83301 105.999 -8.5s70.833 1.16602 106.5 2.49902s71.167 2 106.5 2s70.666 -3 105.999 -9c11.333 -2 19.666 -8.33301 24.999 -19s6.33301 -20.667 3 -30
c-3.33301 -11.333 -9.5 -19.333 -18.5 -24s-19.167 -6 -30.5 -4c-26 4.66699 -52.167 7.33398 -78.5 8.00098s-52.833 0.333984 -79.5 -0.999023c5.33301 -30 8.83301 -59.833 10.5 -89.5s3.5 -59.5 5.5 -89.5c1.33301 -17.333 2.83301 -34.166 4.5 -50.499
s3.5 -33.166 5.5 -50.499c3.33301 -40 5.83301 -81 7.5 -123s-3.16602 -82.667 -14.499 -122c-4.66699 -18 -11.667 -35.333 -21 -52s-21.666 -30.667 -36.999 -42c-19.333 -13.333 -41 -21.666 -65 -24.999s-47.333 -1.33301 -70 6z" />
    <glyph glyph-name="K" unicode="K" horiz-adv-x="490" 
d="M54 340c-2.66699 56 -7.00293 111.495 -13.0029 166.495s-12.667 110.167 -20 165.5c-1.33301 11.333 0.166992 21.5 4.5 30.5s12.166 15.167 23.499 18.5c9.33301 2.66699 19.5 1.5 30.5 -3.5s17.167 -13.167 18.5 -24.5c7.33301 -54 14 -107.667 20 -161
s10.667 -107.333 14 -162c6 2 11.333 2.66699 16 2c28 10 55.333 21.833 82 35.5s51.334 29.834 74.001 48.501c16.667 14 31.167 29 43.5 45s23.5 33.667 33.5 53c9.33301 19.333 19.166 38.5 29.499 57.5s22.833 36.5 37.5 52.5c8.66699 9.33301 18.167 13.5 28.5 12.5
s19 -5 26 -12s11.333 -15.833 13 -26.5s-1.83301 -20.667 -10.5 -30c-15.333 -17.333 -27.666 -36.333 -36.999 -57s-19.666 -40.667 -30.999 -60c-22 -37.333 -50.667 -70.333 -86 -99c-18 -14 -36.667 -26.833 -56 -38.5s-39.333 -22.167 -60 -31.5
c14 -8 27.5 -16.833 40.5 -26.5s24.833 -21.167 35.5 -34.5c12 -15.333 23.333 -31.166 34 -47.499s22.667 -32.166 36 -47.499c12.667 -13.333 25.667 -26.166 39 -38.499l40 -37.5c9.33301 -8.66699 13.333 -18.167 12 -28.5s-5.5 -19 -12.5 -26
s-15.833 -11.333 -26.5 -13s-20.667 1.83301 -30 10.5l-40 38c-13.333 12.667 -26 25.667 -38 39c-13.333 14.667 -25.333 29.834 -36 45.501l-33 46.5c-14.667 20 -32.334 35.833 -53.001 47.5l-62 36.5c-4 -18 -6 -35 -6 -51s-0.333008 -32 -1 -48
c-0.666992 -28 -1.16699 -55.667 -1.5 -83s1.83398 -55 6.50098 -83c1.33301 -10.667 -0.166992 -20.667 -4.5 -30s-12.166 -15.666 -23.499 -18.999c-9.33301 -2.66699 -19.333 -1.33398 -30 3.99902s-17 13.333 -19 24c-8 48 -11.167 96.5 -9.5 145.5
s2.5 97.833 2.5 146.5c-7.33301 12.667 -7.66602 25.667 -0.999023 39v9z" />
    <glyph glyph-name="L" unicode="L" horiz-adv-x="440" 
d="M85 -8c-10.667 0 -19.166 2.83105 -25.499 8.49805s-10.5 12.334 -12.5 20.001s-1.83301 15.5 0.5 23.5s6.83301 14.667 13.5 20c5.33301 22.667 6.66602 45.5 3.99902 68.5l-8 68.5c-3.33301 28 -4.33301 55.5 -3 82.5s4 54.5 8 82.5s8.33301 55.833 13 83.5
s8.66699 55.5 12 83.5c3.33301 30 6.16602 59.667 8.49902 89s4.16602 59 5.49902 89c0 12.667 4.33301 22.334 13 29.001s18 10 28 10s19 -3.33301 27 -10s11.667 -16.334 11 -29.001c-1.33301 -31.333 -3.16602 -62.333 -5.49902 -93s-5.16602 -62 -8.49902 -94
c-3.33301 -29.333 -7.5 -58 -12.5 -86s-9.5 -56.667 -13.5 -86c-4 -28 -6 -55.5 -6 -82.5s1.66699 -54.5 5 -82.5c2 -19.333 3.83301 -38.666 5.5 -57.999s1.16699 -38.666 -1.5 -57.999c50 -1.33301 100 -3.83301 150 -7.5s100 -6.5 150 -8.5
c12.667 -0.666992 22.167 -5.33398 28.5 -14.001s9.5 -18 9.5 -28s-3.16699 -19 -9.5 -27s-15.833 -11.667 -28.5 -11c-60.667 2.66699 -120.5 6.16699 -179.5 10.5s-118.5 6.5 -178.5 6.5z" />
    <glyph glyph-name="M" unicode="M" horiz-adv-x="649" 
d="M141 20c0 -12.667 -4.16504 -22.1689 -12.498 -28.502s-17.5 -9.5 -27.5 -9.5s-19.167 3.16699 -27.5 9.5s-12.5 15.833 -12.5 28.5c0 106.667 1.33301 212.834 4 318.501s9 211.5 19 317.5c1.33301 11.333 5.5 20.333 12.5 27s14.667 10.5 23 11.5
s16.666 -0.666992 24.999 -5s14.5 -11.833 18.5 -22.5c13.333 -38 25.666 -76.167 36.999 -114.5l33.5 -115.5l34 -115.5c11.667 -38.333 24.5 -76.166 38.5 -113.499c34.667 87.333 66.167 175 94.5 263s51.166 178.333 68.499 271c2 10 6.66699 17.333 14 22
s15.5 7 24.5 7s17.167 -2.33301 24.5 -7s12 -12 14 -22c5.33301 -30 7.16602 -59.5 5.49902 -88.5s-2.5 -58.5 -2.5 -88.5c0 -32 1.83301 -63.333 5.5 -94s6.83398 -61.667 9.50098 -93c5.33301 -62.667 9.33301 -125.334 12 -188.001s5 -125.334 7 -188.001
c0 -13.333 -4 -23.166 -12 -29.499s-17 -9.5 -27 -9.5s-19.333 3.16699 -28 9.5s-13 16.166 -13 29.499c-1.33301 62.667 -3.5 125.334 -6.5 188.001s-7.16699 125.334 -12.5 188.001c-1.33301 11.333 -2.5 23 -3.5 35s-2.16699 23.667 -3.5 35
c-19.333 -60.667 -40.166 -120.334 -62.499 -179.001l-69.5 -176c-3.33301 -8 -8.16602 -14.833 -14.499 -20.5s-14.166 -8.5 -23.499 -8.5c-6.66699 0 -13.334 1.83301 -20.001 5.5s-11.667 8.5 -15 14.5c-26.667 58.667 -49.334 118.334 -68.001 179.001l-55 184
c-3.33301 -71.333 -5.5 -142.5 -6.5 -213.5s-1.5 -142.167 -1.5 -213.5z" />
    <glyph glyph-name="N" unicode="N" horiz-adv-x="511" 
d="M44 586c-1.33301 1.33301 -2.49902 2.66602 -3.49902 3.99902s-2.16699 2.66602 -3.5 3.99902c-8 8 -11.833 16.5 -11.5 25.5s3 17 8 24s11.667 12.333 20 16s16.833 3.83398 25.5 0.500977c10.667 1.33301 20.834 -1.16699 30.501 -7.5s14.5 -16.5 14.5 -30.5l96 -120
c30 -39.333 57.333 -81 82 -125c11.333 -20 21.833 -40.5 31.5 -61.5s18.834 -42.167 27.501 -63.5c0 27.333 1.16699 54.333 3.5 81s5.16602 54 8.49902 82l21.5 171.5c7 57 10.833 114.833 11.5 173.5c0 12.667 4.16699 22.167 12.5 28.5s17.5 9.5 27.5 9.5
s19.167 -3.16699 27.5 -9.5s12.5 -15.833 12.5 -28.5c-0.666992 -60 -4.83398 -119.167 -12.501 -177.5l-22.5 -175.5c-3.33301 -30 -6 -59.5 -8 -88.5s-2.66699 -58.5 -2 -88.5c0.666992 -28.667 1.5 -57 2.5 -85s0.833008 -56.333 -0.5 -85
c-0.666992 -10 -3.83398 -18.167 -9.50098 -24.5s-12.5 -10.5 -20.5 -12.5s-16 -1.66699 -24 1s-14.667 8 -20 16c-15.333 23.333 -28.333 47.833 -39 73.5s-20.667 51.167 -30 76.5c-9.33301 24.667 -19 48.5 -29 71.5s-21.333 45.833 -34 68.5
c-16.667 30 -34.5 58.667 -53.5 86s-39.167 54 -60.5 80v-80.5c0 -26.333 0.666992 -53.166 2 -80.499c1.33301 -48 4.66602 -95.5 9.99902 -142.5s11 -94.167 17 -141.5c1.33301 -11.333 -2.5 -20.833 -11.5 -28.5s-18.167 -11.5 -27.5 -11.5
c-12 0 -21.333 3.83301 -28 11.5s-10.667 17.167 -12 28.5c-6.66699 47.333 -12.667 94.5 -18 141.5s-8.66602 94.5 -9.99902 142.5c-1.33301 42 -1.83301 83.833 -1.5 125.5s0.5 83.5 0.5 125.5z" />
    <glyph glyph-name="O" unicode="O" horiz-adv-x="559" 
d="M150 49c-15.333 11.333 -29.166 24.1621 -41.499 38.4951s-23.5 29.5 -33.5 45.5c-9.33301 14 -18.333 29 -27 45s-16.334 32.333 -23.001 49s-11.834 33.667 -15.501 51s-4.83398 34.666 -3.50098 51.999c2 34 5.5 67.5 10.5 100.5s11.833 65.5 20.5 97.5
c2.66699 12 6 25.333 10 40s9.16699 28.834 15.5 42.501s13.833 26.167 22.5 37.5s19.667 20 33 26c20 8.66699 40 11.834 60 9.50098s39.5 -7.83301 58.5 -16.5s37.167 -19.167 54.5 -31.5s33.666 -24.5 48.999 -36.5c14 -11.333 27.833 -23.166 41.5 -35.499
s27.834 -24.166 42.501 -35.499l52.5 -46c17.667 -15.333 32.167 -33 43.5 -53c13.333 -22.667 21 -45.5 23 -68.5s0.333008 -45.667 -5 -68s-13.666 -44.166 -24.999 -65.499s-23.666 -42 -36.999 -62c-12 -17.333 -25.833 -35.666 -41.5 -54.999s-33 -37 -52 -53
s-39.333 -28.667 -61 -38s-44.5 -12.666 -68.5 -9.99902c-14 2 -24.333 7.33301 -31 16c-12.667 2 -25 4.66699 -37 8s-23.667 8.66602 -35 15.999zM86 336.996c-1.33301 -16.667 -0.499023 -32.002 2.50098 -46.002s8.16699 -29.667 15.5 -47
c9.33301 -19.333 19.666 -38.833 30.999 -58.5s24.666 -37.5 39.999 -53.5c13.333 -14.667 28.666 -23.667 45.999 -27c11.333 -2 22.333 -3.83301 33 -5.5s21.334 -4.16699 32.001 -7.5c4 1.33301 8 2.83301 12 4.5s8 4.16699 12 7.5
c11.333 7.33301 21.666 15.333 30.999 24s18.333 17.667 27 27c16.667 18.667 32.834 39 48.501 61s28.167 44.667 37.5 68s13 45.333 11 66s-11.667 40.667 -29 60c-16 18 -33.5 34.5 -52.5 49.5l-55.5 45.5l-45 38c-14.667 12 -30.667 23.333 -48 34
c-16 10.667 -31.667 18.667 -47 24c-2 0.666992 -3.83301 1.16699 -5.5 1.5s-3.5 0.833008 -5.5 1.5l-15 1c-5.33301 -1.33301 -8.66602 -2.66602 -9.99902 -3.99902c-4.66699 -5.33301 -7.33398 -8 -8.00098 -8c-4.66699 -8 -7.66699 -13.667 -9 -17
s-3.33301 -8.66602 -6 -15.999c-6.66699 -19.333 -12.334 -38.833 -17.001 -58.5s-8.66699 -39.167 -12 -58.5s-6.16602 -37 -8.49902 -53s-4.16602 -33.667 -5.49902 -53z" />
    <glyph glyph-name="P" unicode="P" horiz-adv-x="408" 
d="M50 579c-1.33301 10.667 -2.83496 20.998 -4.50195 30.998s-2.83398 20 -3.50098 30c-1.33301 12 -1.5 24.667 -0.5 38s3.66699 26 8 38s10.5 22.667 18.5 32s19 16 33 20c21.333 6 43 5.16699 65 -2.5s42.667 -16.167 62 -25.5c18.667 -9.33301 37 -19.333 55 -30
s36.667 -20.667 56 -30c10 -4.66699 20 -9.66699 30 -15s18.833 -11.5 26.5 -18.5s14 -15.333 19 -25s7.83301 -20.834 8.5 -33.501c0.666992 -13.333 -1.5 -26.333 -6.5 -39s-10.167 -25 -15.5 -37c-30 -66.667 -68.333 -129 -115 -187
c-17.333 -21.333 -36.833 -41.166 -58.5 -59.499s-46.167 -30.166 -73.5 -35.499c6 -38 12.833 -75.333 20.5 -112s16.5 -73.667 26.5 -111c3.33301 -12.667 1.83301 -23.167 -4.5 -31.5s-14.166 -13.833 -23.499 -16.5s-19 -2 -29 2s-16.667 12.333 -20 25
c-21.333 81.333 -37.666 162.833 -48.999 244.5s-18.666 164.834 -21.999 249.501c-0.666992 11.333 -1 22.333 -1 33s-0.333008 21.667 -1 33v13.5c0 4.33301 -0.333008 8.5 -1 12.5v7zM120.998 675.998c-0.666992 -14.667 0.00585938 -30.333 2.00586 -47
c0.666992 -7.33301 1.16699 -12 1.5 -14s0.5 -3.66699 0.5 -5l3 -18c2 -20 3 -40.333 3 -61c1.33301 -29.333 2.5 -58.5 3.5 -87.5s2.83301 -58.167 5.5 -87.5c0.666992 -8 1.16699 -16 1.5 -24s1.16602 -15.667 2.49902 -23c6.66699 2 11.334 3.83301 14.001 5.5
s5.33398 3.16699 8.00098 4.5c4 2.66699 7 5 9 7c16.667 13.333 30.667 26.666 42 39.999s22 27 32 41c22 30.667 41.667 62.334 59 95.001c3.33301 7.33301 6.66602 14.166 9.99902 20.499s6.66602 13.166 9.99902 20.499c1.33301 3.33301 2.66602 6.33301 3.99902 9
s2.66602 5.66699 3.99902 9c3.33301 8 5.66602 14.667 6.99902 20c0 4.66699 -1 8 -3 10c-9.33301 5.33301 -16.333 9 -21 11c-19.333 9.33301 -38 18.833 -56 28.5l-56 30.5c-9.33301 5.33301 -18.833 10.333 -28.5 15s-19.834 8.66699 -30.501 12
c-2 0.666992 -4.16699 1.33398 -6.5 2.00098s-4.5 1 -6.5 1c-4.66699 0.666992 -7.33398 0.833984 -8.00098 0.500977s-1.33398 -0.5 -2.00098 -0.5c-1.33301 -2 -2.16602 -4 -2.49902 -6s-0.833008 -3.66699 -1.5 -5v-4z" />
    <glyph glyph-name="Q" unicode="Q" horiz-adv-x="564" 
d="M170 38c-31.333 18 -57.502 41.0078 -78.502 69.0078s-37.167 58.667 -48.5 92s-18.333 68.166 -21 104.499s-1.66699 72.166 3 107.499c2.66699 20.667 6.16699 42 10.5 64s10.166 43.667 17.499 65s16.5 41.666 27.5 60.999s24.167 36.666 39.5 51.999
c26.667 26 57.334 42 92.001 48s69.334 2 104.001 -12c36 -14.667 69 -35.834 99 -63.501s53.333 -59.167 70 -94.5c19.333 -40 30.166 -82.167 32.499 -126.5s-2.16699 -87.833 -13.5 -130.5c-11.333 -44 -28.333 -85.333 -51 -124l22.5 -27.5l24.5 -27.5
c8.66699 -9.33301 12.167 -19.333 10.5 -30s-6 -19.5 -13 -26.5s-15.667 -11 -26 -12s-19.833 3.16699 -28.5 12.5c-12.667 13.333 -25 27.666 -37 42.999c-13.333 -16 -29 -32 -47 -48l-28.5 -24.5c-10.333 -9 -21.5 -17 -33.5 -24s-24.167 -12.333 -36.5 -16
s-24.833 -3.83398 -37.5 -0.500977c-17.333 4 -29.666 12.667 -36.999 26s-12.666 27.666 -15.999 42.999zM124.998 499.008c-12.667 -40 -20.6641 -81.167 -23.9971 -123.5s-0.333008 -83.5 9 -123.5c7.33301 -28 17.666 -53.833 30.999 -77.5s31.333 -43.167 54 -58.5
c2 0.666992 5.33301 1 10 1c8.66699 0 16 -2.16699 22 -6.5s10.667 -10.166 14 -17.499c14.667 -6 23 -16.333 25 -31l21 15c5.33301 4 10.666 8.66699 15.999 14c10 9.33301 19.5 18.666 28.5 27.999s17.167 19.333 24.5 30l-26.5 37.5l-27.5 36.5
c-7.33301 8.66699 -11.333 18.167 -12 28.5s3.33301 19.5 12 27.5c7.33301 7.33301 16.666 11.333 27.999 12s20.666 -3.33301 27.999 -12l21.5 -28.5l21.5 -28.5c10.667 23.333 19.334 47 26.001 71s10.5 48.167 11.5 72.5s-0.666992 48.166 -5 71.499
s-12.5 45.333 -24.5 66c-8 14 -17.167 27.667 -27.5 41s-22 25.333 -35 36s-26.833 19.834 -41.5 27.501s-30 12.834 -46 15.501c-11.333 2.66699 -23.833 2.66699 -37.5 0s-25.167 -8.33398 -34.5 -17.001c-16 -14 -28.833 -30.333 -38.5 -49s-17.5 -38 -23.5 -58z" />
    <glyph glyph-name="R" unicode="R" horiz-adv-x="466" 
d="M434 25c-5.33301 -9.33301 -13.499 -15.6621 -24.499 -18.9951s-21.167 -1.66602 -30.5 5.00098c-18 13.333 -35.333 27.166 -52 41.499s-34.667 27.166 -54 38.499c-17.333 10.667 -34.666 20.5 -51.999 29.5s-34 19.5 -50 31.5c-19.333 14.667 -37.333 30.667 -54 48
c-0.666992 -33.333 -0.333984 -66.5 0.999023 -99.5s3.33301 -66.167 6 -99.5c1.33301 -11.333 -2.33398 -20.833 -11.001 -28.5s-18 -11.5 -28 -11.5c-12 0 -21.333 3.83301 -28 11.5s-10.667 17.167 -12 28.5c-4 48 -6.33301 95.167 -7 141.5s0.333008 93.166 3 140.499
l-16 22.5c-5.33301 7.66699 -10.333 15.5 -15 23.5c-4 8 -5.5 15.667 -4.5 23s3.66699 13.666 8 18.999s9.66602 9.66602 15.999 12.999s13.166 4.66602 20.499 3.99902c1.33301 15.333 3 30.833 5 46.5l6 46.5c2 10.667 3.83301 21.167 5.5 31.5s3.16699 20.833 4.5 31.5
c1.33301 5.33301 2.16602 10.333 2.49902 15s1.16602 9.66699 2.49902 15c0 2.66699 0.666992 6 2 10c0.666992 8.66699 1 17.167 1 25.5s0.333008 16.833 1 25.5c0.666992 10.667 1.83398 22.167 3.50098 34.5s4.33398 24.333 8.00098 36s8.83398 22.5 15.501 32.5
s15.667 17.667 27 23c10.667 4.66699 21.5 7.33398 32.5 8.00098s22 0 33 -2s21.833 -4.83301 32.5 -8.5s21 -7.5 31 -11.5c23.333 -8.66699 46.5 -18.5 69.5 -29.5s43.5 -25.167 61.5 -42.5c17.333 -17.333 32.333 -37.833 45 -61.5s18.334 -48.167 17.001 -73.5
c-1.33301 -15.333 -4.5 -28.833 -9.5 -40.5s-11.833 -23.5 -20.5 -35.5c-21.333 -30 -44.333 -58.667 -69 -86s-51 -52.333 -79 -75c-13.333 -10.667 -27.833 -21.334 -43.5 -32.001s-32.167 -19.667 -49.5 -27l18 -16c6 -5.33301 12.333 -10 19 -14
c17.333 -11.333 34.833 -21.833 52.5 -31.5s34.834 -20.167 51.501 -31.5c16 -11.333 31.667 -23.333 47 -36s30.666 -24.667 45.999 -36c9.33301 -6 15.5 -14 18.5 -24s1.83301 -20 -3.5 -30zM164.001 322.004c16 8.66699 30.502 17.834 43.502 27.501
s25.833 20.167 38.5 31.5c13.333 12 26.333 24.667 39 38l37 40c4.66699 6 9 11.333 13 16s7.66699 9.16699 11 13.5l10.5 14c3.66699 5 7.5 10.833 11.5 17.5l4 6l4 6c0.666992 18.667 -3.33301 36 -12 52c-11.333 19.333 -25.5 35 -42.5 47s-35.833 22 -56.5 30
c-12 5.33301 -24 10 -36 14s-24.667 7.66699 -38 11c-3.33301 1.33301 -8.33301 2.66602 -15 3.99902c-4 -1.33301 -6.66699 -3.33301 -8 -6c-2.66699 -8.66699 -4 -14.667 -4 -18c-0.666992 -2 -1.66699 -5.66699 -3 -11c-0.666992 -6.66699 -1.16699 -11.834 -1.5 -15.501
s-0.5 -7.5 -0.5 -11.5c-2 -46 -6.83301 -91.333 -14.5 -136s-13.834 -90 -18.501 -136c-1.33301 -7.33301 -2.16602 -14.833 -2.49902 -22.5s-0.833008 -15.167 -1.5 -22.5c6 -0.666992 9.33301 -0.666992 10 0c7.33301 1.33301 13.166 2.83301 17.499 4.5
s9.16602 3.83398 14.499 6.50098z" />
    <glyph glyph-name="S" unicode="S" horiz-adv-x="421" 
d="M239 274c-16 16.667 -33 32.1641 -51 46.4971l-53.5 43c-17.667 14.333 -34.834 29.333 -51.501 45s-32 32.834 -46 51.501c-14.667 19.333 -26.167 40.5 -34.5 63.5s-9.83301 46.833 -4.5 71.5c5.33301 26.667 18.333 50 39 70s43 35.667 67 47
c26 11.333 52.333 19.166 79 23.499s53.667 7 81 8s54.833 1 82.5 0s55.167 -0.833008 82.5 0.5c12.667 0.666992 22.167 -3 28.5 -11s9.5 -17 9.5 -27s-3.16699 -19.167 -9.5 -27.5s-15.833 -12.833 -28.5 -13.5c-19.333 -1.33301 -38.5 -1.83301 -57.5 -1.5
s-38.167 0.833008 -57.5 1.5c-26 0.666992 -52.167 0.333984 -78.5 -0.999023s-52.166 -6.66602 -77.499 -15.999c-8.66699 -3.33301 -18 -7.5 -28 -12.5s-19.167 -11.167 -27.5 -18.5s-15.166 -15.333 -20.499 -24s-7.66602 -18 -6.99902 -28
c0.666992 -9.33301 3 -18.5 7 -27.5s9.16699 -17.833 15.5 -26.5s13.166 -17 20.499 -25l21 -22c15.333 -15.333 31.333 -29.333 48 -42l50 -39c17.333 -14 34.833 -29.5 52.5 -46.5s33 -35.333 46 -55s22.667 -40.5 29 -62.5s7.16602 -45.333 2.49902 -70
c-4.66699 -23.333 -13.5 -43.166 -26.5 -59.499s-28.333 -31 -46 -44s-36.334 -24.667 -56.001 -35s-38.5 -20.833 -56.5 -31.5c-11.333 -6.66699 -21.833 -8 -31.5 -4s-17 10.333 -22 19s-7 18.167 -6 28.5s7.16699 18.833 18.5 25.5c16 9.33301 32 18 48 26
s31.667 17 47 27c14.667 9.33301 27.5 20.5 38.5 33.5s16.5 28.167 16.5 45.5c-0.666992 17.333 -6.16699 34 -16.5 50s-22.166 30.667 -35.499 44z" />
    <glyph glyph-name="T" unicode="T" horiz-adv-x="392" 
d="M14 618c-10.667 -1.33301 -20 2.33203 -28 10.999s-12 18.334 -12 29.001c0 11.333 4 20.5 12 27.5s17.333 11.167 28 12.5c33.333 2.66699 66.333 4 99 4s65.667 -1 99 -3c9.33301 3.33301 19.333 2.66602 30 -2.00098c62 -4.66699 124.667 -12.667 188 -24
c10.667 -2 18.667 -8.33301 24 -19s6.33301 -20.667 3 -30c-3.33301 -11.333 -9.5 -19.166 -18.5 -23.499s-19.167 -5.83301 -30.5 -4.5c-25.333 4.66699 -50.333 8.66699 -75 12s-49.667 6 -75 8c-9.33301 -46.667 -14.833 -93.334 -16.5 -140.001s-0.166992 -94 4.5 -142
c4.66699 -49.333 11.334 -98.166 20.001 -146.499l27 -145.5c2 -11.333 0.833008 -21.5 -3.5 -30.5s-12.166 -15.167 -23.499 -18.5c-10 -3.33301 -20.167 -2.33301 -30.5 3s-16.5 13.333 -18.5 24l-30.5 160.5c-9.66699 53 -16.834 106.5 -21.501 160.5
c-4 47.333 -5 94.333 -3 141s7.33301 93 16 139c-54.667 2 -109.334 1 -164.001 -3z" />
    <glyph glyph-name="U" unicode="U" horiz-adv-x="495" 
d="M40 272c-7.33301 66.667 -12.332 132.837 -14.999 198.504s-7.66699 131.5 -15 197.5c-1.33301 11.333 2.5 20.833 11.5 28.5s18.5 11.5 28.5 11.5c12 0 21.333 -3.83301 28 -11.5s10.667 -17.167 12 -28.5c4.66699 -40 8.16699 -79.5 10.5 -118.5s4.5 -78.5 6.5 -118.5
c2.66699 -58 7.66699 -116.667 15 -176c0.666992 -7.33301 1.5 -15.666 2.5 -24.999s1.83301 -16.333 2.5 -21c1.33301 -9.33301 2.83301 -18.333 4.5 -27s3.5 -17.334 5.5 -26.001c4 -16.667 8.5 -31.834 13.5 -45.501s12.5 -25.167 22.5 -34.5l9 -5
c5.33301 -1.33301 10 -2 14 -2c4.66699 0.666992 11.5 2.5 20.5 5.5s16.833 6.83301 23.5 11.5c18 12 33.333 27 46 45s23.667 36.667 33 56c10.667 21.333 20 43.333 28 66s14.667 45.667 20 69c13.333 58.667 19.166 117.667 17.499 177s-6.16699 118.333 -13.5 177
c-1.33301 10.667 2.5 20 11.5 28s18.167 12 27.5 12c12 0 21.333 -4 28 -12s10.667 -17.333 12 -28c8.66699 -64 13.334 -128.833 14.001 -194.5s-7.33301 -129.834 -24 -192.501c-6 -22.667 -13 -46 -21 -70s-17.5 -47.167 -28.5 -69.5s-23.833 -43.666 -38.5 -63.999
s-31.334 -37.833 -50.001 -52.5s-39.334 -26.334 -62.001 -35.001s-45.667 -10.667 -69 -6c-18 3.33301 -34.167 11.166 -48.5 23.499s-25.833 26.166 -34.5 41.499c-17.333 33.333 -28.666 68.5 -33.999 105.5s-10 73.5 -14 109.5z" />
    <glyph glyph-name="V" unicode="V" horiz-adv-x="470" 
d="M180 -3c-24 55.333 -44.335 112.166 -61.002 170.499s-31.167 117 -43.5 176s-23.833 118.333 -34.5 178s-22.334 118.834 -35.001 177.501c-2.66699 12.667 -0.666992 23.334 6 32.001s14.834 14.334 24.501 17.001s19.167 2 28.5 -2s15.333 -12.333 18 -25
c12.667 -58.667 24.334 -117.167 35.001 -175.5s22.334 -116.833 35.001 -175.5c9.33301 -44.667 19.5 -89.167 30.5 -133.5s24.167 -88.5 39.5 -132.5c5.33301 9.33301 10.333 18.833 15 28.5l14 29.5c26 56.667 49 114.667 69 174s37.833 120 53.5 182
s24.5 124.333 26.5 187c0 12.667 4.33301 22.167 13 28.5s18 9.5 28 9.5s19 -3.16699 27 -9.5s11.667 -15.833 11 -28.5c-1.33301 -67.333 -10.333 -134.166 -27 -200.499s-35.667 -131.5 -57 -195.5c-11.333 -32.667 -23.333 -64.834 -36 -96.501
s-26.334 -63.5 -41.001 -95.5c-11.333 -22.667 -23 -44.834 -35 -66.501s-25.667 -42.167 -41 -61.5c-4 -4.66699 -9 -8 -15 -10s-12.167 -2.5 -18.5 -1.5s-12.166 3.16699 -17.499 6.5s-9.33301 7.66602 -12 12.999z" />
    <glyph glyph-name="W" unicode="W" horiz-adv-x="848" 
d="M208 28c-6 -8.66699 -12.999 -14.3291 -20.999 -16.9961s-15.833 -2.83398 -23.5 -0.500977s-14.5 6.66602 -20.5 12.999s-9.33301 14.5 -10 24.5c-1.33301 9.33301 -2 15.333 -2 18c-1.33301 5.33301 -2.33301 10.666 -3 15.999s-1.66699 10.666 -3 15.999
c-2.66699 13.333 -5.16699 26.666 -7.5 39.999s-5.16602 26.666 -8.49902 39.999c-7.33301 34 -15 67.5 -23 100.5s-15.667 66.167 -23 99.5l-22 90.5l-22 90.5c-2.66699 10 -5 20 -7 30s-4.33301 20 -7 30c-1.33301 5.33301 -2.66602 11.166 -3.99902 17.499
s-1.66602 12.166 -0.999023 17.499c1.33301 11.333 5.5 20.833 12.5 28.5s16.167 11.5 27.5 11.5c10 0 19.5 -3.83301 28.5 -11.5s12.833 -17.167 11.5 -28.5c0.666992 -4 1.16699 -7.33301 1.5 -10s1.16602 -5.66699 2.49902 -9c2 -10.667 4.16699 -21 6.5 -31
s4.5 -20 6.5 -30l22.5 -92.5l22.5 -91.5l22.5 -99l22.5 -99c1.33301 -6.66699 2.66602 -13 3.99902 -19l4 -18c22 34 43.167 68.5 63.5 103.5s39.5 70.833 57.5 107.5c22 44.667 41.667 91 59 139s27.666 97 30.999 147c0.666992 10.667 4.66699 19.334 12 26.001
s15.333 10.667 24 12s17.167 -0.166992 25.5 -4.5s13.833 -12.166 16.5 -23.499c11.333 -42.667 21.5 -86 30.5 -130l28 -131c9.66699 -43.333 20.667 -86.333 33 -129s27.833 -84.334 46.5 -125.001c19.333 25.333 36.333 51.833 51 79.5s26.667 57.167 36 88.5
c16 52 26.833 104.833 32.5 158.5l16.5 161.5c1.33301 10.667 5.5 20 12.5 28s16.167 12 27.5 12c10 0 19.5 -3.83301 28.5 -11.5s12.833 -17.167 11.5 -28.5l-18 -176.5c-6 -58.333 -18 -115.833 -36 -172.5c-15.333 -46 -34.833 -88.333 -58.5 -127s-51.5 -76 -83.5 -112
c-8.66699 -9.33301 -19.834 -13.166 -33.501 -11.499s-23.5 8.16699 -29.5 19.5c-18 32 -33.667 65 -47 99s-25 68.333 -35 103s-19 69.834 -27 105.501l-23 106.5c-17.333 -46 -37 -91.333 -59 -136c-26 -53.333 -54.333 -105.166 -85 -155.499z" />
    <glyph glyph-name="X" unicode="X" horiz-adv-x="499" 
d="M216 326l-94.4961 172.496l-95.5 171.5c-6 10.667 -7 20.834 -3 30.501s10.167 17 18.5 22s17.666 6.83301 27.999 5.5s18.833 -7.33301 25.5 -18l85.5 -153.5l83.5 -153.5c34 54.667 65.167 110.334 93.5 167.001s52.833 115.334 73.5 176.001c4 12 11 20 21 24
s19.833 4.66699 29.5 2s17.334 -8.16699 23.001 -16.5s6.5 -18.5 2.5 -30.5c-23.333 -70.667 -51.5 -138.5 -84.5 -203.5s-69.5 -128.833 -109.5 -191.5c22 -49.333 45.5 -95.666 70.5 -138.999s51.5 -86.666 79.5 -129.999c6.66699 -10.667 8.16699 -20.834 4.5 -30.501
s-9.83398 -17 -18.501 -22s-18.334 -6.83301 -29.001 -5.5s-19.334 7.33301 -26.001 18l-69.5 112.5l-65.5 114.5l-54 -75l-23 -30.5c-8 -11 -15.5 -22.167 -22.5 -33.5s-12.667 -23 -17 -35s-6.5 -24 -6.5 -36c0 -13.333 -4 -23.166 -12 -29.499s-17 -9.5 -27 -9.5
s-19.333 3.16699 -28 9.5s-13 16.166 -13 29.499c0 30 7.16699 58.5 21.5 85.5s30.166 52.167 47.499 75.5l46 63.5z" />
    <glyph glyph-name="Y" unicode="Y" horiz-adv-x="398" 
d="M-52 670c-11.333 6 -17.666 14.1689 -18.999 24.502s0.5 19.833 5.5 28.5s12.333 15 22 19s20.167 3 31.5 -3c35.333 -18.667 64.666 -42.167 87.999 -70.5s42.666 -60.5 57.999 -96.5l29.5 -69c9.66699 -22.667 22.167 -43.667 37.5 -63c24.667 21.333 47 45 67 71
s38.667 53.167 56 81.5s33.833 57.166 49.5 86.499l47.5 85c6.66699 10.667 15.167 16.667 25.5 18s19.833 -0.5 28.5 -5.5s15 -12.333 19 -22s2.66699 -20.167 -4 -31.5l-51.5 -89.5c-17 -30.333 -34.667 -60.166 -53 -89.499s-38 -57.5 -59 -84.5
s-44.167 -52.167 -69.5 -75.5c-2.66699 -60.667 -4.5 -120.834 -5.5 -180.501s0.833008 -119.834 5.5 -180.501c0.666992 -10.667 -3.33301 -19.834 -12 -27.501s-18 -11.5 -28 -11.5c-11.333 0 -20.666 3.83301 -27.999 11.5s-11.333 16.834 -12 27.501
c-4 54.667 -5.83301 109 -5.5 163s1.5 108.333 3.5 163c-6 4 -11 9 -15 15c-22.667 24.667 -40.667 50.667 -54 78s-26.333 56 -39 86s-28.167 57.167 -46.5 81.5s-42.5 44.5 -72.5 60.5z" />
    <glyph glyph-name="Z" unicode="Z" horiz-adv-x="533" 
d="M473 190c10 3.33301 19.8311 2 29.498 -4s16.167 -14 19.5 -24c3.33301 -11.333 2 -21.5 -4 -30.5s-14 -15.167 -24 -18.5c-36.667 -13.333 -72.667 -27.5 -108 -42.5s-72 -27.5 -110 -37.5c-18.667 -5.33301 -37.667 -9.5 -57 -12.5s-38.5 -4.5 -57.5 -4.5
s-37.833 2.33301 -56.5 7s-36.667 12 -54 22c-10 5.33301 -16.167 13.333 -18.5 24s-1.16602 20.667 3.50098 30c26 54 55.833 104.833 89.5 152.5s69.834 94.167 108.501 139.5l93 109c30.667 36 60 74 88 114c-26 11.333 -53.333 19.833 -82 25.5s-57.5 9 -86.5 10
s-58 0.166992 -87 -2.5s-56.833 -6.66699 -83.5 -12c-10.667 -2 -20.667 -0.666992 -30 4s-15.666 12.667 -18.999 24c-2.66699 10 -1.5 20.167 3.5 30.5s13.167 16.5 24.5 18.5c35.333 6.66699 72 11.5 110 14.5s76 3 114 0s75.167 -9.66699 111.5 -20
s70.5 -24.833 102.5 -43.5c9.33301 -5.33301 15.5 -13.333 18.5 -24s1.83301 -20.667 -3.5 -30c-31.333 -48 -65 -93.333 -101 -136l-109 -129c-32.667 -38.667 -63.5 -78 -92.5 -118s-55.5 -82 -79.5 -126c24 -6 48.667 -6.83301 74 -2.5s49.666 10.166 72.999 17.499
c34 10 67.333 21.833 100 35.5s66 26.834 100 39.501z" />
    <glyph glyph-name="bracketleft" unicode="[" horiz-adv-x="310" 
d="M271 -51c-30 -4 -59.833 -5.50098 -89.5 -4.50098s-59.5 1.83301 -89.5 2.5c-9.33301 0.666992 -18.5 4.66699 -27.5 12s-12.833 16.666 -11.5 27.999c6 56 8.66699 111.667 8 167s-1.66699 111.333 -3 168c-1.33301 46 -2 91.667 -2 137s-1 91 -3 137
c-1.33301 18.667 -2 37.334 -2 56.001s0.666992 37.667 2 57c1.33301 14 3.16602 29.667 5.49902 47s8.16602 32 17.499 44c12 16 26.333 26.667 43 32s34.334 8 53.001 8s37.334 -1.5 56.001 -4.5s36.667 -4.5 54 -4.5c12.667 0 22.167 -4.33301 28.5 -13s9.5 -18 9.5 -28
s-3.16699 -19 -9.5 -27s-15.833 -12 -28.5 -12c-17.333 0.666992 -34.166 2.16699 -50.499 4.5s-32.833 3.83301 -49.5 4.5h-21c-6 0 -12.333 -1.33301 -19 -4c-6 -18 -9.5 -34.667 -10.5 -50s-1.5 -31 -1.5 -47s0.5 -32 1.5 -48s1.83301 -31.333 2.5 -46
c1.33301 -20 1.66602 -40 0.999023 -60s-0.666992 -40 0 -60c0 -25.333 0.333008 -51 1 -77s1.66699 -51.667 3 -77c1.33301 -44.667 2 -89 2 -133s-1.66699 -88 -5 -132c22.667 -1.33301 45.167 -2 67.5 -2s44.833 1.66699 67.5 5c10.667 1.33301 20 -2.66699 28 -12
s12 -18.666 12 -27.999c0 -12 -4 -21.333 -12 -28s-17.333 -10.667 -28 -12z" />
    <glyph glyph-name="backslash" unicode="\" horiz-adv-x="348" 
d="M69 739c21.333 -62 45.5 -123 72.5 -183l80.5 -180c26.667 -60 52 -120.5 76 -181.5s43.667 -123.5 59 -187.5c2.66699 -12.667 0.833984 -23.167 -5.49902 -31.5s-14.333 -13.833 -24 -16.5s-19.334 -2 -29.001 2s-15.834 12.333 -18.501 25
c-15.333 64 -34.833 126.5 -58.5 187.5s-49 121.5 -76 181.5l-81 180c-27 60 -51.167 121 -72.5 183c-4 12 -3.16699 22.167 2.5 30.5s13.334 13.833 23.001 16.5s19.667 2 30 -2s17.5 -12 21.5 -24z" />
    <glyph glyph-name="bracketright" unicode="]" horiz-adv-x="310" 
d="M29 829c30 4 59.665 5.66797 88.998 5.00098s59 -1.66699 89 -3c10 -0.666992 19.5 -4.66699 28.5 -12s12.833 -16.666 11.5 -27.999c-6 -56 -8.83301 -111.667 -8.5 -167s1.5 -111.333 3.5 -168c1.33301 -46 2 -91.667 2 -137s1 -91 3 -137
c0.666992 -18.667 1.16699 -37.334 1.5 -56.001s-0.166992 -37.334 -1.5 -56.001c-1.33301 -14.667 -3.16602 -30.667 -5.49902 -48s-8.16602 -32 -17.499 -44c-12 -16 -26.333 -26.667 -43 -32s-34.334 -8 -53.001 -8s-37.5 1.5 -56.5 4.5s-36.833 4.5 -53.5 4.5
c-12.667 0 -22.167 4.33301 -28.5 13s-9.5 18 -9.5 28s3.16699 19 9.5 27s15.833 12 28.5 12c17.333 -0.666992 34.166 -2.16699 50.499 -4.5s32.833 -3.83301 49.5 -4.5c8 0 15 0.166992 21 0.5s12 1.5 18 3.5c10 32 14.333 64.333 13 97l-4 95
c-1.33301 19.333 -1.66602 39 -0.999023 59s0.666992 40 0 60c-0.666992 25.333 -1.16699 51 -1.5 77s-1.16602 52 -2.49902 78c-1.33301 44 -2 88.167 -2 132.5s1.66699 88.5 5 132.5c-22.667 0.666992 -45.167 1 -67.5 1s-44.833 -1.33301 -67.5 -4
c-11.333 -1.33301 -20.833 2.5 -28.5 11.5s-11.5 18.5 -11.5 28.5c0 11.333 3.83301 20.333 11.5 27s17.167 10.667 28.5 12z" />
    <glyph glyph-name="asciicircum" unicode="^" horiz-adv-x="397" 
d="M326 574c4 -14.667 7.00586 -29.998 9.00586 -45.998s4.33301 -31.833 7 -47.5s6.16699 -31 10.5 -46s10.5 -29.167 18.5 -42.5c6.66699 -11.333 8.16699 -21.833 4.5 -31.5s-9.83398 -17 -18.501 -22s-18.334 -6.83301 -29.001 -5.5s-19.334 7.66602 -26.001 18.999
c-8.66699 14 -15.5 28.667 -20.5 44s-9 30.833 -12 46.5s-5.66699 31.5 -8 47.5s-5.5 31.667 -9.5 47c-4 18 -9 36.333 -15 55s-13.667 36 -23 52c-8.66699 -17.333 -15.834 -35.5 -21.501 -54.5s-12.834 -37.167 -21.501 -54.5
c-5.33301 -11.333 -11.833 -22.833 -19.5 -34.5l-22.5 -35.5c-7.33301 -12 -13.666 -24.333 -18.999 -37s-8.66602 -25.667 -9.99902 -39c-1.33301 -11.333 -5.33301 -20.833 -12 -28.5s-16 -11.5 -28 -11.5c-10 0 -19.333 3.83301 -28 11.5s-12.334 17.167 -11.001 28.5
c1.33301 18 5 34.833 11 50.5s13 31 21 46s16.5 29.833 25.5 44.5s17.167 30 24.5 46c6 14 11.667 28.167 17 42.5l16 42c5.33301 13.667 11.666 27.167 18.999 40.5s16 26 26 38c7.33301 8.66699 16.666 12.5 27.999 11.5s21 -4.83301 29 -11.5
c24 -20.667 42.667 -45.834 56 -75.501s24 -59.5 32 -89.5z" />
    <glyph glyph-name="underscore" unicode="_" horiz-adv-x="845" 
d="M807 52c12.667 0 22.167 -4.16895 28.5 -12.502s9.5 -17.5 9.5 -27.5s-3.16699 -19 -9.5 -27s-15.833 -12 -28.5 -12c-64 0.666992 -128 1.83398 -192 3.50098s-128 2.83398 -192 3.50098s-127.833 0.333984 -191.5 -0.999023s-127.5 -4.66602 -191.5 -9.99902
c-11.333 -0.666992 -20.833 3.33301 -28.5 12s-11.5 18 -11.5 28c-0 11.333 3.83301 20.5 11.5 27.5s17.167 11.167 28.5 12.5c64 5.33301 127.833 8.66602 191.5 9.99902s127.5 1.66602 191.5 0.999023s128 -2 192 -4s128 -3.33301 192 -4z" />
    <glyph glyph-name="grave" unicode="`" 
d="M238 740c21.333 -16.667 43.166 -31.668 65.499 -45.001s45.5 -26 69.5 -38c11.333 -6 17.833 -14 19.5 -24s-0.166016 -19.333 -5.49902 -28s-13 -15.167 -23 -19.5s-20.667 -3.5 -32 2.5c-52 26.667 -102 58.334 -150 95.001c-8.66699 7.33301 -12.667 16.833 -12 28.5
s4.66699 21.167 12 28.5c8.66699 8.66699 18 12.5 28 11.5s19.333 -4.83301 28 -11.5z" />
    <glyph glyph-name="a" unicode="a" horiz-adv-x="497" 
d="M117 27c-22.667 10 -40.502 23.8379 -53.502 41.5049s-22 37.167 -27 58.5s-6.5 43.5 -4.5 66.5s6.66699 45.167 14 66.5c6 16.667 12.833 34 20.5 52s16.834 34.667 27.501 50s23.334 28.5 38.001 39.5s32 18.167 52 21.5c20.667 3.33301 41.5 4.5 62.5 3.5
s41.833 -3.16699 62.5 -6.5c9.33301 -1.33301 18.333 -3.5 27 -6.5s17.334 -6.16699 26.001 -9.5c0.666992 10 5.16699 18.333 13.5 25s17.166 10 26.499 10c11.333 0 20.5 -3.83301 27.5 -11.5s11.167 -16.834 12.5 -27.501c3.33301 -30.667 4.83301 -61.334 4.5 -92.001
s-1.33301 -61.334 -3 -92.001s-3 -61.334 -4 -92.001s-0.833008 -61.334 0.5 -92.001c0.666992 -12.667 -3.16602 -22.167 -11.499 -28.5s-17.5 -9.5 -27.5 -9.5s-19.167 3.16699 -27.5 9.5s-12.833 15.833 -13.5 28.5c-38 -16 -78.333 -25.167 -121 -27.5
s-83.334 5.16699 -122.001 22.5zM123.998 244.005c-4 -12 -7.66406 -25.667 -10.9971 -41s-4.33301 -30 -3 -44s5.66602 -26.833 12.999 -38.5s19.333 -19.834 36 -24.501c34 -10.667 68.167 -13.667 102.5 -9s66.5 16.667 96.5 36
c2.66699 32.667 4.83398 64.334 6.50098 95.001s2.16699 61.667 1.5 93c-11.333 7.33301 -22.833 13.833 -34.5 19.5s-24.5 9.5 -38.5 11.5s-28.833 3.5 -44.5 4.5s-30.834 0.833008 -45.501 -0.5c-1.33301 0 -4.83301 -0.833008 -10.5 -2.5
s-8.83398 -2.83398 -9.50098 -3.50098c-6.66699 -3.33301 -12.667 -8.66602 -18 -15.999c-8.66699 -12 -16.334 -24.833 -23.001 -38.5s-12.667 -27.5 -18 -41.5z" />
    <glyph glyph-name="b" unicode="b" horiz-adv-x="515" 
d="M46 746c-0.666992 12.667 3 22.3291 11 28.9961s17 10 27 10s19.333 -3.33301 28 -10s13.334 -16.334 14.001 -29.001c2.66699 -54 7 -107.667 13 -161s8.33301 -107 7 -161c35.333 10.667 71.5 18.167 108.5 22.5s73.167 1.83301 108.5 -7.5
c21.333 -5.33301 41.833 -14 61.5 -26s34.5 -28.667 44.5 -50c8.66699 -19.333 14.5 -39 17.5 -59s3.83301 -40.667 2.5 -62c-2 -24.667 -6.83301 -47.667 -14.5 -69s-19.167 -41.666 -34.5 -60.999c-14 -18 -29.833 -35.167 -47.5 -51.5s-37.167 -29.5 -58.5 -39.5
c-12.667 -5.33301 -25.167 -8.16602 -37.5 -8.49902s-24.5 1.33398 -36.5 5.00098s-23.667 8.33398 -35 14.001s-22.333 11.834 -33 18.501l-31 19.5c-10 6.33301 -19.667 13.833 -29 22.5l-6 -20c0 -13.333 -4.16699 -23.166 -12.5 -29.499s-17.5 -9.5 -27.5 -9.5
s-19.167 3.16699 -27.5 9.5s-12.5 16.166 -12.5 29.499c-0.666992 44 1 87.333 5 130s7.66699 85.667 11 129c-8 12 -11.333 23 -10 33s5.66602 18 12.999 24c0.666992 6 1 12 1 18v18c1.33301 54 -1 107.667 -7 161s-10.333 107 -13 161zM141 335.995
c-1.33301 -23.333 -2.99805 -46.333 -4.99805 -69l-6 -69c15.333 -11.333 29.666 -23.5 42.999 -36.5s28.333 -24.167 45 -33.5l16.5 -11.5c7 -5 14.333 -9.83301 22 -14.5s15.334 -8.16699 23.001 -10.5s14.167 -1.83301 19.5 1.5c14 7.33301 27.333 16.166 40 26.499
s24.167 22 34.5 35s18.666 26.833 24.999 41.5s9.83301 30 10.5 46c1.33301 14 1.5 28.667 0.5 44s-4.83301 29.333 -11.5 42c-7.33301 12.667 -17.833 21.667 -31.5 27s-27.834 9 -42.501 11c-30.667 4.66699 -61.5 3.83398 -92.5 -2.49902s-61.167 -15.5 -90.5 -27.5z" />
    <glyph glyph-name="c" unicode="c" horiz-adv-x="378" 
d="M332 78c2.66699 -9.33301 1.33496 -19.3291 -3.99805 -29.9961s-13.333 -17 -24 -19c-36 -6 -71.667 -5.5 -107 1.5s-68 22.167 -98 45.5c-29.333 23.333 -50.166 53.166 -62.499 89.499s-14.5 72.833 -6.5 109.5c7.33301 32.667 22.666 61 45.999 85s50 42.667 80 56
c26.667 12.667 54.667 22.667 84 30s58.666 9.66602 87.999 6.99902c11.333 -1.33301 20.833 -5.5 28.5 -12.5s11.5 -16.167 11.5 -27.5c0 -10 -3.83301 -19.333 -11.5 -28s-17.167 -12.667 -28.5 -12c-21.333 2 -42.333 1 -63 -3s-40.667 -10.333 -60 -19
c-11.333 -5.33301 -22.5 -11 -33.5 -17s-20.5 -12.667 -28.5 -20c-8.66699 -8 -15.834 -16 -21.501 -24s-9.83398 -17.333 -12.501 -28s-3.66699 -22 -3 -34s2.83398 -23.833 6.50098 -35.5s8.83398 -22.334 15.501 -32.001s14.667 -17.834 24 -24.501
c19.333 -14 40.5 -23.5 63.5 -28.5s45.5 -5.5 67.5 -1.5c10.667 2 20.667 0.666992 30 -4s15.666 -12.667 18.999 -24z" />
    <glyph glyph-name="d" unicode="d" horiz-adv-x="459" 
d="M152 365c24 14.667 49.834 27.333 77.501 38s55.834 15.667 84.501 15c-2.66699 56.667 -4.83398 113 -6.50098 169s-2.83398 112.333 -3.50098 169c0 12.667 4 22.167 12 28.5s17 9.5 27 9.5s19.167 -3.16699 27.5 -9.5s12.5 -15.833 12.5 -28.5
c0.666992 -66 2.33398 -132.167 5.00098 -198.5l8 -198.5c2.66699 -66 4.66699 -132.167 6 -198.5s1 -132.5 -1 -198.5c-0.666992 -12.667 -5.33398 -22.334 -14.001 -29.001s-18 -10 -28 -10s-19 3.16699 -27 9.5s-11.667 16.166 -11 29.499v14
c0 4.66699 0.333008 9.33398 1 14.001c-6.66699 0.666992 -13.167 1.16699 -19.5 1.5s-12.5 0.5 -18.5 0.5h-24c-8 0 -15.667 0.333008 -23 1c-17.333 1.33301 -34.666 3 -51.999 5s-34.333 6 -51 12c-16.667 6.66699 -32.334 14.834 -47.001 24.501s-26.667 22.5 -36 38.5
c-10.667 16.667 -19.5 34.667 -26.5 54s-9.83301 39.333 -8.5 60s6 39.667 14 57s18.167 33.333 30.5 48s26.333 28 42 40s32.167 23 49.5 33zM323.001 68.999c0 89.333 -2 179.002 -6 269.002c-22 1.33301 -43.833 -2.5 -65.5 -11.5s-41.5 -19.167 -59.5 -30.5l-32.5 -20.5
c-11.667 -7.66699 -22.334 -16.334 -32.001 -26.001s-17.5 -20.167 -23.5 -31.5s-9 -23.666 -9 -36.999c0.666992 -12 3.33398 -24.833 8.00098 -38.5s11 -24.834 19 -33.501s17 -15.167 27 -19.5s20.667 -7.83301 32 -10.5
c13.333 -2.66699 26.166 -4.33398 38.499 -5.00098l38.5 -2c10.667 0 21.334 -0.5 32.001 -1.5s21.667 -1.5 33 -1.5z" />
    <glyph glyph-name="e" unicode="e" horiz-adv-x="449" 
d="M75 388c12.667 17.333 27.8271 32.667 45.4941 46s36.5 23.833 56.5 31.5s40.667 11.667 62 12s42.666 -3.83398 63.999 -12.501c20.667 -8 39.334 -18.833 56.001 -32.5s29.667 -31.167 39 -52.5c7.33301 -16 11.666 -33.333 12.999 -52s-3.66699 -35.667 -15 -51
c-10 -14 -22.167 -24.667 -36.5 -32s-29.666 -12.666 -45.999 -15.999s-33 -5 -50 -5s-33.167 0.333008 -48.5 1c-17.333 0.666992 -34.5 2 -51.5 4l-51.5 6c5.33301 -30 16 -56.667 32 -80s37.667 -41 65 -53c7.33301 -2.66699 13 -4.66699 17 -6
c2 -0.666992 3.83301 -1.16699 5.5 -1.5s3.5 -0.5 5.5 -0.5c5.33301 -0.666992 9.83301 -1.16699 13.5 -1.5s7.16699 -0.166016 10.5 0.500977c4.66699 0.666992 7.83398 1.16699 9.50098 1.5s3.5 0.833008 5.5 1.5c7.33301 2 13.833 4.33301 19.5 7s12.5 7 20.5 13
c4 3.33301 9.33301 8.33301 16 15s12.334 12.667 17.001 18c6.66699 9.33301 14.834 15.666 24.501 18.999s19.5 2 29.5 -4c8.66699 -5.33301 14.834 -13.5 18.501 -24.5s2.16699 -21.167 -4.5 -30.5c-19.333 -26 -42.166 -48.167 -68.499 -66.5
s-56.5 -28.166 -90.5 -29.499c-27.333 -1.33301 -53.666 3.5 -78.999 14.5s-47.666 25.833 -66.999 44.5c-24 23.333 -43 50.333 -57 81s-21.667 62 -23 94c-6 4.66699 -10.5 10.5 -13.5 17.5s-4 14.167 -3 21.5s3.5 14.166 7.5 20.499s10 10.5 18 12.5
c7.33301 24.667 18.666 47.667 33.999 69zM314.993 364.001c-7.33301 9.33301 -18.6699 17.668 -34.0029 25.001c-12.667 5.33301 -27.5 8 -44.5 8s-31.5 -3 -43.5 -9c-15.333 -7.33301 -29 -17.5 -41 -30.5s-21.667 -27.5 -29 -43.5l48 -6c16 -2 32 -3.33301 48 -4h26
c8.66699 0 17.334 0.333008 26.001 1c2.66699 0 5.16699 0.166992 7.5 0.5s4.83301 0.5 7.5 0.5c6 1.33301 10.5 2.16602 13.5 2.49902s6.16699 1.16602 9.5 2.49902c2.66699 0.666992 6 1.66699 10 3c3.33301 1.33301 5.33301 2.33301 6 3s1.66699 1.33398 3 2.00098l3 12
c-1.33301 2.66699 -2.16602 5.16699 -2.49902 7.5s-1.16602 4.5 -2.49902 6.5c-0.666992 2 -2.16699 5 -4.5 9s-4.5 7.33301 -6.5 10z" />
    <glyph glyph-name="f" unicode="f" horiz-adv-x="332" 
d="M91 584c6.66699 42.667 21.834 82.0059 45.501 118.006s52.5 67 86.5 93c19.333 15.333 39.666 25 60.999 29s43.333 -0.333008 66 -13c17.333 -10 34.833 -20.667 52.5 -32s31.5 -26 41.5 -44c6.66699 -11.333 8 -21.833 4 -31.5s-10.333 -17 -19 -22
s-18.167 -6.83301 -28.5 -5.5s-18.5 7.66602 -24.5 18.999c-3.33301 6 -8 11.167 -14 15.5s-11.667 8.16602 -17 11.499c-6 3.33301 -12.667 7.66602 -20 12.999s-14.666 8.66602 -21.999 9.99902c-6 2 -12 1.5 -18 -1.5s-11.833 -7 -17.5 -12s-11 -10.333 -16 -16
s-9.5 -10.5 -13.5 -14.5c-24 -25.333 -42.167 -52.666 -54.5 -81.999s-18.166 -61.666 -17.499 -96.999c0.666992 -24 2.66699 -48 6 -72l58.5 4l58.5 4c11.333 1.33301 20.833 -2.33398 28.5 -11.001s11.5 -18.334 11.5 -29.001c0 -11.333 -3.83301 -20.5 -11.5 -27.5
s-17.167 -10.833 -28.5 -11.5l-52.5 -4l-52.5 -4l6 -34l6 -34l24.5 -140c8.33301 -46 14.5 -93 18.5 -141c1.33301 -11.333 -2.33398 -20.833 -11.001 -28.5s-18.334 -11.5 -29.001 -11.5c-11.333 0 -20.5 3.83301 -27.5 11.5s-11.167 17.167 -12.5 28.5
c-4 53.333 -11 105.833 -21 157.5s-19.333 103.5 -28 155.5c-1.33301 5.33301 -2.16602 10.666 -2.49902 15.999s-1.16602 10.666 -2.49902 15.999c-19.333 -1.33301 -38.833 -2.33301 -58.5 -3s-39.5 -1 -59.5 -1c-12.667 0 -22.167 4.16699 -28.5 12.5
s-9.5 17.5 -9.5 27.5s3.16699 19.167 9.5 27.5s15.833 12.5 28.5 12.5c35.333 0 70.666 1 105.999 3c-3.33301 23.333 -5.33301 46.333 -6 69s0.666016 45.667 3.99902 69z" />
    <glyph glyph-name="g" unicode="g" horiz-adv-x="420" 
d="M53 -256c14.667 -14 31.6689 -23.8301 51.002 -29.4971s38.666 -7.5 57.999 -5.5s37.666 7.66699 54.999 17s31.666 22.333 42.999 39c24 34 39.5 71.5 46.5 112.5s9.83301 82.167 8.5 123.5c-32 -5.33301 -64.833 -6.5 -98.5 -3.5s-65.5 10.167 -95.5 21.5
c-15.333 6 -29.833 13.167 -43.5 21.5s-24.5 20.166 -32.5 35.499c-14 26 -20 54.667 -18 86c1.33301 30 6.5 59.167 15.5 87.5s19.167 56.5 30.5 84.5l19.5 42.5c7 15 16.167 28.5 27.5 40.5c11.333 12.667 24.333 22.334 39 29.001s30.334 10.667 47.001 12
c-2.66699 9.33301 -2.66699 18.166 0 26.499s8.33398 15.166 17.001 20.499s18.834 6.66602 30.501 3.99902s19.834 -8.66699 24.501 -18c2.66699 -6 5.16699 -12 7.5 -18s4.5 -12 6.5 -18c13.333 -36 25.5 -72.333 36.5 -109s21.5 -73.667 31.5 -111
c12 -44 21 -88.667 27 -134s8.33301 -91.333 7 -138c-0.666992 -26 -2.83398 -52.667 -6.50098 -80s-9.83398 -53.666 -18.501 -78.999s-20 -49.5 -34 -72.5s-32 -42.833 -54 -59.5c-20.667 -16 -43.5 -27.5 -68.5 -34.5s-50.333 -9.83301 -76 -8.5s-50.667 7 -75 17
s-45.833 24 -64.5 42c-9.33301 8.66699 -13.333 18.167 -12 28.5s5.5 19 12.5 26s15.667 11.167 26 12.5s20.166 -2.33398 29.499 -11.001zM164.002 89.0029c23.333 -6 47.499 -10.1689 72.499 -12.502s49.167 -0.833008 72.5 4.5c-4 34 -9.83301 66.667 -17.5 98
s-16.167 63 -25.5 95l-16.5 55l-17.5 54c-2 -1.33301 -4.33301 -2.16602 -7 -2.49902s-5.66699 -0.833008 -9 -1.5c-20 0 -35.333 -9 -46 -27c-7.33301 -11.333 -13.333 -23.333 -18 -36c-1.33301 -3.33301 -2.66602 -6.5 -3.99902 -9.5s-2.66602 -6.16699 -3.99902 -9.5
c-10 -24 -18.5 -47.167 -25.5 -69.5s-11.167 -44.166 -12.5 -65.499v-18c0.666992 -4.66699 1.33398 -8.33398 2.00098 -11.001c1.33301 -6 2.16602 -9.66699 2.49902 -11s2.16602 -4.66602 5.49902 -9.99902c4 -3.33301 7.66699 -6 11 -8s5.33301 -3.33301 6 -4l15.5 -6
c5 -2 10.167 -3.66699 15.5 -5z" />
    <glyph glyph-name="h" unicode="h" horiz-adv-x="494" 
d="M60 20c-9.33301 3.33301 -17.1689 9.83008 -23.502 19.4971s-7.5 19.5 -3.5 29.5c11.333 31.333 19 63 23 95s6.66699 64.667 8 98c0.666992 10 1 19.833 1 29.5s0.333008 19.5 1 29.5c-2 8 -1.33301 15.667 2 23l4 58.5c1.33301 19.667 3.33301 39.167 6 58.5
c3.33301 29.333 6.83301 58.5 10.5 87.5s6.16699 58.5 7.5 88.5c1.33301 27.333 2.83301 54.5 4.5 81.5s8.5 52.833 20.5 77.5c6 11.333 14 17.833 24 19.5s19.333 0 28 -5s15.167 -12.5 19.5 -22.5s3.5 -20.667 -2.5 -32c-5.33301 -11.333 -9 -23 -11 -35
s-3.16699 -24.333 -3.5 -37s-0.5 -25.334 -0.5 -38.001s-0.333008 -25 -1 -37l-10 -89.5l-10 -89.5c28 14 59 21.667 93 23c26.667 0.666992 53.834 -3.83301 81.501 -13.5s50.167 -25.167 67.5 -46.5c10 -12.667 18 -26.5 24 -41.5s10.833 -30.667 14.5 -47
s6.16699 -32.666 7.5 -48.999l4 -47.5c2 -31.333 2.83301 -62.5 2.5 -93.5s-1.16602 -62.5 -2.49902 -94.5c0 -12.667 -4.33301 -22.167 -13 -28.5s-18 -9.5 -28 -9.5s-19 3.16699 -27 9.5s-11.667 15.833 -11 28.5l2 80c0.666992 26.667 0.333984 53.334 -0.999023 80.001
c-1.33301 13.333 -2.33301 27 -3 41s-2.33398 28 -5.00098 42c-1.33301 6.66699 -2.5 13.167 -3.5 19.5s-2.5 12.833 -4.5 19.5c-0.666992 5.33301 -2.33398 11 -5.00098 17c-2 6 -3.33301 9.33301 -4 10c-1.33301 2 -2.33301 3.83301 -3 5.5s-1.66699 3.5 -3 5.5
c-6 6.66699 -9.66699 10.334 -11 11.001c-2.66699 2 -5 3.5 -7 4.5s-4 2.16699 -6 3.5c-7.33301 4 -15.666 7.33301 -24.999 10s-18.333 4 -27 4c-22.667 1.33301 -43.834 -2.66699 -63.501 -12s-37.167 -23.666 -52.5 -42.999c-1.33301 -46 -3.66602 -91.5 -6.99902 -136.5
s-13 -89.5 -29 -133.5c-3.33301 -10 -9.5 -18 -18.5 -24s-19.167 -7.33301 -30.5 -4z" />
    <glyph glyph-name="i" unicode="i" horiz-adv-x="230" 
d="M47 10c5.33301 32 11.502 63.5029 18.502 94.5029s12.167 62.5 15.5 94.5c2.66699 31.333 3.16699 62.166 1.5 92.499s0.166016 61.166 5.49902 92.499c1.33301 10.667 7.5 18.667 18.5 24s21.167 6.66602 30.5 3.99902c11.333 -3.33301 19.166 -9.66602 23.499 -18.999
s5.83301 -19.333 4.5 -30c-2.66699 -15.333 -3.83398 -31 -3.50098 -47s0.833008 -32 1.5 -48c0 -30.667 -2 -61.334 -6 -92.001c-4 -32 -9.16699 -63.333 -15.5 -94s-12.166 -61.667 -17.499 -93c-2 -10.667 -8.33301 -18.667 -19 -24s-20.667 -6.66602 -30 -3.99902
c-11.333 3.33301 -19.333 9.66602 -24 18.999s-6 19.333 -4 30zM95.002 470.003c-4.66699 1.33301 -9.3291 3.5 -13.9961 6.5s-8 6.83301 -10 11.5c-2 5.33301 -3.66699 10 -5 14s-2 8.66699 -2 14c0 6 1 12 3 18c2.66699 12 8 20.667 16 26c2.66699 4 6.33398 7 11.001 9
c7.33301 4.66699 15.666 7.16699 24.999 7.5s17.666 -2.16699 24.999 -7.5c3.33301 -2.66699 6.66602 -5.5 9.99902 -8.5s6 -6.83301 8 -11.5l4.5 -11c1.66699 -4 2.16699 -8 1.5 -12c-0.666992 -4.66699 -1.33398 -9 -2.00098 -13s-2.33398 -7.66699 -5.00098 -11
c-3.33301 -4.66699 -6 -8 -8 -10s-5.33301 -4.66699 -10 -8c-2.66699 -2.66699 -6.66699 -4.66699 -12 -6c-14 -8 -26 -10.667 -36 -8z" />
    <glyph glyph-name="j" unicode="j" horiz-adv-x="231" 
d="M-212 -286c-10 8.66699 -14.3379 18.0029 -13.0049 28.0029s5.5 18.5 12.5 25.5s15.833 11.333 26.5 13s20.667 -1.83301 30 -10.5c26.667 -23.333 58.167 -42 94.5 -56s72.5 -19.333 108.5 -16c13.333 1.33301 26.5 4.66602 39.5 9.99902s23.167 13.666 30.5 24.999
c9.33301 13.333 15.5 27.666 18.5 42.999s4.83301 31 5.5 47c0.666992 44.667 -4.5 88.834 -15.5 132.501l-31.5 130.5c-11.333 47.333 -20.666 95 -27.999 143s-8.33301 96 -3 144c1.33301 11.333 5.33301 20.833 12 28.5s16 11.5 28 11.5c10 0 19.5 -3.83301 28.5 -11.5
s12.833 -17.167 11.5 -28.5c-5.33301 -54 -3.16602 -107.333 6.50098 -160s20.834 -105.334 33.501 -158.001c6 -23.333 11.833 -47.333 17.5 -72s10.334 -49.5 14.001 -74.5s5.66699 -50 6 -75s-2.16699 -49.5 -7.5 -73.5c-4.66699 -21.333 -12.167 -41.166 -22.5 -59.499
s-24.166 -34.166 -41.499 -47.499c-16.667 -12.667 -35.5 -21.834 -56.5 -27.501s-41.833 -8.5 -62.5 -8.5c-44.667 0.666992 -88 9.66699 -130 27s-79.333 40.666 -112 69.999zM84.9951 527.003c-7.33301 4.66699 -12.667 10.6689 -16 18.002s-4.33301 15 -3 23
c-1.33301 16.667 2.16699 28.834 10.5 36.501s17.833 11.5 28.5 11.5h9.5c3 0 6.16699 -0.666992 9.5 -2c2 -0.666992 3.83301 -1.33398 5.5 -2.00098s3.5 -1.33398 5.5 -2.00098c12 -4 20 -10.333 24 -19c2.66699 -4 4.5 -8.83301 5.5 -14.5s0.5 -10.834 -1.5 -15.501
c-2 -6 -4 -11 -6 -15c-3.33301 -8.66699 -9.33301 -15.334 -18 -20.001s-17.667 -6 -27 -4c-10.667 -1.33301 -19.667 0.333984 -27 5.00098z" />
    <glyph glyph-name="k" unicode="k" horiz-adv-x="446" 
d="M65 216c-2.66699 8 -3.00488 16.334 -1.00488 25.001c-4.66699 80.667 -9.66699 160.834 -15 240.501s-5 159.834 1 240.501c1.33301 11.333 5.5 20.833 12.5 28.5s16.167 11.5 27.5 11.5c10.667 0 20.334 -3.83301 29.001 -11.5s12.334 -17.167 11.001 -28.5
c-5.33301 -72.667 -6 -144.5 -2 -215.5s8.33301 -142.833 13 -215.5l112.5 68c37.667 22 74.5 45.333 110.5 70c10.667 7.33301 20.834 9.16602 30.501 5.49902s17 -9.83398 22 -18.501s6.83301 -18.334 5.5 -29.001s-7.33301 -19.667 -18 -27
c-36 -24.667 -72.5 -47.834 -109.5 -69.501l-111.5 -66.5l133 -91c44 -30.667 87 -63 129 -97c8.66699 -7.33301 12.667 -16.833 12 -28.5s-4.66699 -21.167 -12 -28.5c-8.66699 -8 -18.167 -11.667 -28.5 -11s-19.833 4.33398 -28.5 11.001c-38.667 31.333 -78 61 -118 89
l-122 84c0.666992 -25.333 0.833984 -51 0.500977 -77s-1.16602 -51.667 -2.49902 -77c-0.666992 -13.333 -5.16699 -23.166 -13.5 -29.499s-17.5 -9.5 -27.5 -9.5s-19 3.16699 -27 9.5s-11.667 16.166 -11 29.499c1.33301 36 1.83301 72.167 1.5 108.5
s-1.5 72.833 -3.5 109.5z" />
    <glyph glyph-name="l" unicode="l" horiz-adv-x="215" 
d="M107 785c12 0 21.332 -4 27.999 -12s10.667 -17.333 12 -28c6.66699 -63.333 10.334 -126.666 11.001 -189.999s-0.166016 -126.666 -2.49902 -189.999s-5.83301 -126.666 -10.5 -189.999l-14 -189c-1.33301 -11.333 -5.5 -20.833 -12.5 -28.5s-16.167 -11.5 -27.5 -11.5
c-10 0 -19.333 3.83301 -28 11.5s-12.667 17.167 -12 28.5l14.5 189c5 63.333 8.66699 126.666 11 189.999s3.16602 126.666 2.49902 189.999s-4.33398 126.666 -11.001 189.999c-1.33301 10.667 2.33398 20 11.001 28s18 12 28 12z" />
    <glyph glyph-name="m" unicode="m" horiz-adv-x="748" 
d="M131 -13c-9.33301 -3.33301 -19.5078 -2.33398 -30.5078 2.99902s-17.167 13.333 -18.5 24c-9.33301 58.667 -15.166 116.834 -17.499 174.501s-3.5 115.834 -3.5 174.501c0 10 2.66699 18 8 24s11.666 10 18.999 12s15 2.33301 23 1s14.667 -4.66602 20 -9.99902
c15.333 12.667 31.666 23.667 48.999 33s34.833 15.5 52.5 18.5s35.167 2 52.5 -3s33.666 -15.5 48.999 -31.5c12.667 -13.333 23.667 -27.5 33 -42.5s17.666 -30.833 24.999 -47.5c10 25.333 24 48.666 42 69.999s41 35.666 69 42.999
c20.667 5.33301 37 4.16602 49 -3.50098s23.333 -19.5 34 -35.5c11.333 -16.667 21.833 -33.667 31.5 -51s18.834 -35 27.501 -53l25 -54l24 -53c9.33301 -19.333 17.5 -38.5 24.5 -57.5s11.5 -39.167 13.5 -60.5c1.33301 -11.333 -2.5 -20.833 -11.5 -28.5
s-18.5 -11.5 -28.5 -11.5c-11.333 0 -20.5 3.83301 -27.5 11.5s-11.167 17.167 -12.5 28.5c-1.33301 16 -5.5 31.5 -12.5 46.5l-20.5 44.5l-21.5 47l-21.5 47c-7.33301 15.333 -15.166 30.666 -23.499 45.999s-17.166 30.333 -26.499 45l-4 6l-4 6
c-13.333 -7.33301 -23 -14.333 -29 -21s-11.667 -15.667 -17 -27c-4.66699 -10 -8.5 -20.5 -11.5 -31.5s-5.5 -22.167 -7.5 -33.5c-4 -21.333 -7 -43.666 -9 -66.999c-1.33301 -17.333 -1.16602 -34 0.500977 -50s0.833984 -32.667 -2.49902 -50
c-2 -10.667 -8.16699 -18.667 -18.5 -24s-20.5 -6.66602 -30.5 -3.99902c-9.33301 2.66699 -16.166 7.5 -20.499 14.5s-7.16602 15.167 -8.49902 24.5c-2.66699 21.333 -5.66699 43.333 -9 66s-7.66602 45.167 -12.999 67.5s-12.166 44 -20.499 65
s-19.166 40.5 -32.499 58.5c-9.33301 12 -18.833 20 -28.5 24s-21.5 2.33301 -35.5 -5c-15.333 -8 -30.333 -17.667 -45 -29s-27.667 -24 -39 -38c0.666992 -42.667 2.16699 -85.167 4.5 -127.5s6.83301 -84.5 13.5 -126.5c1.33301 -11.333 -0.166992 -21.5 -4.5 -30.5
s-12.166 -15.167 -23.499 -18.5z" />
    <glyph glyph-name="n" unicode="n" horiz-adv-x="416" 
d="M52 96c0 28.667 1.99609 57.6709 5.99609 87.0039l14 105.5c4.66699 35 6.66699 70.5 6 106.5c0 12.667 4 22.334 12 29.001s17 10 27 10s19.333 -3.33301 28 -10s13 -16.334 13 -29.001c26 2 50.667 3 74 3c26.667 -0.666992 49.334 -8.33398 68.001 -23.001
s32.667 -34.334 42 -59.001c8 -22.667 12.667 -46 14 -70s2.33301 -48 3 -72c0.666992 -34 1.66699 -67.833 3 -101.5s2 -67.5 2 -101.5c0 -13.333 -4.16699 -23.166 -12.5 -29.499s-17.333 -9.5 -27 -9.5s-18.667 3.16699 -27 9.5s-12.5 16.166 -12.5 29.499
c0 32 -0.5 63.333 -1.5 94s-2.16699 62 -3.5 94c-1.33301 17.333 -1.83301 35.166 -1.5 53.499s-1.16699 35.166 -4.5 50.499c-2 9.33301 -4 17.5 -6 24.5s-5.66699 13.833 -11 20.5c-1.33301 2.66699 -4.16602 5 -8.49902 7s-8.16602 3 -11.499 3
c-10 0 -19.333 -0.666992 -28 -2s-17.667 -3.33301 -27 -6l-12 -4c-4 -1.33301 -7.66699 -3 -11 -5c-6.66699 -24 -11.5 -46.833 -14.5 -68.5s-5.83301 -43.5 -8.5 -65.5c-2 -16 -3.16699 -32.167 -3.5 -48.5s-1 -32.5 -2 -48.5s-3 -32 -6 -48s-8.16699 -31.333 -15.5 -46
c-6 -11.333 -14 -17.833 -24 -19.5s-19.167 0 -27.5 5s-14.666 12.5 -18.999 22.5s-3.83301 20.667 1.5 32c6 12 9.33301 25 10 39z" />
    <glyph glyph-name="o" unicode="o" horiz-adv-x="547" 
d="M289 461c21.333 2.66699 43.6689 3.49805 67.002 2.49805s45.666 -5 66.999 -12s40.666 -17.5 57.999 -31.5s30.666 -32.333 39.999 -55c6.66699 -16 10.167 -32.167 10.5 -48.5s-2 -32 -7 -47s-12.333 -29.333 -22 -43s-20.834 -26.167 -33.501 -37.5
c-27.333 -24.667 -57.333 -45.667 -90 -63s-67 -30.666 -103 -39.999c-15.333 -4 -31.166 -7.5 -47.499 -10.5s-32.833 -4.5 -49.5 -4.5s-33 1.83301 -49 5.5s-31 9.83398 -45 18.501c-10 6 -16 14 -18 24c-4 11.333 -8.33301 22 -13 32s-9.16699 20.333 -13.5 31
s-7.83301 21.334 -10.5 32.001s-4 21.667 -4 33c0 22.667 4.83301 44.167 14.5 64.5s22.834 38.166 39.501 53.499c28 26.667 60.333 48 97 64s74 26.667 112 32zM402.003 374.998c-18 6.66699 -37.332 9.99707 -57.999 9.99707c-22 0.666992 -44 -1.5 -66 -6.5
s-43 -11.833 -63 -20.5c-18.667 -7.33301 -37.834 -17.5 -57.501 -30.5s-34.167 -28.833 -43.5 -47.5c-5.33301 -10 -7.83301 -20.167 -7.5 -30.5s2 -20.666 5 -30.999s7 -20.666 12 -30.999s9.5 -20.5 13.5 -30.5c10.667 -2.66699 17.334 -4 20.001 -4
c1.33301 -0.666992 3 -1 5 -1h5c13.333 -1.33301 25.333 -1 36 1c7.33301 0 16.666 1.33301 27.999 4c17.333 3.33301 34 7.83301 50 13.5s30.667 11.834 44 18.501c15.333 7.33301 30.333 15.333 45 24s27 17.667 37 27c6.66699 6 13 12.333 19 19
c3.33301 3.33301 5.66602 6 6.99902 8c3.33301 4.66699 6 8.16699 8 10.5s3.66699 5.16602 5 8.49902c2.66699 4.66699 4 8.33398 4 11.001c0.666992 1.33301 1.16699 3 1.5 5s0.833008 3.66699 1.5 5v11c-0.666992 2.66699 -1 4.66699 -1 6s-0.333008 2.66602 -1 3.99902
c-2 4.66699 -3.83301 8.16699 -5.5 10.5l-5.5 7.5c0.666992 -0.666992 -0.166016 0.333008 -2.49902 3s-3.83301 4.33398 -4.5 5.00098l-8 8c-3.33301 2 -7 4.33301 -11 7s-8 4.66699 -12 6z" />
    <glyph glyph-name="p" unicode="p" horiz-adv-x="474" 
d="M154 -288c0.666992 -12.667 -2.83301 -22.1641 -10.5 -28.4971s-16.5 -9.5 -26.5 -9.5s-19.333 3.16699 -28 9.5s-13.334 15.833 -14.001 28.5c-7.33301 106.667 -11.666 213.167 -12.999 319.5s-4.33301 212.833 -9 319.5c-9.33301 14.667 -10 28.667 -2 42
c-0.666992 7.33301 -1.16699 14.166 -1.5 20.499s-0.833008 13.166 -1.5 20.499c-0.666992 12 2.66602 21.167 9.99902 27.5s15.833 9.83301 25.5 10.5s18.834 -1.83301 27.501 -7.5s14 -14.167 16 -25.5l32.5 15l32.5 14c9.33301 4 19.666 7.83301 30.999 11.5
s23 6.5 35 8.5s23.833 3 35.5 3s22.5 -2 32.5 -6c20 -8 36.5 -20 49.5 -36s23.833 -33.667 32.5 -53c8 -18.667 15.667 -37.5 23 -56.5s11.333 -38.5 12 -58.5c0.666992 -20.667 -2.33301 -40 -9 -58s-15.834 -34.333 -27.501 -49s-25.5 -27.667 -41.5 -39s-33 -21 -51 -29
c-19.333 -8.66699 -39.333 -16.334 -60 -23.001s-41.667 -11 -63 -13c-9.33301 -1.33301 -18.166 -1 -26.499 1s-16.166 4.66699 -23.499 8c1.33301 -62 2.83301 -123.333 4.5 -184s4.5 -121.667 8.5 -183zM133 353.003c1.33301 -30.667 2.33691 -61.167 3.00391 -91.5
s1.66699 -60.833 3 -91.5c4 -2.66699 8 -5.16699 12 -7.5l13 -7.5c5.33301 -3.33301 9.66602 -5.16602 12.999 -5.49902s8.66602 0.166992 15.999 1.5l44 10.5c14.667 3.66699 28.667 8.83398 42 15.501c12.667 6 24.667 12.5 36 19.5s21.666 16.167 30.999 27.5
c6 7.33301 10.667 15.833 14 25.5s4.33301 20.167 3 31.5c-0.666992 13.333 -3.83398 27 -9.50098 41l-16.5 39c-3.33301 6 -6.5 12.167 -9.5 18.5s-6.5 12.166 -10.5 17.499c-6 6 -10.667 9.66699 -14 11c-18.667 1.33301 -35 0.333008 -49 -3
s-27.833 -7.83301 -41.5 -13.5s-27.167 -11.834 -40.5 -18.501z" />
    <glyph glyph-name="q" unicode="q" horiz-adv-x="451" 
d="M529 -279c-18 -7.33301 -36.168 -8.16406 -54.501 -2.49707s-35.5 12.5 -51.5 20.5c-13.333 7.33301 -26 15.166 -38 23.499s-22 19.166 -30 32.499c-7.33301 12 -13 24.667 -17 38s-7 26.666 -9 39.999c-8 40 -13 80.333 -15 121c0 10.667 -0.333008 21.167 -1 31.5
l-2 31.5c-34 3.33301 -68 8.5 -102 15.5s-65.333 19.167 -94 36.5c-19.333 12 -35.166 26 -47.499 42s-22.5 34.333 -30.5 55c-6 16.667 -9.66699 34.334 -11 53.001s0 37 4 55s10.5 35 19.5 51s20.5 29.667 34.5 41c17.333 13.333 36 24 56 32s40.333 14.667 61 20
c22 6 44.333 10.833 67 14.5s45.667 6.16699 69 7.5c2 16 8.33301 26.5 19 31.5s21 6.16699 31 3.5c11.333 -3.33301 19.166 -9.5 23.499 -18.5s5.83301 -19.167 4.5 -30.5c-6 -36 -10.167 -72 -12.5 -108s-4.83301 -72.333 -7.5 -109c-1.33301 -18 -2.83301 -36 -4.5 -54
s-2.5 -36 -2.5 -54c-0.666992 -18 -0.333984 -36 0.999023 -54l4 -54c1.33301 -30 2.83301 -60.833 4.5 -92.5s7.83398 -61.834 18.501 -90.501l2.5 -5c0.333008 -0.666992 1.5 -2.66699 3.5 -6c6 -8 10.5 -13.167 13.5 -15.5s7.16699 -4.83301 12.5 -7.5
c8.66699 -4 18.334 -9 29.001 -15s21 -7 31 -3s19.833 2.66699 29.5 -4s16.167 -14.667 19.5 -24c3.33301 -11.333 2 -21.333 -4 -30s-14 -15 -24 -19zM314.999 241.002c1.33301 26.667 2.83203 53.1641 4.49902 79.4971s3.83398 52.833 6.50098 79.5
c-16.667 -1.33301 -33 -3.33301 -49 -6s-32 -6.33398 -48 -11.001c-15.333 -4 -31 -8.66699 -47 -14s-30.667 -12.666 -44 -21.999c-10 -7.33301 -17.5 -16 -22.5 -26s-8.16699 -20.667 -9.5 -32s-1 -22.666 1 -33.999s4.66699 -21.666 8 -30.999
c2 -3.33301 3.16699 -5.5 3.5 -6.5s1.16602 -2.16699 2.49902 -3.5c1.33301 -2 3.33301 -5.16699 6 -9.5s3.33398 -5.83301 2.00098 -4.5l7.5 -7.5c2.33301 -2.33301 4.83301 -4.5 7.5 -6.5c6 -4.66699 9.83301 -7.33398 11.5 -8.00098s3.5 -1.66699 5.5 -3
c10.667 -6 21 -10.667 31 -14s21.667 -6.66602 35 -9.99902s26.833 -6.16602 40.5 -8.49902s27.167 -4.16602 40.5 -5.49902c0.666992 17.333 1.66699 34.666 3 51.999z" />
    <glyph glyph-name="r" unicode="r" horiz-adv-x="419" 
d="M59 407c0.666992 12.667 5.33105 22.166 13.998 28.499s18 9.5 28 9.5s18.833 -3.16699 26.5 -9.5s11.167 -15.833 10.5 -28.5c0 -4 -0.166992 -8.16699 -0.5 -12.5s-0.5 -8.5 -0.5 -12.5c21.333 10.667 43.833 19.834 67.5 27.501s47.334 12.5 71.001 14.5
s46.667 0.166992 69 -5.5s42.833 -16.5 61.5 -32.5c9.33301 -8.66699 13.5 -18 12.5 -28s-5 -18.5 -12 -25.5s-15.833 -11.333 -26.5 -13s-21 1.5 -31 9.5c-7.33301 6 -15.5 10.333 -24.5 13s-18.667 3.83398 -29 3.50098s-20.666 -1.5 -30.999 -3.5
s-20.166 -4.33301 -29.499 -7c-35.333 -11.333 -68.333 -26.333 -99 -45c1.33301 -32.667 3.33301 -65.334 6 -98.001c2.66699 -27.333 5 -55.5 7 -84.5s7.66699 -56.5 17 -82.5c4 -12 3.16699 -22.167 -2.5 -30.5s-13.334 -13.833 -23.001 -16.5s-19.667 -2 -30 2
s-17.5 12 -21.5 24c-5.33301 15.333 -9 31 -11 47l-6 48c-1.33301 15.333 -2.83301 30.833 -4.5 46.5s-3.16699 31.167 -4.5 46.5c-3.33301 36 -5.5 71.833 -6.5 107.5s-0.166992 71.5 2.5 107.5z" />
    <glyph glyph-name="s" unicode="s" horiz-adv-x="487" 
d="M83 222c-17.333 12.667 -29.667 28.501 -37 47.501s-7.66602 39.167 -0.999023 60.5c6.66699 19.333 17 36.666 31 51.999s30 27.666 48 36.999c20 10.667 41.333 19 64 25s45.667 9.33301 69 10s46.5 -1.5 69.5 -6.5s44.833 -12.833 65.5 -23.5
c11.333 -6 17.666 -14 18.999 -24s-0.5 -19.333 -5.5 -28s-12.5 -15 -22.5 -19s-20.667 -3 -32 3c-16 8.66699 -34 14.334 -54 17.001s-40.167 2.83398 -60.5 0.500977s-39.5 -7.5 -57.5 -15.5s-33 -18.333 -45 -31c-3.33301 -3.33301 -5.5 -5.66602 -6.5 -6.99902
s-2.5 -4.33301 -4.5 -9l-2 -11c2 -6 3.66699 -9.66699 5 -11c13.333 -8.66699 27.166 -14.167 41.499 -16.5s28.833 -3.83301 43.5 -4.5c20.667 -1.33301 41.834 -2.5 63.501 -3.5s42.667 -3.83301 63 -8.5s39.166 -12.334 56.499 -23.001s32 -26.334 44 -47.001
c13.333 -23.333 19.5 -47.5 18.5 -72.5s-10.833 -47.5 -29.5 -67.5s-40.334 -33.833 -65.001 -41.5s-49.667 -13.167 -75 -16.5c-22.667 -2.66699 -46.167 -3.33398 -70.5 -2.00098s-47.666 5.16602 -69.999 11.499s-43.166 16 -62.499 29s-35.333 30.167 -48 51.5
c-6 10.667 -7 20.834 -3 30.501s10.167 17 18.5 22s17.666 6.83301 27.999 5.5s18.833 -7.33301 25.5 -18c9.33301 -15.333 22.333 -27 39 -35s34.834 -13.5 54.501 -16.5s39.5 -3.66699 59.5 -2s38 4.16699 54 7.5c8.66699 2 17.5 4.83301 26.5 8.5s16.667 8.16699 23 13.5
s10.833 11.5 13.5 18.5s2.33398 14.833 -0.999023 23.5c-6.66699 16.667 -17.834 28.667 -33.501 36s-32.167 11.666 -49.5 12.999s-35 2 -53 2s-36 0.833008 -54 2.5s-35.667 4.83398 -53 9.50098s-33.333 12.334 -48 23.001z" />
    <glyph glyph-name="t" unicode="t" horiz-adv-x="398" 
d="M349 349c12.667 0 22.168 -3.99902 28.501 -11.999s9.5 -17 9.5 -27s-3.16699 -19.167 -9.5 -27.5s-15.833 -12.5 -28.5 -12.5c-16 -0.666992 -31.833 -0.5 -47.5 0.5s-31.167 2.16699 -46.5 3.5c0.666992 -52.667 -0.166016 -105.334 -2.49902 -158.001
s-7.83301 -105 -16.5 -157c-1.33301 -11.333 -7.33301 -19.666 -18 -24.999s-21 -6.33301 -31 -3c-11.333 3.33301 -19.166 9.5 -23.499 18.5s-5.5 19.167 -3.5 30.5c8 50.667 12.5 101.334 13.5 152.001s0.833008 101.667 -0.5 153l-77 12.5
c-26 4.33301 -51.667 8.16602 -77 11.499c-11.333 1.33301 -19.5 7.5 -24.5 18.5s-6.16699 21.167 -3.5 30.5c3.33301 11.333 9.66602 19.166 18.999 23.499s19.333 5.83301 30 4.5l66 -10.5c22 -3.66699 44.333 -7.16699 67 -10.5c-0.666992 3.33301 -1 8.33301 -1 15
c0 60 -0.166992 119.333 -0.5 178s2.5 118 8.5 178c1.33301 10.667 5.5 20 12.5 28s16.167 12 27.5 12c10 0 19.5 -4 28.5 -12s12.833 -17.333 11.5 -28c-6.66699 -64 -9.83398 -127.5 -9.50098 -190.5s1.16602 -126.833 2.49902 -191.5c16 -1.33301 32 -2.5 48 -3.5
s32 -1.5 48 -1.5z" />
    <glyph glyph-name="u" unicode="u" horiz-adv-x="545" 
d="M473 353c0.666992 -57.333 4.6709 -114.663 12.0039 -171.996s17 -114 29 -170c2.66699 -12.667 0.5 -23.167 -6.5 -31.5s-15.167 -13.833 -24.5 -16.5s-18.666 -2 -27.999 2s-15.333 12.333 -18 25c-8 38 -15 75.333 -21 112c-2.66699 -3.33301 -5 -6.5 -7 -9.5
s-4.33301 -6.16699 -7 -9.5c-13.333 -16 -28.666 -29.833 -45.999 -41.5s-35.833 -20.667 -55.5 -27s-39.834 -9.83301 -60.501 -10.5s-41 1.66602 -61 6.99902c-35.333 10 -62.333 27.333 -81 52s-32 52.834 -40 84.501s-12.667 64.667 -14 99s-2.33301 66.166 -3 95.499
c0 12.667 4 22.167 12 28.5s17 9.5 27 9.5s19.167 -3.16699 27.5 -9.5s12.833 -15.833 13.5 -28.5c0.666992 -26.667 1.16699 -53.667 1.5 -81s3.16602 -53 8.49902 -77c2.66699 -13.333 5.66699 -24.833 9 -34.5s8.66602 -19.834 15.999 -30.501
c3.33301 -4.66699 5.16602 -7.33398 5.49902 -8.00098s1.16602 -1.33398 2.49902 -2.00098c10 -8 16.667 -12.833 20 -14.5s7.33301 -3.16699 12 -4.5c28 -8 56.333 -7.16699 85 2.5s51.667 27.167 69 52.5c10 16 17.5 32.667 22.5 50s8.5 34.833 10.5 52.5
s3.5 35.667 4.5 54s2.83301 36.5 5.5 54.5c0 20 5.16699 33.167 15.5 39.5s21.166 8.5 32.499 6.5c6.66699 -2 12 -4.33301 16 -7l8 -7c7.33301 -12 10 -23.667 8 -35z" />
    <glyph glyph-name="v" unicode="v" horiz-adv-x="397" 
d="M111 145c-5.33301 17.333 -10.1621 35.001 -14.4951 53.001s-9.16602 35.667 -14.499 53c-7.33301 28.667 -18.333 57.334 -33 86.001l-22 44.5c-7.33301 15 -12.666 30.5 -15.999 46.5c-2.66699 12.667 -0.5 23.167 6.5 31.5s15.167 13.833 24.5 16.5
s18.666 2 27.999 -2s15.333 -12.333 18 -25c3.33301 -16 8.83301 -31 16.5 -45l22.5 -43c7.33301 -15.333 13.666 -31 18.999 -47s10.333 -32 15 -48c5.33301 -17.333 10.166 -35.166 14.499 -53.499s9.5 -36.166 15.5 -53.499c2 -6.66699 4.16699 -13.167 6.5 -19.5
l7.5 -19.5c6.66699 19.333 12 36.166 16 50.499s8.66699 28.166 14 41.499l21 59.5c6.66699 19.667 12.667 39.834 18 60.501c5.33301 19.333 9.33301 38.833 12 58.5s6.66699 39.167 12 58.5c3.33301 12 10 20 20 24s19.667 4.66699 29 2s17.166 -8.16699 23.499 -16.5
s7.83301 -18.5 4.5 -30.5c-6.66699 -22 -11.334 -44.167 -14.001 -66.5s-7.33398 -44.166 -14.001 -65.499c-6 -21.333 -12.833 -42.5 -20.5 -63.5l-22.5 -63.5l-14 -45.5c-4.66699 -15.667 -10.167 -30.834 -16.5 -45.501s-14.166 -28.334 -23.499 -41.001
s-21 -23.334 -35 -32.001c-12.667 -7.33301 -24.334 -8 -35.001 -2s-18.667 14.667 -24 26l-23.5 58c-7.66699 19.333 -14.834 38.666 -21.501 57.999z" />
    <glyph glyph-name="w" unicode="w" horiz-adv-x="662" 
d="M646 385c-4 -18.667 -8.66797 -37.168 -14.001 -55.501s-11.333 -36.5 -18 -54.5l-21 -55.5c-6.66699 -18.333 -14.667 -36.166 -24 -53.499c-8.66699 -16.667 -18 -32.834 -28 -48.501s-18.667 -32.167 -26 -49.5l-20.5 -45.5c-7 -15 -15.833 -29.167 -26.5 -42.5
c-5.33301 -6.66699 -11.333 -10.667 -18 -12s-13.167 -0.833008 -19.5 1.5s-12.333 6.16602 -18 11.499s-9.5 11 -11.5 17c-11.333 31.333 -19.666 62.833 -24.999 94.5s-12.333 63.5 -21 95.5c-2 9.33301 -4.16699 18.333 -6.5 27s-4.83301 17.334 -7.5 26.001
c-5.33301 -15.333 -11.166 -30.333 -17.499 -45s-13.166 -29.667 -20.499 -45l-24 -47c-8 -16 -16.333 -31.667 -25 -47c-7.33301 -15.333 -16 -29.5 -26 -42.5s-22 -24.167 -36 -33.5c-11.333 -7.33301 -22.833 -8 -34.5 -2s-19.5 14.667 -23.5 26
c-10 30 -19 60.5 -27 91.5l-24 93c-8 31 -16.333 61.667 -25 92s-18.667 60.5 -30 90.5c-4 10 -2.83301 19.833 3.5 29.5s14.166 16.167 23.499 19.5c11.333 3.33301 21.5 2 30.5 -4s15.167 -14 18.5 -24c18.667 -48 34 -96.333 46 -145l38 -147l6 12l21.5 43l21.5 43
c8 15.333 15.167 31.166 21.5 47.499s12.166 32.833 17.499 49.5c5.33301 16 10.333 32 15 48s7.66699 32.667 9 50c0.666992 10.667 4.5 19.334 11.5 26.001s15 10.667 24 12s17.5 -0.166992 25.5 -4.5s13.667 -12.166 17 -23.499l29 -101c10 -33.333 19 -67 27 -101
c3.33301 -14 6.33301 -27.833 9 -41.5s5.66699 -27.167 9 -40.5c7.33301 16 15.833 31.5 25.5 46.5s18.5 30.5 26.5 46.5c14.667 30 27.5 61.5 38.5 94.5s19.833 65.833 26.5 98.5c2 11.333 8.16699 19.666 18.5 24.999s20.5 6.33301 30.5 3
c11.333 -3.33301 19.333 -9.66602 24 -18.999s6 -19.333 4 -30z" />
    <glyph glyph-name="x" unicode="x" horiz-adv-x="451" 
d="M33 95l78.999 75.501c26 25 50.333 52.167 73 81.5l-62.5 77l-60.5 78c-7.33301 9.33301 -11.333 19 -12 29s3.33301 19.333 12 28c7.33301 7.33301 16.833 11.333 28.5 12s20.834 -3.33301 27.501 -12l56 -72l57 -71c13.333 23.333 26 47 38 71l37 72
c6 11.333 14.167 17.666 24.5 18.999s19.666 -0.5 27.999 -5.5s14.666 -12.5 18.999 -22.5s3.5 -20.667 -2.5 -32l-44 -85c-14 -28 -29.667 -55.667 -47 -83l77 -96l78 -96c7.33301 -8.66699 11.333 -18.167 12 -28.5s-3.33301 -19.833 -12 -28.5
c-7.33301 -7.33301 -16.666 -11.333 -27.999 -12s-20.666 3.33301 -27.999 12l-74 91.5l-74 91.5c-22 -27.333 -45.333 -53.166 -70 -77.499l-76 -72.5c-9.33301 -8.66699 -19.333 -12.334 -30 -11.001s-19.5 5.5 -26.5 12.5s-11 15.667 -12 26s3.16699 19.833 12.5 28.5z
" />
    <glyph glyph-name="y" unicode="y" horiz-adv-x="449" 
d="M424 450c9.33301 -5.33301 15.6699 -13.3369 19.0029 -24.0039s1.66602 -20.667 -5.00098 -30c-16.667 -24 -29.167 -50.333 -37.5 -79s-17.833 -56.667 -28.5 -84c-11.333 -29.333 -23.833 -57.666 -37.5 -84.999l-43.5 -83
c-1.33301 -3.33301 -2.83301 -6.16602 -4.5 -8.49902s-3.16699 -5.16602 -4.5 -8.49902c2.66699 -10.667 1.16699 -20.167 -4.5 -28.5s-13.167 -14.166 -22.5 -17.499l-82.5 -138.5l-82.5 -138.5c-6.66699 -11.333 -15.167 -17.666 -25.5 -18.999s-19.833 0.5 -28.5 5.5
s-15 12.333 -19 22s-2.66699 20.167 4 31.5l85 142.5l85 142.5c-30 54 -58.667 108.5 -86 163.5l-84 164.5c-6 11.333 -6.83301 21.833 -2.5 31.5s10.666 17 18.999 22s17.666 6.83301 27.999 5.5s18.5 -7.66602 24.5 -18.999l73 -143.5l74 -142.5
c24.667 45.333 46.667 93 66 143c10 27.333 19.5 55.166 28.5 83.499s21.833 54.166 38.5 77.499c6 9.33301 14 15.5 24 18.5s20 1.5 30 -4.5z" />
    <glyph glyph-name="z" unicode="z" horiz-adv-x="469" 
d="M404 117c12.667 0 22.3291 -3.99414 28.9961 -11.9941s10 -17 10 -27s-3.33301 -19.167 -10 -27.5s-16.334 -12.5 -29.001 -12.5c-28 -0.666992 -56 -0.666992 -84 0s-56 1 -84 1s-55.5 -0.166992 -82.5 -0.5s-54.5 1.16699 -82.5 4.5
c-10 1.33301 -18.167 4.83301 -24.5 10.5s-10.5 12.167 -12.5 19.5s-1.66699 15 1 23s8 15 16 21c28 21.333 54 44.666 78 69.999s49.667 49 77 71c14.667 12 29.5 23.333 44.5 34s29.167 22.667 42.5 36c2.66699 2.66699 5.33398 5 8.00098 7l9 7
c-42 3.33301 -83.833 5.66602 -125.5 6.99902s-83.5 6.66602 -125.5 15.999c-12.667 2.66699 -21 8.66699 -25 18s-4.66699 18.666 -2 27.999s8.33398 17.333 17.001 24s19.334 8.66699 32.001 6c26 -5.33301 52.167 -9.16602 78.5 -11.499s52.833 -4.16602 79.5 -5.49902
l80 -4c26.667 -1.33301 53 -4 79 -8c4.66699 -0.666992 9.16699 -2.83398 13.5 -6.50098s7.83301 -7.83398 10.5 -12.501s4.5 -9.66699 5.5 -15s0.5 -10.333 -1.5 -15c-7.33301 -18 -17.166 -33.333 -29.499 -46s-25.5 -25.334 -39.5 -38.001
c-14.667 -13.333 -29.334 -25.833 -44.001 -37.5l-45 -35.5c-17.333 -13.333 -33.833 -27.5 -49.5 -42.5l-46.5 -45.5c10.667 0 21.334 0.166992 32.001 0.5s21.334 0.166016 32.001 -0.500977c28 0 56 -0.166992 84 -0.5s56 -0.5 84 -0.5z" />
    <glyph glyph-name="braceleft" unicode="{" horiz-adv-x="361" 
d="M386 -6c6 -10 7.33301 -19.998 4 -29.998s-9.33301 -18.333 -18 -25c-28 -20.667 -56.167 -29.667 -84.5 -27s-54 12.5 -77 29.5s-42.667 39 -59 66s-26.5 54.5 -30.5 82.5c-3.33301 19.333 -4.33301 37.833 -3 55.5s4 35.834 8 54.501
c3.33301 15.333 6.33301 31.166 9 47.499s1 32.166 -5 47.499c-3.33301 9.33301 -8.5 16.833 -15.5 22.5s-14.5 11.167 -22.5 16.5l-31 19.5c-10 6.33301 -19.667 13.833 -29 22.5c-6 5.33301 -9.66699 11.333 -11 18s-1 13.334 1 20.001s5.5 12.5 10.5 17.5
s10.833 8.5 17.5 10.5c6.66699 2.66699 12.834 5 18.501 7s11.167 4.33301 16.5 7c3.33301 1.33301 6.33301 2.83301 9 4.5s5.33398 3.5 8.00098 5.5l13 11c1.33301 1.33301 2.16602 2.83301 2.49902 4.5s1.16602 3.16699 2.49902 4.5c2.66699 8 4.16699 13.167 4.5 15.5
s0.833008 4.5 1.5 6.5c-0.666992 0 -0.666992 2.33301 0 7s1 7.66699 1 9v19c-0.666992 7.33301 -1.16699 14.666 -1.5 21.999s-0.833008 14.666 -1.5 21.999l-4 46.5c-1.33301 15.667 -1.33301 31.167 0 46.5c1.33301 24.667 5.33301 48.5 12 71.5
s20.334 42.167 41.001 57.5c10.667 8 22.167 13.5 34.5 16.5s25 4.83301 38 5.5s26 0.166992 39 -1.5s25.5 -3.5 37.5 -5.5c11.333 -1.33301 19.5 -7.33301 24.5 -18s6.16699 -21 3.5 -31c-3.33301 -11.333 -9.66602 -19.166 -18.999 -23.499s-19.333 -5.83301 -30 -4.5
c-6.66699 1.33301 -13.167 2.33301 -19.5 3l-19.5 2h-8.5c-2.33301 0 -5.16602 -0.333008 -8.49902 -1c-10 -1.33301 -16.667 -2.66602 -20 -3.99902l-10 -6c-2.66699 -3.33301 -4.83398 -6.83301 -6.50098 -10.5s-2.16699 -4.5 -1.5 -2.5
c-0.666992 -1.33301 -1.16699 -3 -1.5 -5s-0.833008 -3.66699 -1.5 -5c-0.666992 -3.33301 -1.66699 -7.66602 -3 -12.999c0 -0.666992 -0.166992 -2.5 -0.5 -5.5s-0.5 -5.16699 -0.5 -6.5c-1.33301 -13.333 -1.83301 -26.833 -1.5 -40.5s1.16602 -27.167 2.49902 -40.5
c0.666992 -13.333 1.66699 -27 3 -41s2 -28 2 -42s-1.16699 -27.833 -3.5 -41.5s-6.5 -26.834 -12.5 -39.501c-5.33301 -11.333 -12.333 -21.166 -21 -29.499s-18 -15.833 -28 -22.5c9.33301 -6 18.333 -12.667 27 -20s16.334 -16 23.001 -26
c9.33301 -15.333 15.666 -30.5 18.999 -45.5s4.66602 -30.167 3.99902 -45.5s-2.5 -30.833 -5.5 -46.5s-5.83301 -31.5 -8.5 -47.5c-4.66699 -24.667 -4.16699 -49.834 1.5 -75.501s17.167 -47.834 34.5 -66.501c15.333 -16.667 30.5 -26.667 45.5 -30s31.5 1.66699 49.5 15
c9.33301 6.66699 19.5 8.16699 30.5 4.5s19.167 -9.83398 24.5 -18.501z" />
    <glyph glyph-name="bar" unicode="|" horiz-adv-x="236" 
d="M95 721c0 12.667 4.16797 22.3359 12.501 29.0029s17.5 10 27.5 10s19 -3.33301 27 -10s12 -16.334 12 -29.001c0 -60.667 -2.66699 -121.167 -8 -181.5s-8.66602 -120.833 -9.99902 -181.5c-0.666992 -30 -0.666992 -59.833 0 -89.5s-1 -59.5 -5 -89.5
c-3.33301 -28 -7.5 -55.5 -12.5 -82.5s-7.5 -54.5 -7.5 -82.5c0 -13.333 -4.16699 -23.166 -12.5 -29.499s-17.5 -9.5 -27.5 -9.5s-19.167 3.16699 -27.5 9.5s-12.5 16.166 -12.5 29.499c0.666992 29.333 3.66699 58.166 9 86.499s9.66602 57.166 12.999 86.499
c3.33301 28.667 4.5 57.167 3.5 85.5s-0.833008 56.833 0.5 85.5c1.33301 60.667 4.66602 121.167 9.99902 181.5s8 120.833 8 181.5z" />
    <glyph glyph-name="braceright" unicode="}" horiz-adv-x="391" 
d="M-5 770c-6 10 -7.33301 19.8271 -4 29.4941s9.66602 17.834 18.999 24.501c28 20.667 56 29.834 84 27.501s53.5 -12 76.5 -29s42.667 -39 59 -66s26.5 -54.5 30.5 -82.5c3.33301 -19.333 4.33301 -37.833 3 -55.5s-4 -35.834 -8 -54.501
c-3.33301 -16 -6.33301 -32 -9 -48s-1 -31.667 5 -47c4 -10 9.33301 -17.833 16 -23.5s14.334 -11.167 23.001 -16.5c10 -6 20 -12.333 30 -19s19.667 -14 29 -22c6 -5.33301 9.66699 -11.333 11 -18s1 -13.334 -1 -20.001s-5.5 -12.667 -10.5 -18s-10.833 -9 -17.5 -11
s-12.834 -4 -18.501 -6s-11.167 -4.33301 -16.5 -7c-3.33301 -1.33301 -6.33301 -2.83301 -9 -4.5s-5.33398 -3.5 -8.00098 -5.5l-12 -11l-6 -9c-2.66699 -8.66699 -4.16699 -14 -4.5 -16s-0.5 -4.33301 -0.5 -7c0 0.666992 -0.166992 -1.33301 -0.5 -6
s-0.5 -7.66699 -0.5 -9c-0.666992 -6.66699 -0.666992 -13 0 -19c0 -15.333 1 -30.333 3 -45c1.33301 -15.333 2.5 -30.666 3.5 -45.999s1.16699 -30.666 0.5 -45.999c-1.33301 -24.667 -5.33301 -48.5 -12 -71.5s-20.667 -42.167 -42 -57.5
c-10.667 -8 -22.167 -13.667 -34.5 -17s-25 -5.16602 -38 -5.49902s-26 0.166992 -39 1.5s-25.5 3 -37.5 5c-10.667 2 -18.667 8.33301 -24 19s-6.66602 20.667 -3.99902 30c3.33301 11.333 9.66602 19.333 18.999 24s19.333 6 30 4
c6.66699 -1.33301 13.167 -2.33301 19.5 -3s12.833 -1 19.5 -1h17l20 4c5.33301 3.33301 8.66602 5.66602 9.99902 6.99902c2.66699 3.33301 4.83398 6.66602 6.50098 9.99902s2.16699 4 1.5 2c0.666992 2 1.16699 3.83301 1.5 5.5s0.833008 3.5 1.5 5.5
c1.33301 5.33301 2.33301 9.66602 3 12.999c0 4.66699 0.166992 7.5 0.5 8.5s0.5 1.83301 0.5 2.5c1.33301 13.333 1.83301 27 1.5 41s-1.16602 27.667 -2.49902 41s-2.5 27 -3.5 41s-1.5 27.833 -1.5 41.5s1.16699 27.334 3.5 41.001s6.5 26.834 12.5 39.501
c5.33301 11.333 12.333 21.333 21 30s18.334 16.334 29.001 23.001c-10 6 -19.333 12.667 -28 20s-16.334 16 -23.001 26c-9.33301 14.667 -15.666 29.5 -18.999 44.5s-4.83301 30.333 -4.5 46s2 31.334 5 47.001l9.5 47.5c4.66699 24 4.16699 48.833 -1.5 74.5
s-17.167 48.167 -34.5 67.5c-15.333 16 -30.5 25.833 -45.5 29.5s-31.5 -1.16602 -49.5 -14.499c-9.33301 -6.66699 -19.5 -8.16699 -30.5 -4.5s-19.167 9.83398 -24.5 18.501z" />
    <glyph glyph-name="asciitilde" unicode="~" horiz-adv-x="541" 
d="M453 341c8.66699 9.33301 18.1709 13.334 28.5039 12.001s19 -5.5 26 -12.5s11.167 -15.667 12.5 -26s-2.33398 -20.166 -11.001 -29.499c-14.667 -15.333 -30 -29.833 -46 -43.5s-33 -24.834 -51 -33.501s-37 -13.834 -57 -15.501s-41 2.16602 -63 11.499
c-20 8.66699 -38.667 20 -56 34s-36.333 24.667 -57 32c-18.667 6.66699 -35.834 7.83398 -51.501 3.50098s-31.834 -11.833 -48.501 -22.5c-10.667 -7.33301 -20.834 -9 -30.501 -5s-17 10.167 -22 18.5s-6.83301 17.833 -5.5 28.5s7.33301 19.667 18 27
c18.667 11.333 38.5 20.833 59.5 28.5s42.833 9.83398 65.5 6.50098c21.333 -2.66699 41.666 -8.83398 60.999 -18.501s37.666 -21.167 54.999 -34.5c14.667 -10.667 29.834 -19.167 45.501 -25.5s31.834 -6.5 48.501 -0.5c15.333 6 29.5 15.333 42.5 28z" />
    <glyph glyph-name="uni00A0" unicode="&#xa0;" horiz-adv-x="317" 
 />
    <glyph glyph-name="exclamdown" unicode="&#xa1;" horiz-adv-x="212" 
d="M124 664c-8.66699 4.66699 -15.332 12.332 -19.999 22.999s-5.33398 20.667 -2.00098 30c4 10.667 10.333 19 19 25c7.33301 8 16.833 11.833 28.5 11.5s21.167 -4.16602 28.5 -11.499c8 -6 14.333 -12.333 19 -19c5.33301 -9.33301 6.83301 -18.833 4.5 -28.5
s-7.5 -17.5 -15.5 -23.5l-5.5 -5.5c-1.66699 -1.66699 -3.83398 -3.16699 -6.50098 -4.5c-5.33301 -2.66699 -8.66602 -4 -9.99902 -4s-5 -0.333008 -11 -1c-2 -0.666992 -4.33301 -0.666992 -7 0s-4.66699 1 -6 1c-4.66699 0.666992 -10 3 -16 7zM133.002 17.998
c0 -12.667 -4.16602 -22.168 -12.499 -28.501s-17.5 -9.5 -27.5 -9.5s-19.167 3.16699 -27.5 9.5s-12.5 15.833 -12.5 28.5c0 44 -0.333008 88.167 -1 132.5s-0.5 88.666 0.5 132.999s3.66699 88.333 8 132s11.833 87.167 22.5 130.5c2.66699 12.667 8.83398 21 18.501 25
s19.167 4.66699 28.5 2s17.166 -8.16699 23.499 -16.5s8.16602 -18.833 5.49902 -31.5c-10 -41.333 -17 -83.166 -21 -125.499s-6.5 -84.666 -7.5 -126.999s-0.833008 -84.833 0.5 -127.5s2 -85 2 -127z" />
    <glyph glyph-name="cent" unicode="&#xa2;" horiz-adv-x="421" 
d="M345 268c9.33301 7.33301 19.501 9.00586 30.501 5.00586s19.167 -10.333 24.5 -19c6 -10 7.33301 -19.833 4 -29.5s-9.33301 -17.834 -18 -24.501c-18.667 -14 -39.167 -23 -61.5 -27s-45.166 -4.66699 -68.499 -2c-5.33301 -49.333 -9.33301 -98.333 -12 -147
c-0.666992 -12.667 -5.33398 -22.334 -14.001 -29.001s-18 -10 -28 -10s-18.833 3.16699 -26.5 9.5s-11.167 16.166 -10.5 29.499c1.33301 28 3 55.5 5 82.5s4.66699 54.5 8 82.5c-5.33301 1.33301 -10.5 3.16602 -15.5 5.49902s-10.167 4.5 -15.5 6.5
c-18.667 8.66699 -37.167 19.667 -55.5 33s-34.166 28.666 -47.499 45.999s-23.166 36.333 -29.499 57s-6.5 42.334 -0.5 65.001c4 15.333 11 29.5 21 42.5s20.667 25.167 32 36.5c28 26 57 48.667 87 68l12 8l12 8c-3.33301 23.333 -7 46.5 -11 69.5l-12 69.5
c-1.33301 10.667 0.166992 20.667 4.5 30s12.166 15.666 23.499 18.999c9.33301 2.66699 19.333 1.5 30 -3.5s17 -13.167 19 -24.5l21 -120c14 6 28.333 11 43 15s29.667 6 45 6c12.667 0 22.167 -4.16699 28.5 -12.5s9.5 -17.5 9.5 -27.5s-3.16699 -19.167 -9.5 -27.5
s-15.833 -12.5 -28.5 -12.5c-9.33301 -0.666992 -15.333 -1.33398 -18 -2.00098s-5.66699 -1.33398 -9 -2.00098c-5.33301 -2 -11 -4 -17 -6s-10.667 -4 -14 -6c-3.33301 -1.33301 -6.33301 -2.66602 -9 -3.99902s-5.66699 -2.66602 -9 -3.99902
c3.33301 -25.333 5.83301 -50.833 7.5 -76.5s2.5 -51.167 2.5 -76.5c-0.666992 -20 -1.83398 -39.833 -3.50098 -59.5s-3.83398 -39.5 -6.50098 -59.5h10c14 -0.666992 26.5 0.166016 37.5 2.49902s21.833 7.5 32.5 15.5zM188.001 270.006c2 16 3.66699 32.168 5 48.501
s2 33.166 2 50.499c0 18 -0.5 36 -1.5 54s-2.16699 36 -3.5 54c-10 -6.66699 -19.667 -13.5 -29 -20.5s-18.333 -14.5 -27 -22.5l-24.5 -24.5c-7 -7 -12.833 -15.5 -17.5 -25.5c-0.666992 -7.33301 -1.16699 -12 -1.5 -14s0.166992 -4.33301 1.5 -7
c1.33301 -7.33301 3.33301 -14.333 6 -21s6.66699 -12.667 12 -18c21.333 -24 47 -42 77 -54h1z" />
    <glyph glyph-name="sterling" unicode="&#xa3;" horiz-adv-x="628" 
d="M568 94c10.667 -1.33301 20.0049 -5.49707 28.0049 -12.4971s12 -16.167 12 -27.5c0 -10 -4 -19.333 -12 -28s-17.333 -12.334 -28 -11.001c-44 3.33301 -88.167 5 -132.5 5s-88.666 0.333008 -132.999 1s-88.5 2.66699 -132.5 6s-87.667 10.666 -131 21.999
c-8.66699 2 -15.667 6.66699 -21 14s-8 15.333 -8 24c0 10 2.83301 18.167 8.5 24.5s12.5 11.166 20.5 14.499l11.5 4l10.5 4l53.5 22c20.333 8.66699 39.5 18.667 57.5 30s33.667 24.5 47 39.5s20.666 32.167 21.999 51.5c0.666992 10 0.5 19.667 -0.5 29
s-2.16699 18.666 -3.5 27.999h-149c-13.333 0 -23.166 4.16699 -29.499 12.5s-9.5 17.5 -9.5 27.5s3.16699 19.167 9.5 27.5s16.166 12.5 29.499 12.5h125c-7.33301 21.333 -14 42.5 -20 63.5s-9.33301 42.5 -10 64.5c-0.666992 24.667 3 49.167 11 73.5
s21.667 44.833 41 61.5c20 17.333 42.167 30.833 66.5 40.5s49.833 15.167 76.5 16.5c22.667 1.33301 45.667 0 69 -4s44.666 -13 63.999 -27c18.667 -14 33.834 -30.667 45.501 -50s22.167 -39.666 31.5 -60.999c4.66699 -10 6 -20.167 4 -30.5s-8 -18.166 -18 -23.499
c-8.66699 -5.33301 -18.834 -6.83301 -30.501 -4.5s-19.834 8.5 -24.501 18.5l-14.5 32c-5 10.667 -10.833 21 -17.5 31c-4.66699 6 -9.33398 11.5 -14.001 16.5s-10.334 9.16699 -17.001 12.5c-15.333 7.33301 -33.666 11.166 -54.999 11.499
s-40.666 -2.16699 -57.999 -7.5c-20.667 -6.66699 -38.334 -16.334 -53.001 -29.001s-23.667 -29.667 -27 -51c-2.66699 -19.333 -1.33398 -39.166 3.99902 -59.499s10.666 -39.5 15.999 -57.5l6 -18c2 -6 4 -12.333 6 -19h141c12.667 0 22.167 -4.16699 28.5 -12.5
s9.5 -17.5 9.5 -27.5s-3.16699 -19.167 -9.5 -27.5s-15.833 -12.5 -28.5 -12.5h-120c4.66699 -25.333 5.33398 -50.333 2.00098 -75s-13.333 -48.667 -30 -72c-13.333 -17.333 -28.333 -32.666 -45 -45.999s-34.667 -25.333 -54 -36
c62.667 -5.33301 125.667 -7.33301 189 -6s126.666 -0.333984 189.999 -5.00098z" />
    <glyph glyph-name="currency" unicode="&#xa4;" horiz-adv-x="522" 
d="M447 574c10.667 6.66699 20.833 8.00195 30.5 4.00195s17 -10.333 22 -19s6.83301 -18.167 5.5 -28.5s-7.33301 -18.833 -18 -25.5l-49 -32.5c-16 -11 -31.667 -22.5 -47 -34.5c14 -25.333 22.667 -53.333 26 -84c1.33301 -19.333 0.166016 -38.833 -3.50098 -58.5
s-10.167 -37.834 -19.5 -54.501c13.333 -14 25.5 -29.167 36.5 -45.5s23.167 -31.5 36.5 -45.5c8.66699 -9.33301 12.334 -19.166 11.001 -29.499s-5.5 -19 -12.5 -26s-15.667 -11.167 -26 -12.5s-19.833 2.66699 -28.5 12c-14.667 14.667 -27.5 30.334 -38.5 47.001
s-23.833 32 -38.5 46c-23.333 -10 -47.5 -17.333 -72.5 -22s-50.167 -2.33398 -75.5 6.99902c-6 2.66699 -12 5.5 -18 8.5s-11.667 6.83301 -17 11.5l-44 -37.5c-14.667 -12.333 -30.334 -23.5 -47.001 -33.5c-11.333 -6.66699 -21.833 -8 -31.5 -4s-17 10.333 -22 19
s-7 18.167 -6 28.5s7.16699 18.833 18.5 25.5c15.333 9.33301 29.333 19.166 42 29.499l39 32.5c-2.66699 6 -5 12.667 -7 20c-5.33301 21.333 -6.33301 43 -3 65s9 43 17 63l10 23c3.33301 8 7.33301 16 12 24c-14 13.333 -27 28 -39 44s-21.667 32.667 -29 50
c-4.66699 10 -6 20.167 -4 30.5s8 18.5 18 24.5c9.33301 5.33301 19.666 6.66602 30.999 3.99902s19.333 -9 24 -19c6 -13.333 13.833 -26.833 23.5 -40.5s19.834 -26.167 30.501 -37.5c17.333 8.66699 36.833 14 58.5 16s41.834 -0.333008 60.501 -7
c6 -2 11.833 -4.33301 17.5 -7s11.167 -5.66699 16.5 -9l54 40.5c18 13 36.667 25.5 56 37.5zM337.999 347.002c-0.666992 6 -1.33398 9.33398 -2.00098 10.001l-2 10.5c-0.666992 3.66699 -1.66699 7.16699 -3 10.5c0 1.33301 -1 4 -3 8s-2.33301 5 -1 3
c-2 6.66699 -5 12.334 -9 17.001l-6 8c-1.33301 2 -3.66602 4.66699 -6.99902 8c-8 6 -13.667 9.66699 -17 11c-5.33301 2.66699 -9.66602 4 -12.999 4l-12 2h-12c-6.66699 -0.666992 -11.167 -1.16699 -13.5 -1.5s-4.5 -0.833008 -6.5 -1.5
c-7.33301 -3.33301 -11.5 -5.33301 -12.5 -6s-2.16699 -1.66699 -3.5 -3c-4.66699 -4.66699 -7.83398 -8 -9.50098 -10s-3.16699 -4.33301 -4.5 -7c-9.33301 -14 -16.833 -29.333 -22.5 -46s-8.83398 -32.667 -9.50098 -48c-0.666992 -12.667 1.83301 -24.834 7.5 -36.501
s15.167 -21.167 28.5 -28.5c10.667 -6 24 -8.66699 40 -8c10 0.666992 19.667 2.5 29 5.5s18.333 6.5 27 10.5c6.66699 4 10.667 6.66699 12 8l16 21c4.66699 13.333 7.33398 22.666 8.00098 27.999c0 3.33301 0.166992 5.5 0.5 6.5s0.5 2.16699 0.5 3.5v21z" />
    <glyph glyph-name="yen" unicode="&#xa5;" horiz-adv-x="556" 
d="M471 691c6.66699 10.667 15.332 16.666 25.999 17.999s20.167 -0.5 28.5 -5.5s14.333 -12.333 18 -22s2.16699 -19.834 -4.5 -30.501l-49.5 -81l-50.5 -81c-17.333 -26.667 -36 -52.167 -56 -76.5s-42 -46.833 -66 -67.5c-0.666992 -8 -1.16699 -16.167 -1.5 -24.5
s-0.5 -16.5 -0.5 -24.5c17.333 0.666992 34.666 1.66699 51.999 3s34.666 3 51.999 5c11.333 1.33301 21.5 0 30.5 -4s15.167 -11.667 18.5 -23c2.66699 -9.33301 1.5 -19.5 -3.5 -30.5s-13.167 -17.167 -24.5 -18.5c-21.333 -3.33301 -42.5 -5.66602 -63.5 -6.99902
l-63.5 -4c-0.666992 -9.33301 -1 -18.333 -1 -27v-27c13.333 -1.33301 26.333 -2.33301 39 -3l39 -2c12.667 -0.666992 22.334 -5.33398 29.001 -14.001s10 -18 10 -28s-3.33301 -19 -10 -27s-16.334 -11.667 -29.001 -11c-26 1.33301 -51.333 3.33301 -76 6
c0 -20 1 -40 3 -60c0.666992 -10.667 -3.33301 -20 -12 -28s-18 -12 -28 -12c-11.333 0 -20.5 4 -27.5 12s-11.167 17.333 -12.5 28c-2 22 -3 44 -3 66c-15.333 1.33301 -30.166 2.33301 -44.499 3s-28.833 1 -43.5 1c-12.667 0 -22.167 4.16699 -28.5 12.5
s-9.5 17.5 -9.5 27.5s3.16699 19 9.5 27s15.833 12 28.5 12c29.333 0 58 -1 86 -3c0 7.33301 0.166992 15 0.5 23s0.5 15.667 0.5 23c-11.333 0.666992 -22.833 1 -34.5 1s-23.5 0.333008 -35.5 1c-12.667 0.666992 -22.167 5.33398 -28.5 14.001s-9.5 18 -9.5 28
s3.16699 19 9.5 27s15.833 11.667 28.5 11c12 -0.666992 24 -1.16699 36 -1.5s24 -0.5 36 -0.5c0 3.33301 0.166992 6.16602 0.5 8.49902s0.5 5.16602 0.5 8.49902c-2.66699 1.33301 -4.83398 3.16602 -6.50098 5.49902s-3.16699 4.83301 -4.5 7.5
c-19.333 21.333 -36.166 44 -50.499 68s-27.5 49.333 -39.5 76c-5.33301 12.667 -11 25.334 -17 38.001s-13.667 24.334 -23 35.001c-20 24 -45 43.667 -75 59c-11.333 6 -17.833 14 -19.5 24s0 19.333 5 28s12.5 15.167 22.5 19.5s20.667 3.5 32 -2.5
c32.667 -17.333 60.334 -38.666 83.001 -63.999s41.667 -54.666 57 -87.999l28 -60.5c9.33301 -19.667 21 -38.167 35 -55.5c22.667 18.667 43.334 39.5 62.001 62.5s36.167 47.167 52.5 72.5s32 51 47 77s30.5 51.333 46.5 76z" />
    <glyph glyph-name="brokenbar" unicode="&#xa6;" horiz-adv-x="205" 
d="M74 721c0 12.667 4.16699 22.334 12.5 29.001s17.5 10 27.5 10s19.167 -3.33301 27.5 -10s12.5 -16.334 12.5 -29.001c0 -44 -0.5 -88 -1.5 -132s-4.16699 -88 -9.5 -132c-1.33301 -11.333 -5.33301 -20.833 -12 -28.5s-16 -11.5 -28 -11.5
c-10 0 -19.5 3.83301 -28.5 11.5s-12.833 17.167 -11.5 28.5c5.33301 44 8.5 88 9.5 132s1.5 88 1.5 132zM56 282c0 12.667 4 22.167 12 28.5s17 9.5 27 9.5s19.333 -3.16699 28 -9.5s13 -15.833 13 -28.5c0.666992 -22.667 -0.333008 -45.167 -3 -67.5
s-5.66699 -44.5 -9 -66.5s-6.5 -44.167 -9.5 -66.5s-4.5 -44.833 -4.5 -67.5c0 -13.333 -4.16699 -23.166 -12.5 -29.499s-17.5 -9.5 -27.5 -9.5s-19 3.16699 -27 9.5s-12 16.166 -12 29.499c0 22.667 1.33301 45.167 4 67.5s5.66699 44.5 9 66.5s6.33301 44.167 9 66.5
s3.66699 44.833 3 67.5z" />
    <glyph glyph-name="section" unicode="&#xa7;" horiz-adv-x="508" 
d="M426 -29c-18.667 -15.333 -38.9971 -26.667 -60.9971 -34s-45 -9.66602 -69 -6.99902s-46.833 7.83398 -68.5 15.501s-43 16.667 -64 27s-41.667 21.333 -62 33l-61.5 34.5c-11.333 6 -17.666 14.167 -18.999 24.5s0.5 19.833 5.5 28.5s12.333 15 22 19s20.167 3 31.5 -3
l94.5 -54c31.667 -18.667 65.167 -32.334 100.5 -41.001c17.333 -4 34.666 -5.5 51.999 -4.5s32.666 8.16699 45.999 21.5c7.33301 7.33301 14.333 15.833 21 25.5s11 19.834 13 30.501c0.666992 5.33301 0.666992 9.66602 0 12.999s-0.666992 3.33301 0 0
c-1.33301 4.66699 -2 7.5 -2 8.5s-1.66699 3.83301 -5 8.5c-1.33301 2.66699 -3.83301 5.5 -7.5 8.5s-7.16699 6.16699 -10.5 9.5c-2.66699 2 -6.16699 4.33301 -10.5 7l-11.5 7c-17.333 9.33301 -37.333 17.666 -60 24.999l-70 21c-23.333 6.66699 -46.333 15 -69 25
c-17.333 7.33301 -32.833 16.833 -46.5 28.5s-24.167 26.5 -31.5 44.5c-6.66699 18 -9 38 -7 60s6.66699 41.667 14 59c8.66699 21.333 19.5 39.833 32.5 55.5s28.167 29.167 45.5 40.5c-19.333 6 -38 13 -56 21s-33 20 -45 36s-17.5 35.333 -16.5 58s7.16699 42 18.5 58
s24.833 29.667 40.5 41s32.5 21 50.5 29c40.667 18.667 84 33.5 130 44.5s91.667 14.833 137 11.5c12.667 -0.666992 22.167 -5.33398 28.5 -14.001s9.5 -18 9.5 -28s-3.16699 -19 -9.5 -27s-15.833 -11.667 -28.5 -11c-23.333 1.33301 -46.666 0.5 -69.999 -2.5
s-46.333 -7.16699 -69 -12.5c-20.667 -5.33301 -41 -11.333 -61 -18s-39 -15.667 -57 -27c-2.66699 -1.33301 -5.16699 -2.83301 -7.5 -4.5l-7.5 -5.5c-4.66699 -3.33301 -7.66699 -5.66602 -9 -6.99902l-4 -4c-4.66699 -5.33301 -7.16699 -8.5 -7.5 -9.5
s-1.16602 -3.83301 -2.49902 -8.5l-1 -14c3.33301 -5.33301 5.33301 -8 6 -8l9 -6c5.33301 -2.66699 12 -5.16699 20 -7.5s16 -4.83301 24 -7.5c14 -4 28 -8.33301 42 -13s27.667 -9.66699 41 -15c7.33301 2.66699 14.333 4.83398 21 6.50098l21 5.5
c9.33301 2 17.5 1.5 24.5 -1.5s12.667 -7.66699 17 -14s6.83301 -13.333 7.5 -21s-0.333008 -14.834 -3 -21.501c14 -9.33301 27.167 -20 39.5 -32s22.666 -25 30.999 -39s14 -28.833 17 -44.5s2.16699 -32.167 -2.5 -49.5c-7.33301 -26.667 -20.833 -48 -40.5 -64
s-41.834 -28.667 -66.501 -38c17.333 -6 34.5 -13.167 51.5 -21.5s32.5 -18 46.5 -29s25.5 -24 34.5 -39s14.167 -32.167 15.5 -51.5c0.666992 -12 -0.5 -24.167 -3.5 -36.5s-7.33301 -24.333 -13 -36s-12.334 -22.5 -20.001 -32.5s-15.834 -19 -24.501 -27z
M310.003 317.999c10 3.33301 18.665 7.33691 25.998 12.0039l11 7c2 1.33301 4.33301 3.66602 7 6.99902c5.33301 5.33301 8.33301 8.66602 9 9.99902s1.66699 2.66602 3 3.99902c2 5.33301 3.16699 8.33301 3.5 9s0.5 1.66699 0.5 3c0 6.66699 -0.166992 10.667 -0.5 12
s-0.5 2.33301 -0.5 3c-1.33301 4.66699 -2.83301 8.5 -4.5 11.5s-2.5 4.83301 -2.5 5.5l-6 9c-8 8.66699 -13.333 14 -16 16c-7.33301 7.33301 -15.166 13.666 -23.499 18.999s-17.166 10.666 -26.499 15.999c-3.33301 2 -6.83301 3.83301 -10.5 5.5
s-7.16699 3.16699 -10.5 4.5c-26 -9.33301 -49.333 -22.333 -70 -39s-33.667 -38.667 -39 -66c-1.33301 -5.33301 -2.33301 -10 -3 -14s-1 -8.33301 -1 -13v-13c1.33301 -3.33301 2.33301 -6.16602 3 -8.49902s0.666992 -2.83301 0 -1.5l3.5 -3.5c1 -1 2 -2.16699 3 -3.5
s1.83301 -2.5 2.5 -3.5s0.666992 -1.16699 0 -0.5c5.33301 -3.33301 11 -6.66602 17 -9.99902s12 -6.33301 18 -9c7.33301 7.33301 17 11.666 29 12.999c26.667 2.66699 52.667 8.66699 78 18z" />
    <glyph glyph-name="dieresis" unicode="&#xa8;" 
d="M244 712c6 -4.66699 9.66797 -11.334 11.001 -20.001c1.33301 -5.33301 2 -9.33301 2 -12s-0.666992 -6.66699 -2 -12l-10 -27c-5.33301 -10 -13.5 -16.167 -24.5 -18.5s-21.167 -0.833008 -30.5 4.5c-8.66699 4.66699 -14.667 12.334 -18 23.001
c-0.666992 6 -1.66699 9.66699 -3 11c-5.33301 10 -6.66602 20 -3.99902 30c2.66699 9.33301 9 17.333 19 24c4 3.33301 8.66699 6 14 8s10.666 2.66699 15.999 2s9.16602 -1.16699 11.499 -1.5s5.5 -1.83301 9.5 -4.5s7 -5 9 -7zM380.001 704
c9.33301 -5.33301 15.332 -13.5 17.999 -24.5s1.33398 -21.167 -3.99902 -30.5c-3.33301 -5.33301 -7 -10 -11 -14c-6 -6 -12.667 -10.333 -20 -13c-9.33301 -3.33301 -18.5 -2.83301 -27.5 1.5s-16.167 10.5 -21.5 18.5c-4 6.66699 -6.5 13.5 -7.5 20.5
s-1.5 14.167 -1.5 21.5c0 11.333 3.83301 20.833 11.5 28.5s17.167 11.5 28.5 11.5c15.333 0 27 -6.66699 35 -20z" />
    <glyph glyph-name="copyright" unicode="&#xa9;" horiz-adv-x="706" 
d="M459 334c10.667 2 20.6631 0.835938 29.9961 -3.49707s15.666 -12.166 18.999 -23.499c2.66699 -10 1.5 -20.333 -3.5 -31s-13.167 -16.667 -24.5 -18c-18 -3.33301 -36.833 -6 -56.5 -8s-39.167 -2.83301 -58.5 -2.5s-38.5 2.33301 -57.5 6s-36.833 10.167 -53.5 19.5
c-22 11.333 -40 27.666 -54 48.999s-20.333 44.666 -19 69.999c2 28.667 10 55.167 24 79.5s31.667 45.833 53 64.5s45.166 34.167 71.499 46.5s52.5 21.166 78.5 26.499c12.667 2.66699 23.167 0.666992 31.5 -6s13.833 -14.834 16.5 -24.501s2 -19.167 -2 -28.5
s-12.333 -15.333 -25 -18c-24 -5.33301 -46.5 -12.833 -67.5 -22.5s-39.167 -21.834 -54.5 -36.501l-10 -10.5l-10 -11.5c0 -0.666992 -1 -2.16699 -3 -4.5s-3.33301 -4.16602 -4 -5.49902l-4 -6l-4 -6c-0.666992 -1.33301 -1.66699 -3.66602 -3 -6.99902
s-1.66602 -4.33301 -0.999023 -3c-3.33301 -9.33301 -5.66602 -16.666 -6.99902 -21.999v-15c0.666992 -4.66699 1.66699 -8.33398 3 -11.001c2.66699 -6 4.66699 -9.66699 6 -11c4 -4.66699 7.33301 -8 10 -10c6.66699 -4.66699 12.334 -7.66699 17.001 -9
c8.66699 -3.33301 14.334 -5.33301 17.001 -6s5.66699 -1.33398 9 -2.00098c7.33301 -2 13 -3.16699 17 -3.5s10.333 -0.833008 19 -1.5c16.667 -1.33301 33.334 -1.33301 50.001 0s33.334 3.33301 50.001 6zM561.996 665.003c18 -17.333 34.499 -36.165 49.499 -56.498
s28 -42 39 -65s19.5 -46.833 25.5 -71.5s9 -49.334 9 -74.001c0 -48.667 -11 -95.334 -33 -140.001s-53.667 -81 -95 -109c-24 -16 -49.833 -28.333 -77.5 -37s-56.167 -14.334 -85.5 -17.001s-58.666 -2.5 -87.999 0.5s-57.333 8.16699 -84 15.5
c-33.333 10.667 -62 27.167 -86 49.5s-44.667 46.5 -62 72.5c-18.667 29.333 -33.334 61 -44.001 95s-12.667 68.667 -6 104c6.66699 34.667 17.167 68.334 31.5 101.001s32.5 62.334 54.5 89.001s47.333 49.667 76 69s61 33.666 97 42.999
c50.667 13.333 100.334 14.333 149.001 3s92 -35.333 130 -72zM521.995 221.004c30 24.667 52.666 55.501 67.999 92.501s20 75.167 14 114.5c-3.33301 20.667 -9.33301 41.667 -18 63s-19.167 41.5 -31.5 60.5s-26.666 36.5 -42.999 52.5s-33.833 29 -52.5 39
c-19.333 10 -40 16.667 -62 20s-44.167 3.5 -66.5 0.5s-43.833 -8.83301 -64.5 -17.5s-39.334 -20 -56.001 -34c-18 -15.333 -33.833 -32.333 -47.5 -51s-25.167 -38.667 -34.5 -60c-9.33301 -19.333 -16.833 -40 -22.5 -62s-7.16699 -43.667 -4.5 -65
c2.66699 -18.667 8.33398 -37.834 17.001 -57.501s19.5 -38.334 32.5 -56.001s27.333 -33 43 -46s32.167 -21.833 49.5 -26.5c26 -7.33301 52.5 -12.166 79.5 -14.499s53.833 -0.833008 80.5 4.5c20.667 3.33301 41.5 8 62.5 14s39.833 15.667 56.5 29z" />
    <glyph glyph-name="ordfeminine" unicode="&#xaa;" horiz-adv-x="409" 
d="M375 640c2.66699 -25.333 3.83301 -50.6641 3.5 -75.9971s-1 -50.666 -2 -75.999s-2.16699 -50.833 -3.5 -76.5s-1.33301 -51.167 0 -76.5c0.666992 -12 -2.66602 -21.167 -9.99902 -27.5s-15.5 -9.83301 -24.5 -10.5s-17.833 1.5 -26.5 6.5s-14.334 12.833 -17.001 23.5
c-30.667 -12.667 -62.834 -19.834 -96.501 -21.501s-65.834 3.83301 -96.501 16.5c-20.667 8.66699 -37.167 20.5 -49.5 35.5s-21 31.833 -26 50.5s-6.83301 38.167 -5.5 58.5s5.33301 40.166 12 59.499c5.33301 14.667 11.333 29.667 18 45s14.834 29.666 24.501 42.999
s20.834 24.666 33.501 33.999s27.667 15.333 45 18c24.667 3.33301 49 4 73 2s47.333 -7.33301 70 -16c2 8 6.83301 14.667 14.5 20s15.5 8 23.5 8c12 0 21.333 -3.83301 28 -11.5s10.667 -17.167 12 -28.5zM293.999 416.002c0.666992 24.667 1.66699 49.1689 3 73.502
s2 48.833 2 73.5c-8.66699 5.33301 -17.5 10.166 -26.5 14.499s-18.833 7.16602 -29.5 8.49902c-11.333 1.33301 -23 2.5 -35 3.5s-23.667 0.833008 -35 -0.5c-5.33301 -0.666992 -10.5 -1.83398 -15.5 -3.50098s-9.16699 -5.16699 -12.5 -10.5c-14 -20 -25 -41.667 -33 -65
c-3.33301 -10 -6.33301 -21 -9 -33s-3.5 -23.667 -2.5 -35s4.33301 -21.333 10 -30s15.5 -15 29.5 -19c27.333 -7.33301 54 -9.16602 80 -5.49902s50.667 13.167 74 28.5z" />
    <glyph glyph-name="guillemotleft" unicode="&#xab;" horiz-adv-x="460" 
d="M87 195c19.333 -20.667 39.666 -40.334 60.999 -59.001s42 -38 62 -58c8.66699 -9.33301 12.334 -19.333 11.001 -30s-5.5 -19.5 -12.5 -26.5s-15.833 -11.167 -26.5 -12.5s-20.334 2.66699 -29.001 12c-23.333 23.333 -47.333 45.833 -72 67.5s-47.667 45.167 -69 70.5
c-4.66699 5.33301 -8.16699 11.333 -10.5 18s-2.16602 13.667 0.500977 21c14.667 39.333 36.5 75.166 65.5 107.499s59.5 61.5 91.5 87.5c8.66699 7.33301 18.167 11.333 28.5 12s19.5 -3.33301 27.5 -12c7.33301 -7.33301 11.333 -16.666 12 -27.999
s-3.33301 -20.666 -12 -27.999l-30 -27l-29 -28c-12.667 -12.667 -25.167 -26.5 -37.5 -41.5s-22.833 -30.167 -31.5 -45.5zM348 283c-14.667 -11.333 -29.1699 -23.665 -43.5029 -36.998s-26.833 -27.666 -37.5 -42.999c25.333 -23.333 51 -45.166 77 -65.499
s51.667 -41.5 77 -63.5c10 -8.66699 14.333 -18.167 13 -28.5s-5.5 -19 -12.5 -26s-15.833 -11.333 -26.5 -13s-20.667 1.83301 -30 10.5c-28.667 25.333 -58.167 49.666 -88.5 72.999s-59.166 49 -86.499 77c-7.33301 7.33301 -11.166 15 -11.499 23s1.16699 16.333 4.5 25
c11.333 26 27.5 49.5 48.5 70.5s42.167 40.167 63.5 57.5l42 31c14 10 28.333 19.667 43 29c10.667 6.66699 20.834 8.16699 30.501 4.5s17 -9.83398 22 -18.501s6.83301 -18.334 5.5 -29.001s-7.33301 -19.334 -18 -26.001c-12.667 -7.33301 -25 -15.333 -37 -24
s-23.667 -17.667 -35 -27z" />
    <glyph glyph-name="logicalnot" unicode="&#xac;" horiz-adv-x="539" 
d="M429 258c-28 1.33301 -57.6641 2.66797 -88.9971 4.00098s-62.666 2.33301 -93.999 3s-62 0.333984 -92 -0.999023s-57.667 -4.33301 -83 -9c-11.333 -2 -21.5 -0.833008 -30.5 3.5s-15.167 12.166 -18.5 23.499c-3.33301 10 -2.33301 20.333 3 31
s13.666 16.667 24.999 18c30.667 5.33301 64 8.83301 100 10.5s72.5 2.16699 109.5 1.5s73.5 -1.83398 109.5 -3.50098s69.333 -2.83398 100 -3.50098c11.333 -0.666992 20.166 -4 26.499 -10s10.166 -13.333 11.499 -22c0.666992 -2 1 -5.33301 1 -10
c0.666992 -22.667 0.5 -40.5 -0.5 -53.5s-2.33301 -25.167 -4 -36.5s-3.16699 -23.5 -4.5 -36.5s-2 -30.833 -2 -53.5c0 -13.333 -4.16699 -23.166 -12.5 -29.499s-17.5 -9.5 -27.5 -9.5s-19.167 3.16699 -27.5 9.5s-12.5 16.166 -12.5 29.499
c0 18.667 0.666992 34.167 2 46.5s2.66602 23.333 3.99902 33s2.5 19.334 3.5 29.001s1.83301 21.5 2.5 35.5z" />
    <glyph glyph-name="sfthyphen" unicode="&#xad;" horiz-adv-x="477" 
d="M418 336c12.667 -0.666992 22.3311 -5.16406 28.998 -13.4971s10 -17.5 10 -27.5s-3.33301 -19 -10 -27s-16.334 -12 -29.001 -12c-28.667 0.666992 -57.5 2 -86.5 4s-58 3.5 -87 4.5s-58 0.833008 -87 -0.5s-57.833 -4.33301 -86.5 -9
c-11.333 -2 -21.5 -0.833008 -30.5 3.5s-15.167 12.166 -18.5 23.499c-3.33301 10 -2.33301 20.333 3 31s13.666 16.667 24.999 18c30.667 5.33301 61.334 8.83301 92.001 10.5s61.334 2.16699 92.001 1.5s61.334 -1.83398 92.001 -3.50098s61.334 -2.83398 92.001 -3.50098
z" />
    <glyph glyph-name="registered" unicode="&#xae;" horiz-adv-x="700" 
d="M486 337c10.667 -6.66699 16.668 -15.335 18.001 -26.002s-0.5 -20.167 -5.5 -28.5s-12.333 -14.5 -22 -18.5s-19.834 -2.33301 -30.501 5l-78 49c-25.333 16.667 -51.666 32 -78.999 46c-1.33301 -12 -2.5 -24.167 -3.5 -36.5s-2.16699 -24.5 -3.5 -36.5
c-1.33301 -11.333 -5.33301 -20.833 -12 -28.5s-16 -11.5 -28 -11.5c-10 0 -19.5 3.83301 -28.5 11.5s-12.833 17.167 -11.5 28.5l13.5 140.5c4.33301 46.333 9.16602 93.166 14.499 140.499c1.33301 10.667 5.33301 20 12 28s16 12 28 12
c26 0.666992 49.833 -0.166016 71.5 -2.49902s42.167 -7.16602 61.5 -14.499c18 -6 35.833 -14.667 53.5 -26s29.167 -27.666 34.5 -48.999c2.66699 -12 2.33398 -23.333 -0.999023 -34s-8.5 -20.667 -15.5 -30s-15.333 -17.5 -25 -24.5s-19.5 -12.833 -29.5 -17.5
c-5.33301 -2.66699 -11 -5 -17 -7l-18 -6c17.333 -10 34.166 -20.333 50.499 -31zM299.001 463.999l34.9961 6.49805c12 2.33301 23.667 5.16602 35 8.49902c6.66699 2 13.334 4.5 20.001 7.5s12.334 7.16699 17.001 12.5c0 5.33301 -0.5 8.33301 -1.5 9
s-2.16699 1.33398 -3.5 2.00098c-6 3.33301 -12 6 -18 8s-13 4 -21 6c-9.33301 2.66699 -18.666 4.5 -27.999 5.5s-18.666 1.83301 -27.999 2.5c-1.33301 -11.333 -2.5 -22.666 -3.5 -33.999s-2.16699 -22.666 -3.5 -33.999zM560.997 658.997
c28.667 -25.333 53.6689 -56.002 75.002 -92.002s34.666 -73 39.999 -111s4.33301 -76.167 -3 -114.5s-22 -73.5 -44 -105.5c-30 -44 -68.833 -77.5 -116.5 -100.5s-97.834 -35.5 -150.501 -37.5c-50 -2 -96.5 6.66699 -139.5 26s-82.5 46 -118.5 80
c-4 4 -6.33301 6.16699 -7 6.5s-1.33398 1.16602 -2.00098 2.49902c-14 15.333 -25.333 31 -34 47c-16.667 30.667 -28.167 63.334 -34.5 98.001s-7.83301 69.334 -4.5 104.001s11.666 68.334 24.999 101.001s31.333 62.334 54 89.001
c28.667 33.333 62.834 57.666 102.501 72.999s80.834 22.666 123.501 21.999s84.5 -8.66699 125.5 -24s77.167 -36.666 108.5 -63.999zM554.999 267.995c17.333 24.667 29.6631 49.9932 36.9961 75.9932s10 53.667 8 83c0 2 -0.166992 3.83301 -0.5 5.5s-0.5 3.5 -0.5 5.5
c-0.666992 5.33301 -1.33398 9.33301 -2.00098 12s-1.66699 5.66699 -3 9c-1.33301 5.33301 -3.16602 11.833 -5.49902 19.5s-4.16602 12.834 -5.49902 15.501c-6.66699 14.667 -14 28.834 -22 42.501s-17 26.167 -27 37.5c-30 32.667 -65.333 56.834 -106 72.501
s-82.667 22.5 -126 20.5c-15.333 -1.33301 -30.666 -3.83301 -45.999 -7.5s-29.333 -9.16699 -42 -16.5c-4 -2.66699 -8 -5 -12 -7s-7.66699 -4.66699 -11 -8c-4 -3.33301 -6.83301 -5.5 -8.5 -6.5s-3.16699 -2.16699 -4.5 -3.5l-8.5 -8.5
c-2.33301 -2.33301 -4.83301 -5.16602 -7.5 -8.49902c-3.33301 -3.33301 -5.66602 -6 -6.99902 -8c-21.333 -29.333 -36 -58 -44 -86s-11.667 -57.667 -11 -89c0.666992 -4.66699 1 -9.16699 1 -13.5s0.333008 -8.83301 1 -13.5c0.666992 -6 1.16699 -9.83301 1.5 -11.5
s0.5 -3.16699 0.5 -4.5c2.66699 -13.333 6.66699 -28 12 -44c2.66699 -7.33301 5 -13.166 7 -17.499s5.66699 -10.833 11 -19.5c2.66699 -6 6.66699 -12 12 -18c3.33301 -4 6.33301 -8 9 -12c26.667 -25.333 56.167 -46.333 88.5 -63s67.5 -24.667 105.5 -24
c18.667 0.666992 37.834 2.83398 57.501 6.50098s38.667 9.33398 57 17.001s35.333 17 51 28s29.167 24.167 40.5 39.5z" />
    <glyph glyph-name="macron" unicode="&#xaf;" 
d="M377 724c12.667 -0.666992 22.334 -5.33203 29.001 -13.999s10 -18 10 -28s-3.33301 -19 -10 -27s-16.334 -11.333 -29.001 -10c-32 2 -63.667 2.16699 -95 0.5s-63 -3.83398 -95 -6.50098c-10.667 -0.666992 -19.834 3.33301 -27.501 12s-11.5 18 -11.5 28
c0 11.333 3.83301 20.5 11.5 27.5s16.834 11.167 27.501 12.5c32 2.66699 63.667 4.66699 95 6s63 1 95 -1z" />
    <glyph glyph-name="degree" unicode="&#xb0;" horiz-adv-x="298" 
d="M103 795c16.667 8 33.9951 11.6719 51.9951 11.0049s34.667 -4.83398 50 -12.501s29 -18.5 41 -32.5s20.667 -30 26 -48c4 -14 5.83301 -29.333 5.5 -46s-2.83301 -32.667 -7.5 -48s-12 -29.333 -22 -42s-22.333 -22.334 -37 -29.001
c-17.333 -7.33301 -36.166 -11 -56.499 -11s-39.666 3.66699 -57.999 11s-34.166 18 -47.499 32s-22 31.333 -26 52c-0.666992 5.33301 -1.16699 8.16602 -1.5 8.49902s-0.5 0.833008 -0.5 1.5c-1.33301 14 -0.166016 28.667 3.50098 44s9.16699 30.166 16.5 44.499
s16.333 27.166 27 38.499s22.334 20 35.001 26zM197.995 677.005c0 0.666992 -0.332031 2.50195 -0.999023 5.50195s-1 4.83301 -1 5.5c-1.33301 4 -2.33301 7.33301 -3 10c0 -0.666992 -0.833008 0.5 -2.5 3.5s-2.5 4.83301 -2.5 5.5c-5.33301 5.33301 -10 9.5 -14 12.5
s-7.66699 5.16699 -11 6.5c-12.667 3.33301 -23 1 -31 -7c-6 -5.33301 -11.167 -11.666 -15.5 -18.999s-7.5 -14.333 -9.5 -21c-2.66699 -6 -4.66699 -12.667 -6 -20c-0.666992 -6 -0.666992 -9.66699 0 -11c2 -9.33301 5.66699 -15.666 11 -18.999s13.333 -6.33301 24 -9
c5.33301 -1.33301 9 -2.33301 11 -3c5.33301 -0.666992 10 -0.833984 14 -0.500977s4.33301 -0.166992 1 -1.5c6 1.33301 9.33301 2.16602 10 2.49902s3.66699 2.16602 9 5.49902c3.33301 4 5.66602 7 6.99902 9s2.33301 3.33301 3 4
c2.66699 7.33301 4.66699 13.666 6 18.999z" />
    <glyph glyph-name="plusminus" unicode="&#xb1;" horiz-adv-x="436" 
d="M373 349c12.667 0 22.166 -4.16797 28.499 -12.501s9.5 -17.5 9.5 -27.5s-3.16699 -19.167 -9.5 -27.5s-15.833 -12.5 -28.5 -12.5c-19.333 -0.666992 -39 -0.666992 -59 0l-59 2c0.666992 -18.667 1.16699 -37 1.5 -55s0.5 -36.333 0.5 -55
c0 -13.333 -4.16699 -23.166 -12.5 -29.499s-17.5 -9.5 -27.5 -9.5s-19 3.16699 -27 9.5s-12 16.166 -12 29.499c0 18.667 -0.333008 37.167 -1 55.5l-2 55.5c-21.333 0 -42.166 -0.666992 -62.499 -2s-41.166 -3.66602 -62.499 -6.99902
c-10.667 -1.33301 -20.667 0.166992 -30 4.5s-15.666 12.166 -18.999 23.499c-2.66699 9.33301 -1.33398 19.333 3.99902 30s13.333 17 24 19c24.667 4 49.167 6.66699 73.5 8s49.166 2.33301 74.499 3c0.666992 16 1.66699 32.167 3 48.5l4 49.5
c1.33301 10.667 5.5 20 12.5 28s16.167 12 27.5 12c10 0 19.5 -4 28.5 -12s12.833 -17.333 11.5 -28l-4 -49.5l-4 -49.5c19.333 -0.666992 38.833 -1.16699 58.5 -1.5s39.167 -0.166016 58.5 0.500977zM398.999 80.999c12.667 -0.666992 22.3311 -5.16406 28.998 -13.4971
s10 -17.5 10 -27.5s-3.33301 -19 -10 -27s-16.334 -12 -29.001 -12c-28.667 0.666992 -57.5 2 -86.5 4s-58 3.5 -87 4.5s-58 0.833008 -87 -0.5s-57.833 -4.33301 -86.5 -9c-11.333 -2 -21.5 -0.833008 -30.5 3.5s-15.167 12.166 -18.5 23.499
c-3.33301 10 -2.33301 20.333 3 31s13.666 16.667 24.999 18c30.667 5.33301 61.334 8.83301 92.001 10.5s61.334 2.16699 92.001 1.5s61.334 -1.83398 92.001 -3.50098s61.334 -2.83398 92.001 -3.50098z" />
    <glyph glyph-name="twosuperior" unicode="&#xb2;" horiz-adv-x="359" 
d="M289 381c-38 -4 -75.3311 -4.16797 -111.998 -0.500977l-112 11.5c-9.33301 1.33301 -17.333 4.16602 -24 8.49902s-11.334 11.166 -14.001 20.499c-2.66699 8.66699 -2.33398 17.334 0.999023 26.001s9 15 17 19c15.333 7.33301 30.333 15 45 23s29 16.333 43 25
c7.33301 4.66699 14.5 9.5 21.5 14.5l21.5 15.5l17.5 16c6.33301 6 10.833 11 13.5 15c3.33301 6 5.33301 9.83301 6 11.5s1 2.83398 1 3.50098c-0.666992 8.66699 -3 14.334 -7 17.001c-1.33301 1.33301 -3 2.83301 -5 4.5s-4.66699 3.5 -8 5.5
c-12 6 -25.167 10.167 -39.5 12.5s-26.833 1.83301 -37.5 -1.5c-12.667 -4 -23.167 -2.83301 -31.5 3.5s-13.666 14.166 -15.999 23.499s-1.5 19 2.5 29s12 16.667 24 20c22 7.33301 45.667 8.83301 71 4.5s47.666 -12.166 66.999 -23.499
c10.667 -6 20.334 -13.333 29.001 -22s15.667 -18.167 21 -28.5s8.66602 -21.5 9.99902 -33.5s0 -24 -4 -36c-8 -23.333 -21 -43.333 -39 -60s-36.667 -31.667 -56 -45c14.667 -2 30 -2.83301 46 -2.5s32 1.5 48 3.5c10.667 1.33301 20 -2.5 28 -11.5s12 -18.5 12 -28.5
c0 -11.333 -4 -20.5 -12 -27.5s-17.333 -11.167 -28 -12.5z" />
    <glyph glyph-name="threesuperior" unicode="&#xb3;" horiz-adv-x="343" 
d="M167 632c1.33301 0.666992 3.33008 2.49902 5.99707 5.49902s3.66699 3.83301 3 2.5c-1.33301 6.66699 -3.33301 10.667 -6 12c-4 1.33301 -8.16699 2.5 -12.5 3.5s-5.16602 1.5 -2.49902 1.5c-3.33301 0 -7 0.166992 -11 0.5s-7.66699 0.5 -11 0.5
c-1.33301 -0.666992 -4.33301 -1.16699 -9 -1.5s-5.66699 -0.166016 -3 0.500977c-2.66699 -0.666992 -5.16699 -1.16699 -7.5 -1.5s-5.16602 -0.833008 -8.49902 -1.5c-14.667 -6.66699 -27.167 -8.83398 -37.5 -6.50098s-18.5 8.5 -24.5 18.5
c-5.33301 8.66699 -6.66602 18.667 -3.99902 30s9 19.333 19 24c16.667 8 36 13.167 58 15.5s43 1.16602 63 -3.50098s37.5 -13.5 52.5 -26.5s23.5 -31.167 25.5 -54.5c2 -17.333 -0.666992 -32.666 -8 -45.999s-17.333 -25 -30 -35c10 -3.33301 20.333 -7.16602 31 -11.499
s20.5 -9.66602 29.5 -15.999s17 -13.666 24 -21.999s12.167 -17.833 15.5 -28.5c4 -15.333 4 -29.333 0 -42s-10.5 -24.334 -19.5 -35.001s-19.667 -19.834 -32 -27.501s-24.5 -13.834 -36.5 -18.501c-23.333 -9.33301 -47.166 -15.666 -71.499 -18.999s-48.833 -5 -73.5 -5
c-12.667 0 -22.167 4 -28.5 12s-9.5 17 -9.5 27s3.16699 19.167 9.5 27.5s15.833 12.5 28.5 12.5c19.333 0.666992 37.666 2 54.999 4s35.666 6.33301 54.999 13c8 2.66699 15.667 5.83398 23 9.50098s13.666 8.5 18.999 14.5c-2 7.33301 -3 11.333 -3 12
c-2 1.33301 -4.16699 2.5 -6.5 3.5s-4.5 2.16699 -6.5 3.5c-22 8 -41.667 14 -59 18l-30 6c-2.66699 0 -6.66699 0.666992 -12 2c-11.333 1.33301 -20.166 2.33301 -26.499 3l-18.5 2c-11.333 0.666992 -20.833 4.66699 -28.5 12s-11.5 16.666 -11.5 27.999
c0 8 2.66699 16 8 24s12.333 12.667 21 14c12 2 24.167 4.66699 36.5 8s23.5 7.66602 33.5 12.999c5.33301 2 11.333 4.83301 18 8.5s11.334 6.83398 14.001 9.50098z" />
    <glyph glyph-name="acute" unicode="&#xb4;" 
d="M325 740c8.66699 6.66699 18.002 10.501 28.002 11.501s19.333 -2.83301 28 -11.5c7.33301 -7.33301 11.333 -16.833 12 -28.5s-3.33301 -21.167 -12 -28.5c-48 -36.667 -98 -68.334 -150 -95.001c-11.333 -6 -22 -6.83301 -32 -2.5s-17.5 10.833 -22.5 19.5
s-6.83301 18 -5.5 28s7.66602 18 18.999 24c24 12 47.167 24.667 69.5 38s44.166 28.333 65.499 45z" />
    <glyph glyph-name="mu" unicode="&#xb5;" horiz-adv-x="526" 
d="M39 278c0 11.333 -0.168945 22.333 -0.501953 33s-0.833008 21 -1.5 31c0 12.667 4 22.167 12 28.5s17 9.5 27 9.5s19.333 -3.16699 28 -9.5s13 -15.833 13 -28.5v-17c0 -6 0.333008 -11.667 1 -17c0.666992 -9.33301 0.833984 -16.5 0.500977 -21.5
s-0.5 -10.167 -0.5 -15.5c0.666992 -15.333 1.5 -30.333 2.5 -45s3.16699 -28.667 6.5 -42s6.5 -24.833 9.5 -34.5s8.16699 -19.834 15.5 -30.501c4.66699 -6 7.66699 -9.33301 9 -10c10 -8 16.5 -12.833 19.5 -14.5s6.83301 -3.16699 11.5 -4.5
c28 -8 56.333 -7.16699 85 2.5s51.667 27.167 69 52.5c10.667 16 18.334 32.667 23.001 50s8.16699 34.833 10.5 52.5s3.83301 35.667 4.5 54s2.33398 36.5 5.00098 54.5c0 20 5.16699 33.333 15.5 40s21.166 8.66699 32.499 6c7.33301 -2 12.666 -4.33301 15.999 -7l8 -7
c7.33301 -12 10 -23.667 8 -35c0.666992 -57.333 4.66699 -114.666 12 -171.999s17 -114 29 -170c2.66699 -12.667 0.666992 -23.167 -6 -31.5s-14.834 -13.833 -24.501 -16.5s-19.167 -2 -28.5 2s-15.333 12.333 -18 25c-8 38 -15 75.333 -21 112
c-2 -3.33301 -4.16699 -6.5 -6.5 -9.5l-7.5 -9.5c-13.333 -16 -28.666 -29.833 -45.999 -41.5s-35.666 -20.667 -54.999 -27s-39.5 -9.83301 -60.5 -10.5s-41.5 1.66602 -61.5 6.99902c-28 8.66699 -51 21.667 -69 39l-4 -64.5c-1.33301 -21.667 -2.5 -42.167 -3.5 -61.5
s-1.83301 -37.166 -2.5 -53.499s-1 -29.833 -1 -40.5c0 -12.667 -4.16699 -22.167 -12.5 -28.5s-17.5 -9.5 -27.5 -9.5s-19.167 3.16699 -27.5 9.5s-12.5 15.833 -12.5 28.5c0 14 0.666992 32.167 2 54.5l4.5 74.5l5.5 86c2 30 3.83301 59.333 5.5 88l4.5 80.5
c1.33301 25 2 46.5 2 64.5z" />
    <glyph glyph-name="paragraph" unicode="&#xb6;" horiz-adv-x="603" 
d="M186 390c-20 4.66699 -39.9971 11.335 -59.9971 20.002s-37.833 19.834 -53.5 33.501s-28.334 29.5 -38.001 47.5s-14.5 38.667 -14.5 62c0 16.667 3.33301 32.167 10 46.5s15.334 27.333 26.001 39s22.667 22 36 31s27 16.833 41 23.5
c35.333 17.333 72 30.166 110 38.499s76.333 13.833 115 16.5c21.333 1.33301 43.166 2 65.499 2s44.166 -2.66699 65.499 -8c4.66699 0 10.334 -1.33301 17.001 -4c8.66699 -2 16.834 -4.66699 24.501 -8s15.167 -7 22.5 -11c10 -6 16 -13.5 18 -22.5
s1.33301 -17.5 -2 -25.5s-8.83301 -14.667 -16.5 -20s-16.167 -7.33301 -25.5 -6c-1.33301 -100.667 -3.5 -200.667 -6.5 -300s-4.5 -199.333 -4.5 -300c0 -13.333 -4.16699 -23.166 -12.5 -29.499s-17.5 -9.5 -27.5 -9.5s-19.167 3.16699 -27.5 9.5
s-12.5 16.166 -12.5 29.499c0 104 1.66699 207.667 5 311s5.33301 207.333 6 312c-12.667 1.33301 -25.334 2.16602 -38.001 2.49902s-25.334 0.166016 -38.001 -0.500977c0 -51.333 1 -102 3 -152l4 -82.5c1.33301 -27 2 -54.5 2 -82.5c0 -52 -2 -103.833 -6 -155.5
s-6.33301 -103.5 -7 -155.5c0 -12.667 -4.16699 -22.167 -12.5 -28.5s-17.5 -9.5 -27.5 -9.5s-19 3.16699 -27 9.5s-12 15.833 -12 28.5c0 53.333 2.16699 106.333 6.5 159s6.16602 106 5.49902 160v19c-19.333 -0.666992 -38.5 -0.166992 -57.5 1.5s-37.833 4.5 -56.5 8.5z
M100.003 559.001c0 -8 0.331055 -13.3301 0.998047 -15.9971c4 -15.333 10 -27 18 -35c10.667 -10 23 -18.333 37 -25s28.833 -11.834 44.5 -15.501s31.834 -6 48.501 -7s33 -1.5 49 -1.5l-4 101c-1.33301 33.333 -2 67 -2 101c-26 -4.66699 -51.667 -11 -77 -19
s-48.333 -18.667 -69 -32c-3.33301 -1.33301 -7.66602 -4 -12.999 -8l-11 -9.5c-2 -1.66699 -4 -3.5 -6 -5.5l-7 -9c-0.666992 -0.666992 -1.33398 -1.66699 -2.00098 -3s-1.5 -2.83301 -2.5 -4.5s-1.66699 -2.83398 -2 -3.50098s-0.166016 -0.333984 0.500977 0.999023z
" />
    <glyph glyph-name="periodcentered" unicode="&#xb7;" horiz-adv-x="163" 
d="M109 387c8.66699 -5.33301 15.3311 -13.168 19.998 -23.501s5.33398 -20.5 2.00098 -30.5c-4.66699 -11.333 -11.334 -19.666 -20.001 -24.999c-7.33301 -8 -16.666 -11.833 -27.999 -11.5s-20.666 4.16602 -27.999 11.499c-8.66699 6.66699 -15 13.334 -19 20.001
c-5.33301 9.33301 -6.83301 18.833 -4.5 28.5s7.5 17.5 15.5 23.5c4.66699 4.66699 8.66699 7.66699 12 9c5.33301 2.66699 8.66602 4.16699 9.99902 4.5s5 0.833008 11 1.5c2 0.666992 4.33301 0.666992 7 0s4.66699 -1 6 -1
c2.66699 -0.666992 5.33398 -1.66699 8.00098 -3z" />
    <glyph glyph-name="cedilla" unicode="&#xb8;" 
d="M308 -57c12.667 -1.33301 25.3281 -4.00098 37.9951 -8.00098s23.834 -9.83301 33.501 -17.5s17.334 -17 23.001 -28s8.16699 -24.167 7.5 -39.5c-1.33301 -25.333 -10.166 -48.333 -26.499 -69s-35.166 -38 -56.499 -52c-9.33301 -6 -19.666 -11.5 -30.999 -16.5
s-22.833 -8.5 -34.5 -10.5s-23.167 -2 -34.5 0s-22 7 -32 15c-9.33301 6.66699 -15.666 14.834 -18.999 24.501s-2 19.5 4 29.5c5.33301 8.66699 13.666 15 24.999 19s21.333 2.33301 30 -5l9 -5c4 0.666992 6.66699 1 8 1s4.66602 1 9.99902 3
c6 2.66699 12.833 6.33398 20.5 11.001s14.167 9.66699 19.5 15c4.66699 4.66699 8.33398 8 11.001 10c6 8 9.66699 13.333 11 16c4 8 6.33301 14.667 7 20c-5.33301 2.66699 -12.333 4.66699 -21 6s-16.667 2.33301 -24 3
c-9.33301 0.666992 -18.666 0.333984 -27.999 -0.999023s-18.666 -2 -27.999 -2c-13.333 1.33301 -25.5 5.66602 -36.5 12.999s-19.167 17 -24.5 29c-5.33301 11.333 -7.83301 23.166 -7.5 35.499s-1.83398 24.166 -6.50098 35.499c-3.33301 10 -2 19.833 4 29.5
s14 16.167 24 19.5c11.333 3.33301 21.5 2 30.5 -4s15.167 -14 18.5 -24c3.33301 -8 5.16602 -16 5.49902 -24s0.833008 -16.333 1.5 -25c12 -2.66699 23.5 -3.66699 34.5 -3s22.5 0.333984 34.5 -0.999023z" />
    <glyph glyph-name="onesuperior" unicode="&#xb9;" horiz-adv-x="206" 
d="M51 705c0 12.667 4.16699 22.168 12.5 28.501s17.5 9.5 27.5 9.5s19.167 -3.16699 27.5 -9.5s12.5 -15.833 12.5 -28.5c0 -43.333 2 -86.333 6 -129s9.66699 -85.667 17 -129c1.33301 -10.667 -0.166992 -20.667 -4.5 -30s-12.166 -15.666 -23.499 -18.999
c-9.33301 -2.66699 -19.333 -1.33398 -30 3.99902s-17 13.333 -19 24c-7.33301 46 -13.333 92.167 -18 138.5s-7.33398 93.166 -8.00098 140.499z" />
    <glyph glyph-name="ordmasculine" unicode="&#xba;" horiz-adv-x="432" 
d="M254 665c26 0.666992 50.4961 -3.83398 73.4961 -13.501s42.5 -25.167 58.5 -46.5c11.333 -14.667 18.833 -31 22.5 -49s3.83398 -36 0.500977 -54c-4 -18 -10.667 -34.667 -20 -50s-20.5 -29.5 -33.5 -42.5s-27.333 -24.833 -43 -35.5s-31.167 -19.667 -46.5 -27
c-14 -6.66699 -29.5 -13 -46.5 -19s-34.333 -10.167 -52 -12.5s-35 -2.16602 -52 0.500977s-32.5 9 -46.5 19c-10 6.66699 -16 15 -18 25c-3.33301 11.333 -7.16602 22.666 -11.499 33.999s-8.16602 22.5 -11.499 33.5s-5.66602 22.333 -6.99902 34s-1 23.834 1 36.501
c4.66699 24.667 15 47.167 31 67.5s34.833 37.833 56.5 52.5s45.167 26 70.5 34s50 12.333 74 13zM331.996 524.999c0 6.66699 -0.165039 10.3281 -0.498047 10.9951s-0.5 1.33398 -0.5 2.00098c-3.33301 6.66699 -5 11.334 -5 14.001
c-3.33301 5.33301 -7.33301 10.5 -12 15.5s-11 9.16699 -19 12.5c-15.333 6.66699 -31.833 8.5 -49.5 5.5s-34.167 -7.16699 -49.5 -12.5c-16 -6.66699 -32 -15.167 -48 -25.5s-28.667 -23.166 -38 -38.499c-5.33301 -9.33301 -8.33301 -18.666 -9 -27.999
s0 -18.666 2 -27.999s4.83301 -18.666 8.5 -27.999l10.5 -28c8 -2 13.5 -3 16.5 -3h9.5c1.33301 0 4.16602 0.333008 8.49902 1s5.83301 0.666992 4.5 0c14.667 3.33301 28.167 7 40.5 11s24.166 9.33301 35.499 16c14.667 7.33301 27 14.833 37 22.5s20.667 17.5 32 29.5
l10 13c1.33301 2.66699 2.83301 5.16699 4.5 7.5s3.16699 5.16602 4.5 8.49902c2 3.33301 3.16699 6 3.5 8s0.833008 3.66699 1.5 5z" />
    <glyph glyph-name="guillemotright" unicode="&#xbb;" horiz-adv-x="460" 
d="M307 393c23.333 -23.333 47.166 -45.834 71.499 -67.501s47.5 -45.167 69.5 -70.5c4.66699 -5.33301 8.16699 -11.333 10.5 -18s2.16602 -13.334 -0.500977 -20.001c-14.667 -39.333 -36.5 -75.333 -65.5 -108s-59.5 -62 -91.5 -88
c-8.66699 -7.33301 -18.167 -11.166 -28.5 -11.499s-19.833 3.5 -28.5 11.5c-7.33301 7.33301 -11.333 16.833 -12 28.5s3.33301 21.167 12 28.5c20.667 16.667 40.667 34.667 60 54l37 42c12.667 14.667 23.334 29.667 32.001 45
c-19.333 20.667 -39.666 40.334 -60.999 59.001s-42 38.334 -62 59.001c-9.33301 9.33301 -13.166 19.166 -11.499 29.499s6 19 13 26s15.667 11.167 26 12.5s20.166 -2.66699 29.499 -12zM270 247.999c7.33301 -7.33301 11.167 -15.1719 11.5 -23.5049
s-1.5 -16.833 -5.5 -25.5c-11.333 -26 -27.333 -49.5 -48 -70.5s-42 -40.167 -64 -57.5c-13.333 -10.667 -27 -21 -41 -31s-28.333 -19.667 -43 -29c-11.333 -6.66699 -21.833 -8.16699 -31.5 -4.5s-17 9.83398 -22 18.501s-6.83301 18.334 -5.5 29.001
s7.33301 19.334 18 26.001c13.333 7.33301 26 15.333 38 24s23.667 17.667 35 27c14.667 12 29.167 24.5 43.5 37.5s26.5 27.5 36.5 43.5c-24.667 22.667 -50.167 44.167 -76.5 64.5s-52.166 41.833 -77.499 64.5c-9.33301 8.66699 -13.5 18 -12.5 28s5 18.5 12 25.5
s15.833 11.333 26.5 13s21 -1.83301 31 -10.5c28.667 -25.333 58.167 -49.666 88.5 -72.999s59.166 -48.666 86.499 -75.999z" />
    <glyph glyph-name="onequarter" unicode="&#xbc;" horiz-adv-x="699" 
d="M68 39c-8.66699 -7.33301 -18.166 -11.168 -28.499 -11.501s-19.5 3.5 -27.5 11.5c-7.33301 7.33301 -11.333 16.666 -12 27.999s3.33301 20.666 12 27.999c52 44 102.667 89.333 152 136s96 96 140 148c87.333 103.333 159.666 215 216.999 335
c4.66699 10 12.667 16.333 24 19s21.333 1.33398 30 -3.99902c10 -6 16.167 -14.167 18.5 -24.5s1.16602 -20.5 -3.50098 -30.5c-30 -63.333 -64.167 -123.666 -102.5 -180.999s-79.666 -112.166 -123.999 -164.499s-91.5 -102.5 -141.5 -150.5s-101.333 -94.333 -154 -139z
M627.001 23.998c0 -12.667 -4.33398 -22.168 -13.001 -28.501s-18 -9.5 -28 -9.5s-19 3.16699 -27 9.5s-12 15.833 -12 28.5c0 27.333 2 54 6 80l-52 -2c-17.333 -0.666992 -34.666 -1 -51.999 -1c-14 0 -24.167 4.83301 -30.5 14.5s-8.83301 19.834 -7.5 30.501
c0 27.333 2.5 54 7.5 80s8.83301 52.333 11.5 79c1.33301 11.333 5.5 20.833 12.5 28.5s16.167 11.5 27.5 11.5c10 0 19.5 -3.83301 28.5 -11.5s12.833 -17.167 11.5 -28.5c-2 -20.667 -4.83301 -41.167 -8.5 -61.5s-6.83398 -41.166 -9.50098 -62.499l37 2l36 2l9.5 63
c3 20.667 5.16699 41.667 6.5 63c0.666992 12.667 5.5 22.334 14.5 29.001s18.5 10 28.5 10s18.833 -3.33301 26.5 -10s11.167 -16.334 10.5 -29.001c-1.33301 -21.333 -3.66602 -42.833 -6.99902 -64.5l-10 -65.5c6.66699 -4 11.667 -9.66699 15 -17s4.5 -14.833 3.5 -22.5
s-4 -14.834 -9 -21.501s-11.833 -11 -20.5 -13c-4 -27.333 -6 -55 -6 -83zM105 704.997c0 12.667 3.99902 22.168 11.999 28.501s17 9.5 27 9.5s19.167 -3.16699 27.5 -9.5s12.5 -15.833 12.5 -28.5c0.666992 -43.333 2.83398 -86.333 6.50098 -129
s9.16699 -85.667 16.5 -129c2 -10.667 0.666992 -20.667 -4 -30s-12.667 -15.666 -24 -18.999c-9.33301 -2.66699 -19.333 -1.33398 -30 3.99902s-17 13.333 -19 24c-7.33301 46 -13.333 92.167 -18 138.5s-7 93.166 -7 140.499z" />
    <glyph glyph-name="onehalf" unicode="&#xbd;" horiz-adv-x="663" 
d="M119 705c0 12.667 4.16602 22.168 12.499 28.501s17.5 9.5 27.5 9.5s19.167 -3.16699 27.5 -9.5s12.5 -15.833 12.5 -28.5c0 -43.333 2 -86.333 6 -129s9.66699 -85.667 17 -129c1.33301 -10.667 -0.166992 -20.667 -4.5 -30s-12.166 -15.666 -23.499 -18.999
c-9.33301 -2.66699 -19.5 -1.33398 -30.5 3.99902s-17.167 13.333 -18.5 24c-7.33301 46 -13.5 92.167 -18.5 138.5s-7.5 93.166 -7.5 140.499zM535.999 705.001c-12 -38 -26.3311 -74.667 -42.998 -110s-34.667 -70.333 -54 -105l-51 -90
c-17.333 -29.333 -37 -57.666 -59 -84.999c-20.667 -25.333 -42.5 -49.833 -65.5 -73.5l-68 -72c-22.333 -24.333 -43.166 -49.5 -62.499 -75.5s-35.666 -54.333 -48.999 -85c-4.66699 -10 -12.834 -16.333 -24.501 -19s-21.834 -1.33398 -30.501 3.99902
c-10 6 -16 14.167 -18 24.5s-0.666992 20.5 4 30.5c13.333 30.667 29.666 59.334 48.999 86.001s40.166 52.167 62.499 76.5l68 72c23 23.667 45.167 48.167 66.5 73.5s40.333 52.166 57 80.499l49 86.5c18 32.667 35 65.5 51 98.5s29.667 67.5 41 103.5c4 12 11 20 21 24
s19.833 4.66699 29.5 2s17.5 -8.16699 23.5 -16.5s7 -18.5 3 -30.5zM602.001 -1.99902c-38 -4.66699 -75.1699 -5.16797 -111.503 -1.50098l-111.5 11.5c-9.33301 1.33301 -17.333 4.33301 -24 9s-11.334 11.667 -14.001 21c-2.66699 8 -2.33398 16.333 0.999023 25
s9 15.334 17 20.001l44 22.5c14.667 7.66699 29 16.167 43 25.5l22 14c7.33301 4.66699 14.333 9.66699 21 15l18 16.5c6.66699 6.33301 11.334 11.5 14.001 15.5c3.33301 6 5.33301 9.66699 6 11s1 2.33301 1 3c-1.33301 8.66699 -3.66602 14.667 -6.99902 18
c-2.66699 2.66699 -7 5.66699 -13 9c-12 6.66699 -25.167 11 -39.5 13s-27.166 1.33301 -38.499 -2c-12 -4 -22.167 -2.83301 -30.5 3.5s-13.833 14.333 -16.5 24s-2 19.334 2 29.001s12 16.5 24 20.5c22 6.66699 45.667 8 71 4s48 -11.667 68 -23
c10 -6 19.333 -13.333 28 -22s15.834 -18.167 21.501 -28.5s9.16699 -21.5 10.5 -33.5s0 -24 -4 -36c-8 -23.333 -21 -43.5 -39 -60.5s-36.667 -32.167 -56 -45.5c14.667 -1.33301 29.834 -1.83301 45.501 -1.5s31.5 1.16602 47.5 2.49902
c11.333 1.33301 20.833 -2.5 28.5 -11.5s11.5 -18.167 11.5 -27.5c0 -12 -3.83301 -21.333 -11.5 -28s-17.167 -10.667 -28.5 -12z" />
    <glyph glyph-name="threequarters" unicode="&#xbe;" horiz-adv-x="739" 
d="M167 632c1.33301 0.666992 3.33008 2.49902 5.99707 5.49902s3.66699 3.83301 3 2.5c-1.33301 6.66699 -3.33301 10.667 -6 12c-4 1.33301 -8.16699 2.5 -12.5 3.5s-5.16602 1.5 -2.49902 1.5c-3.33301 0 -7 0.166992 -11 0.5s-7.66699 0.5 -11 0.5
c-1.33301 -0.666992 -4.33301 -1.16699 -9 -1.5s-5.66699 -0.166016 -3 0.500977c-2.66699 -0.666992 -5.16699 -1.16699 -7.5 -1.5s-5.16602 -0.833008 -8.49902 -1.5c-14.667 -6.66699 -27.167 -8.83398 -37.5 -6.50098s-18.5 8.5 -24.5 18.5
c-5.33301 8.66699 -6.66602 18.667 -3.99902 30s9 19.333 19 24c16.667 8 36 13.167 58 15.5s43 1.16602 63 -3.50098s37.5 -13.5 52.5 -26.5s23.5 -31.167 25.5 -54.5c2 -17.333 -0.666992 -32.666 -8 -45.999s-17.333 -25 -30 -35c10 -3.33301 20.333 -7.16602 31 -11.499
s20.5 -9.66602 29.5 -15.999s17 -13.666 24 -21.999s12.167 -17.833 15.5 -28.5c4 -15.333 4 -29.333 0 -42s-10.5 -24.334 -19.5 -35.001s-19.667 -19.834 -32 -27.501s-24.5 -13.834 -36.5 -18.501c-23.333 -9.33301 -47.166 -15.666 -71.499 -18.999s-48.833 -5 -73.5 -5
c-12.667 0 -22.167 4 -28.5 12s-9.5 17 -9.5 27s3.16699 19.167 9.5 27.5s15.833 12.5 28.5 12.5c19.333 0.666992 37.666 2 54.999 4s35.666 6.33301 54.999 13c8 2.66699 15.667 5.83398 23 9.50098s13.666 8.5 18.999 14.5c-2 7.33301 -3 11.333 -3 12
c-2 1.33301 -4.16699 2.5 -6.5 3.5s-4.5 2.16699 -6.5 3.5c-22 8 -41.667 14 -59 18l-30 6c-2.66699 0 -6.66699 0.666992 -12 2c-11.333 1.33301 -20.166 2.33301 -26.499 3l-18.5 2c-11.333 0.666992 -20.833 4.66699 -28.5 12s-11.5 16.666 -11.5 27.999
c0 8 2.66699 16 8 24s12.333 12.667 21 14c12 2 24.167 4.66699 36.5 8s23.5 7.66602 33.5 12.999c5.33301 2 11.333 4.83301 18 8.5s11.334 6.83398 14.001 9.50098zM107.997 38.999c-8.66699 -7.33301 -18.166 -11.168 -28.499 -11.501s-19.5 3.5 -27.5 11.5
c-7.33301 7.33301 -11.333 16.666 -12 27.999s3.33301 20.666 12 27.999c52 44 102.667 89.333 152 136s96 96 140 148c87.333 103.333 159.666 215 216.999 335c4.66699 10 12.667 16.333 24 19s21.333 1.33398 30 -3.99902c10 -6 16.167 -14.167 18.5 -24.5
s1.16602 -20.5 -3.50098 -30.5c-30 -63.333 -64.167 -123.666 -102.5 -180.999s-79.666 -112.166 -123.999 -164.499s-91.5 -102.5 -141.5 -150.5s-101.333 -94.333 -154 -139zM666.998 23.9971c0 -12.667 -4.33496 -22.168 -13.002 -28.501s-18 -9.5 -28 -9.5
s-19 3.16699 -27 9.5s-12 15.833 -12 28.5c0 27.333 2 54 6 80l-52 -2c-17.333 -0.666992 -34.666 -1 -51.999 -1c-14 0 -24.167 4.83301 -30.5 14.5s-8.83301 19.834 -7.5 30.501c0 27.333 2.5 54 7.5 80s8.83301 52.333 11.5 79c1.33301 11.333 5.5 20.833 12.5 28.5
s16.167 11.5 27.5 11.5c10 0 19.5 -3.83301 28.5 -11.5s12.833 -17.167 11.5 -28.5c-2 -20.667 -4.83301 -41.167 -8.5 -61.5s-6.5 -41.166 -8.5 -62.499l36 2l36 2l9.5 63c3 20.667 5.16699 41.667 6.5 63c0.666992 12.667 5.5 22.334 14.5 29.001s18.5 10 28.5 10
s18.833 -3.33301 26.5 -10s11.167 -16.334 10.5 -29.001c-1.33301 -21.333 -3.66602 -42.833 -6.99902 -64.5l-10 -65.5c6.66699 -4 11.667 -9.66699 15 -17s4.5 -14.833 3.5 -22.5s-4 -14.834 -9 -21.501s-11.833 -11 -20.5 -13c-4 -27.333 -6 -55 -6 -83z" />
    <glyph glyph-name="questiondown" unicode="&#xbf;" horiz-adv-x="465" 
d="M239 0c-20.667 4.66699 -42.501 11.0029 -65.501 19.0029s-44.5 18.333 -64.5 31s-37.333 27.667 -52 45s-24 38 -28 62c-2.66699 16.667 -3.66699 33.167 -3 49.5s6.33398 31.5 17.001 45.5c9.33301 13.333 20.5 23.833 33.5 31.5s27.167 13.834 42.5 18.501
c13.333 4 27.166 7.16699 41.499 9.5s28.5 4.83301 42.5 7.5l21.5 4l21.5 4l18 6c5.33301 1.33301 8.66602 2.66602 9.99902 3.99902c2 0.666992 5 2.33398 9 5.00098c5.33301 5.33301 8 8.66602 8 9.99902l1 13c-0.666992 6 -2.5 12.833 -5.5 20.5l-8.5 21.5
c-2.66699 6.66699 -5.16699 13.334 -7.5 20.001s-4.83301 13.334 -7.5 20.001c-4.66699 14 -8.5 28.167 -11.5 42.5s-4.5 29.166 -4.5 44.499c-0.666992 12.667 3 22.167 11 28.5s17 9.5 27 9.5s19.333 -3.16699 28 -9.5s13 -15.833 13 -28.5
c0.666992 -16.667 3.5 -32.5 8.5 -47.5l15.5 -45.5c8 -21.333 14.5 -42.833 19.5 -64.5s1.83301 -43.167 -9.5 -64.5c-7.33301 -13.333 -17.166 -24.333 -29.499 -33s-25.5 -15.667 -39.5 -21c-13.333 -4.66699 -26.666 -8.33398 -39.999 -11.001s-27 -5 -41 -7
s-27.833 -4.5 -41.5 -7.5s-27.167 -6.83301 -40.5 -11.5c-4 -2 -6.5 -3.33301 -7.5 -4s-2.16699 -1.33398 -3.5 -2.00098c-4.66699 -4 -7.33398 -6.33301 -8.00098 -7s-1 -1.33398 -1 -2.00098c-2 -4.66699 -2.83301 -7.83398 -2.5 -9.50098s0.5 -3.5 0.5 -5.5
s-0.166992 -3.66699 -0.5 -5s-0.5 -1.33301 -0.5 0c1.33301 -9.33301 3.33301 -17.666 6 -24.999c4.66699 -11.333 13.334 -22.333 26.001 -33c15.333 -13.333 33.5 -23.833 54.5 -31.5s41.833 -13.834 62.5 -18.501c26.667 -6 53.334 -10.333 80.001 -13s54 -4.66699 82 -6
c12.667 0 22.167 -4.33301 28.5 -13s9.5 -18 9.5 -28s-3.16699 -19 -9.5 -27s-15.833 -12 -28.5 -12c-30 1.33301 -59.833 3.33301 -89.5 6s-58.834 7.66699 -87.501 15zM247.999 656.003c-8.66699 5.33301 -15.3311 13.167 -19.998 23.5s-5.33398 20.166 -2.00098 29.499
c4 10.667 10.667 19.334 20 26.001c7.33301 8 16.666 11.667 27.999 11s20.666 -4.66699 27.999 -12c8 -6 14.333 -12.333 19 -19c5.33301 -9.33301 6.83301 -18.833 4.5 -28.5s-7.5 -17.5 -15.5 -23.5c-4.66699 -4.66699 -8.66699 -7.66699 -12 -9
c-5.33301 -2.66699 -8.66602 -4.16699 -9.99902 -4.5s-5 -0.833008 -11 -1.5c-2 -0.666992 -4.33301 -0.666992 -7 0s-4.66699 1 -6 1c-4.66699 0.666992 -10 3 -16 7z" />
    <glyph glyph-name="Agrave" unicode="&#xc0;" horiz-adv-x="552" 
d="M110 13c0 -12.667 -4.16504 -22.167 -12.498 -28.5s-17.5 -9.5 -27.5 -9.5s-19 3.16699 -27 9.5s-12 15.833 -12 28.5c0 52 6 102 18 150s27 95.667 45 143c-4.66699 8.66699 -6 18.334 -4 29.001c4 14 12.667 22.667 26 26l41.5 95.5l41.5 95.5
c13.333 32 25.666 64.333 36.999 97s20.666 66 27.999 100c2 10 6.16699 18.667 12.5 26s15.166 11 26.499 11c10.667 0 20.334 -3.83301 29.001 -11.5s12.334 -17.167 11.001 -28.5c-2 -38.667 -1.33301 -74.167 2 -106.5s8.33301 -64.333 15 -96
s14.167 -63.334 22.5 -95.001s16.166 -63.167 23.499 -94.5c7.33301 -30 14 -60 20 -90s15.667 -59 29 -87c6.66699 -14 13.667 -27.5 21 -40.5s15.333 -26.167 24 -39.5c8 -12 15.333 -24.5 22 -37.5s11.334 -27.167 14.001 -42.5
c1.33301 -10.667 -0.166992 -20.667 -4.5 -30s-12.166 -15.666 -23.499 -18.999c-9.33301 -2.66699 -19.333 -1.33398 -30 3.99902s-17 13.333 -19 24c-2.66699 15.333 -7.83398 29 -15.501 41l-23.5 37c-9.33301 14.667 -17.833 29.5 -25.5 44.5s-14.5 30.5 -20.5 46.5
c-6.66699 16.667 -12.334 33.5 -17.001 50.5s-9 34.167 -13 51.5c-30 2 -59.5 3.5 -88.5 4.5s-58.167 3.16699 -87.5 6.5c-16 -42.667 -29.5 -86 -40.5 -130s-16.833 -89 -17.5 -135zM204.002 367c-1.33301 -2 -2.16895 -4.16895 -2.50195 -6.50195
s-1.16602 -4.5 -2.49902 -6.5c21.333 -2 42.333 -3.16699 63 -3.5s41.667 -1.16602 63 -2.49902c-7.33301 32 -15.166 63.833 -23.499 95.5s-15.833 63.834 -22.5 96.501l-37 -86.5zM197.999 1006c21.333 -16.667 43.166 -31.668 65.499 -45.001s45.5 -26 69.5 -38
c11.333 -6 17.833 -14 19.5 -24s-0.166016 -19.333 -5.49902 -28s-13 -15.167 -23 -19.5s-20.667 -3.5 -32 2.5c-52 26.667 -102 58.334 -150 95.001c-8.66699 7.33301 -12.667 16.833 -12 28.5s4.66699 21.167 12 28.5c8.66699 8.66699 18 12.5 28 11.5
s19.333 -4.83301 28 -11.5z" />
    <glyph glyph-name="Aacute" unicode="&#xc1;" horiz-adv-x="552" 
d="M110 13c0 -12.667 -4.16504 -22.167 -12.498 -28.5s-17.5 -9.5 -27.5 -9.5s-19 3.16699 -27 9.5s-12 15.833 -12 28.5c0 52 6 102 18 150s27 95.667 45 143c-4.66699 8.66699 -6 18.334 -4 29.001c4 14 12.667 22.667 26 26l41.5 95.5l41.5 95.5
c13.333 32 25.666 64.333 36.999 97s20.666 66 27.999 100c2 10 6.16699 18.667 12.5 26s15.166 11 26.499 11c10.667 0 20.334 -3.83301 29.001 -11.5s12.334 -17.167 11.001 -28.5c-2 -38.667 -1.33301 -74.167 2 -106.5s8.33301 -64.333 15 -96
s14.167 -63.334 22.5 -95.001s16.166 -63.167 23.499 -94.5c7.33301 -30 14 -60 20 -90s15.667 -59 29 -87c6.66699 -14 13.667 -27.5 21 -40.5s15.333 -26.167 24 -39.5c8 -12 15.333 -24.5 22 -37.5s11.334 -27.167 14.001 -42.5
c1.33301 -10.667 -0.166992 -20.667 -4.5 -30s-12.166 -15.666 -23.499 -18.999c-9.33301 -2.66699 -19.333 -1.33398 -30 3.99902s-17 13.333 -19 24c-2.66699 15.333 -7.83398 29 -15.501 41l-23.5 37c-9.33301 14.667 -17.833 29.5 -25.5 44.5s-14.5 30.5 -20.5 46.5
c-6.66699 16.667 -12.334 33.5 -17.001 50.5s-9 34.167 -13 51.5c-30 2 -59.5 3.5 -88.5 4.5s-58.167 3.16699 -87.5 6.5c-16 -42.667 -29.5 -86 -40.5 -130s-16.833 -89 -17.5 -135zM204.002 367c-1.33301 -2 -2.16895 -4.16895 -2.50195 -6.50195
s-1.16602 -4.5 -2.49902 -6.5c21.333 -2 42.333 -3.16699 63 -3.5s41.667 -1.16602 63 -2.49902c-7.33301 32 -15.166 63.833 -23.499 95.5s-15.833 63.834 -22.5 96.501l-37 -86.5zM416.999 1006c8.66699 6.66699 18.002 10.501 28.002 11.501s19.333 -2.83301 28 -11.5
c7.33301 -7.33301 11.333 -16.833 12 -28.5s-3.33301 -21.167 -12 -28.5c-48 -36.667 -98 -68.334 -150 -95.001c-11.333 -6 -22 -6.83301 -32 -2.5s-17.5 10.833 -22.5 19.5s-6.83301 18 -5.5 28s7.66602 18 18.999 24c24 12 47.167 24.667 69.5 38
s44.166 28.333 65.499 45z" />
    <glyph glyph-name="Acircumflex" unicode="&#xc2;" horiz-adv-x="552" 
d="M110 13c0 -12.667 -4.16504 -22.167 -12.498 -28.5s-17.5 -9.5 -27.5 -9.5s-19 3.16699 -27 9.5s-12 15.833 -12 28.5c0 52 6 102 18 150s27 95.667 45 143c-4.66699 8.66699 -6 18.334 -4 29.001c4 14 12.667 22.667 26 26l41.5 95.5l41.5 95.5
c13.333 32 25.666 64.333 36.999 97s20.666 66 27.999 100c2 10 6.16699 18.667 12.5 26s15.166 11 26.499 11c10.667 0 20.334 -3.83301 29.001 -11.5s12.334 -17.167 11.001 -28.5c-2 -38.667 -1.33301 -74.167 2 -106.5s8.33301 -64.333 15 -96
s14.167 -63.334 22.5 -95.001s16.166 -63.167 23.499 -94.5c7.33301 -30 14 -60 20 -90s15.667 -59 29 -87c6.66699 -14 13.667 -27.5 21 -40.5s15.333 -26.167 24 -39.5c8 -12 15.333 -24.5 22 -37.5s11.334 -27.167 14.001 -42.5
c1.33301 -10.667 -0.166992 -20.667 -4.5 -30s-12.166 -15.666 -23.499 -18.999c-9.33301 -2.66699 -19.333 -1.33398 -30 3.99902s-17 13.333 -19 24c-2.66699 15.333 -7.83398 29 -15.501 41l-23.5 37c-9.33301 14.667 -17.833 29.5 -25.5 44.5s-14.5 30.5 -20.5 46.5
c-6.66699 16.667 -12.334 33.5 -17.001 50.5s-9 34.167 -13 51.5c-30 2 -59.5 3.5 -88.5 4.5s-58.167 3.16699 -87.5 6.5c-16 -42.667 -29.5 -86 -40.5 -130s-16.833 -89 -17.5 -135zM204.002 367c-1.33301 -2 -2.16895 -4.16895 -2.50195 -6.50195
s-1.16602 -4.5 -2.49902 -6.5c21.333 -2 42.333 -3.16699 63 -3.5s41.667 -1.16602 63 -2.49902c-7.33301 32 -15.166 63.833 -23.499 95.5s-15.833 63.834 -22.5 96.501l-37 -86.5zM437.999 891.998c8.66699 -7.33301 12.667 -16.8301 12 -28.4971
s-4.66699 -21.167 -12 -28.5c-8 -8 -17.167 -11.667 -27.5 -11s-19.833 4.33398 -28.5 11.001c-14 11.333 -27.167 23.166 -39.5 35.499s-25.5 24.166 -39.5 35.499l-41 -34c-13.333 -11.333 -26.666 -23.333 -39.999 -36c-9.33301 -8.66699 -19.333 -12.334 -30 -11.001
s-19.5 5.5 -26.5 12.5s-11 15.667 -12 26s3.16699 20.166 12.5 29.499c18 17.333 36.667 34 56 50s39.666 31.333 60.999 46c5.33301 3.33301 11.833 5 19.5 5s14.5 -1.66699 20.5 -5c22 -13.333 41.833 -29 59.5 -47s36.167 -34.667 55.5 -50z" />
    <glyph glyph-name="Atilde" unicode="&#xc3;" horiz-adv-x="552" 
d="M110 13c0 -12.667 -4.16504 -22.167 -12.498 -28.5s-17.5 -9.5 -27.5 -9.5s-19 3.16699 -27 9.5s-12 15.833 -12 28.5c0 52 6 102 18 150s27 95.667 45 143c-4.66699 8.66699 -6 18.334 -4 29.001c4 14 12.667 22.667 26 26l41.5 95.5l41.5 95.5
c13.333 32 25.666 64.333 36.999 97s20.666 66 27.999 100c2 10 6.16699 18.667 12.5 26s15.166 11 26.499 11c10.667 0 20.334 -3.83301 29.001 -11.5s12.334 -17.167 11.001 -28.5c-2 -38.667 -1.33301 -74.167 2 -106.5s8.33301 -64.333 15 -96
s14.167 -63.334 22.5 -95.001s16.166 -63.167 23.499 -94.5c7.33301 -30 14 -60 20 -90s15.667 -59 29 -87c6.66699 -14 13.667 -27.5 21 -40.5s15.333 -26.167 24 -39.5c8 -12 15.333 -24.5 22 -37.5s11.334 -27.167 14.001 -42.5
c1.33301 -10.667 -0.166992 -20.667 -4.5 -30s-12.166 -15.666 -23.499 -18.999c-9.33301 -2.66699 -19.333 -1.33398 -30 3.99902s-17 13.333 -19 24c-2.66699 15.333 -7.83398 29 -15.501 41l-23.5 37c-9.33301 14.667 -17.833 29.5 -25.5 44.5s-14.5 30.5 -20.5 46.5
c-6.66699 16.667 -12.334 33.5 -17.001 50.5s-9 34.167 -13 51.5c-30 2 -59.5 3.5 -88.5 4.5s-58.167 3.16699 -87.5 6.5c-16 -42.667 -29.5 -86 -40.5 -130s-16.833 -89 -17.5 -135zM204.002 367c-1.33301 -2 -2.16895 -4.16895 -2.50195 -6.50195
s-1.16602 -4.5 -2.49902 -6.5c21.333 -2 42.333 -3.16699 63 -3.5s41.667 -1.16602 63 -2.49902c-7.33301 32 -15.166 63.833 -23.499 95.5s-15.833 63.834 -22.5 96.501l-37 -86.5zM407.999 838.998c-14 -5.33301 -28.502 -6.83398 -43.502 -4.50098
s-28.5 8.16602 -40.5 17.499c-9.33301 7.33301 -18.333 15.5 -27 24.5s-19 14.5 -31 16.5c-11.333 2 -22.166 0 -32.499 -6s-19.166 -12.667 -26.499 -20c-9.33301 -9.33301 -19.166 -13.333 -29.499 -12s-19 5.5 -26 12.5s-11.333 15.667 -13 26
s2.16602 20.166 11.499 29.499c11.333 11.333 24 21 38 29s28.833 13.833 44.5 17.5s31.334 4.33398 47.001 2.00098s30.834 -7.83301 45.501 -16.5c12.667 -8.66699 23.667 -18 33 -28c3.33301 -3.33301 6.33301 -6.16602 9 -8.49902s5.66699 -4.16602 9 -5.49902
c4 -0.666992 8 0.5 12 3.5s8 6.66699 12 11s7.66699 9 11 14s6 8.83301 8 11.5c7.33301 8.66699 16.666 12.667 27.999 12s20.666 -4.66699 27.999 -12c8.66699 -8 12.667 -17.167 12 -27.5s-4.66699 -19.833 -12 -28.5c-9.33301 -11.333 -19 -22.5 -29 -33.5
s-22.667 -19.167 -38 -24.5z" />
    <glyph glyph-name="Adieresis" unicode="&#xc4;" horiz-adv-x="552" 
d="M110 13c0 -12.667 -4.16504 -22.167 -12.498 -28.5s-17.5 -9.5 -27.5 -9.5s-19 3.16699 -27 9.5s-12 15.833 -12 28.5c0 52 6 102 18 150s27 95.667 45 143c-4.66699 8.66699 -6 18.334 -4 29.001c4 14 12.667 22.667 26 26l41.5 95.5l41.5 95.5
c13.333 32 25.666 64.333 36.999 97s20.666 66 27.999 100c2 10 6.16699 18.667 12.5 26s15.166 11 26.499 11c10.667 0 20.334 -3.83301 29.001 -11.5s12.334 -17.167 11.001 -28.5c-2 -38.667 -1.33301 -74.167 2 -106.5s8.33301 -64.333 15 -96
s14.167 -63.334 22.5 -95.001s16.166 -63.167 23.499 -94.5c7.33301 -30 14 -60 20 -90s15.667 -59 29 -87c6.66699 -14 13.667 -27.5 21 -40.5s15.333 -26.167 24 -39.5c8 -12 15.333 -24.5 22 -37.5s11.334 -27.167 14.001 -42.5
c1.33301 -10.667 -0.166992 -20.667 -4.5 -30s-12.166 -15.666 -23.499 -18.999c-9.33301 -2.66699 -19.333 -1.33398 -30 3.99902s-17 13.333 -19 24c-2.66699 15.333 -7.83398 29 -15.501 41l-23.5 37c-9.33301 14.667 -17.833 29.5 -25.5 44.5s-14.5 30.5 -20.5 46.5
c-6.66699 16.667 -12.334 33.5 -17.001 50.5s-9 34.167 -13 51.5c-30 2 -59.5 3.5 -88.5 4.5s-58.167 3.16699 -87.5 6.5c-16 -42.667 -29.5 -86 -40.5 -130s-16.833 -89 -17.5 -135zM204.002 367c-1.33301 -2 -2.16895 -4.16895 -2.50195 -6.50195
s-1.16602 -4.5 -2.49902 -6.5c21.333 -2 42.333 -3.16699 63 -3.5s41.667 -1.16602 63 -2.49902c-7.33301 32 -15.166 63.833 -23.499 95.5s-15.833 63.834 -22.5 96.501l-37 -86.5zM274.999 936.998c6 -4.66699 9.66797 -11.334 11.001 -20.001
c1.33301 -5.33301 2 -9.33301 2 -12s-0.666992 -6.66699 -2 -12l-10 -27c-5.33301 -10 -13.5 -16.167 -24.5 -18.5s-21.167 -0.833008 -30.5 4.5c-8.66699 4.66699 -14.667 12.334 -18 23.001c-0.666992 6 -1.66699 9.66699 -3 11c-5.33301 10 -6.66602 20 -3.99902 30
c2.66699 9.33301 9 17.333 19 24c4 3.33301 8.66699 6 14 8s10.666 2.66699 15.999 2s9.16602 -1.16699 11.499 -1.5s5.5 -1.83301 9.5 -4.5s7 -5 9 -7zM411 928.998c9.33301 -5.33301 15.332 -13.5 17.999 -24.5s1.33398 -21.167 -3.99902 -30.5
c-3.33301 -5.33301 -7 -10 -11 -14c-6 -6 -12.667 -10.333 -20 -13c-9.33301 -3.33301 -18.5 -2.83301 -27.5 1.5s-16.167 10.5 -21.5 18.5c-4 6.66699 -6.5 13.5 -7.5 20.5s-1.5 14.167 -1.5 21.5c0 11.333 3.83301 20.833 11.5 28.5s17.167 11.5 28.5 11.5
c15.333 0 27 -6.66699 35 -20z" />
    <glyph glyph-name="Aring" unicode="&#xc5;" horiz-adv-x="552" 
d="M204 367l-5.00098 -13.002c21.333 -2 42.333 -3.16699 63 -3.5s41.667 -1.16602 63 -2.49902c-7.33301 32 -15.166 63.833 -23.499 95.5s-15.833 63.834 -22.5 96.501l-37 -86.5zM265.999 978.998c17.333 8 34.998 11.6699 52.998 11.0029s34.667 -4.83398 50 -12.501
s28.833 -18.5 40.5 -32.5s20.167 -30 25.5 -48c4 -14 6 -29.333 6 -46s-2.5 -32.667 -7.5 -48s-12.333 -29.166 -22 -41.499s-21.834 -21.833 -36.501 -28.5c-10 -4.66699 -21 -8 -33 -10c-1.33301 -31.333 -0.166016 -62.5 3.50098 -93.5s8.83398 -61.833 15.501 -92.5
s14 -61.334 22 -92.001l23 -91c7.33301 -30 14 -60 20 -90s15.667 -59 29 -87c6.66699 -14 13.667 -27.5 21 -40.5s15.333 -26.167 24 -39.5c8 -12 15.333 -24.5 22 -37.5s11.334 -27.167 14.001 -42.5c1.33301 -10.667 -0.166992 -20.667 -4.5 -30
s-12.166 -15.666 -23.499 -18.999c-9.33301 -2.66699 -19.333 -1.33398 -30 3.99902s-17 13.333 -19 24c-2.66699 15.333 -7.83398 29 -15.501 41l-23.5 37c-9.33301 14.667 -17.833 29.5 -25.5 44.5s-14.5 30.5 -20.5 46.5c-6.66699 16.667 -12.334 33.5 -17.001 50.5
s-9 34.167 -13 51.5c-30 2 -59.5 3.5 -88.5 4.5s-58.167 3.16699 -87.5 6.5c-16 -42.667 -29.5 -86 -40.5 -130s-16.833 -89 -17.5 -135c0 -12.667 -4.16699 -22.167 -12.5 -28.5s-17.5 -9.5 -27.5 -9.5s-19 3.16699 -27 9.5s-12 15.833 -12 28.5c0 52 6 102 18 150
s27 95.667 45 143c-4.66699 8.66699 -6 18.334 -4 29.001c4 14 12.667 22.667 26 26l39.5 92l40 92c13 30.667 25 61.5 36 92.5s20.5 62.5 28.5 94.5c-18.667 7.33301 -34.667 18 -48 32s-22 31.333 -26 52l-1 11c-2 13.333 -1.16699 27.666 2.5 42.999
s9.16699 30.166 16.5 44.499s16.333 27.166 27 38.499s22.334 20 35.001 26zM360.997 848.001c0.666992 4.66699 0.666016 9.33398 -0.000976562 14.001s-1.16699 7.33398 -1.5 8.00098s-0.5 1.33398 -0.5 2.00098c-0.666992 2.66699 -1.66699 6 -3 10
c0 -0.666992 -0.666992 0.5 -2 3.5s-2.33301 4.83301 -3 5.5c-4.66699 6 -9.16699 10.333 -13.5 13s-8.16602 4.66699 -11.499 6c-12 4 -22.333 2 -31 -6c-5.33301 -6 -10.333 -12.5 -15 -19.5s-8 -13.833 -10 -20.5l-6 -21v-10c2.66699 -10 6.5 -16.667 11.5 -20
s13.167 -6.33301 24.5 -9c1.33301 -0.666992 3 -1.16699 5 -1.5s3.66699 -0.833008 5 -1.5c6 -0.666992 10.833 -0.833984 14.5 -0.500977s3.83398 0.166016 0.500977 -0.500977c6 1.33301 9.5 2 10.5 2s3.83301 1.66699 8.5 5c3.33301 4 5.66602 7 6.99902 9
s2.33301 3.33301 3 4c4 9.33301 6 15.666 6 18.999z" />
    <glyph glyph-name="AE" unicode="&#xc6;" horiz-adv-x="903" 
d="M-11 14c-8.66699 5.33301 -14.665 13.5 -17.998 24.5s-2 21.167 4 30.5c39.333 56.667 80.666 111.334 123.999 164.001l129 160c44 55.333 85.167 112 123.5 170s72.5 119 102.5 183c4.66699 10 12.667 16.333 24 19s21.666 1.33398 30.999 -3.99902
c10.667 -6.66699 17 -16.334 19 -29.001l76.5 -2l76.5 -2c30 -0.666992 60.333 -0.833984 91 -0.500977s61 3.5 91 9.5c10.667 2 20.667 0.666992 30 -4s15.666 -12.667 18.999 -24c2.66699 -10 1.33398 -20.167 -3.99902 -30.5s-13.333 -16.5 -24 -18.5
c-28 -5.33301 -56 -9 -84 -11s-56.167 -3 -84.5 -3s-56.666 0.666992 -84.999 2l-84.5 4c-7.33301 -36 -13.5 -72.5 -18.5 -109.5s-9.16699 -74.5 -12.5 -112.5c46 -7.33301 92.333 -11 139 -11h140c12.667 0 22.167 -4.16699 28.5 -12.5s9.5 -17.5 9.5 -27.5
s-3.16699 -19.167 -9.5 -27.5s-15.833 -12.5 -28.5 -12.5c-47.333 0 -94.666 0.333008 -141.999 1s-94.666 4.33398 -141.999 11.001c-0.666992 -38 0.5 -75.833 3.5 -113.5s8.5 -75.167 16.5 -112.5c45.333 -0.666992 90.333 -1.5 135 -2.5s89.667 -1.83301 135 -2.5
c12.667 0 22.167 -4.16699 28.5 -12.5s9.5 -17.333 9.5 -27s-3.16699 -18.667 -9.5 -27s-15.833 -12.5 -28.5 -12.5c-42 0 -83.5 0.5 -124.5 1.5s-82.5 1.83301 -124.5 2.5c1.33301 -10.667 -1.33398 -19.334 -8.00098 -26.001s-14.667 -11 -24 -13
s-18.5 -0.833008 -27.5 3.5s-15.5 12.166 -19.5 23.499c-0.666992 2 -1.33398 4.16699 -2.00098 6.5s-1.33398 4.83301 -2.00098 7.5c-9.33301 0.666992 -16.5 4 -21.5 10s-8.33301 12.667 -10 20s-1.33398 14.833 0.999023 22.5s6.5 13.834 12.5 18.501
c-6.66699 32.667 -11.667 66 -15 100c-42 -2.66699 -83.667 -6 -125 -10s-83 -10 -125 -18c-6.66699 -1.33301 -13 -1.33301 -19 0l-62.5 -79.5c-20.333 -26.333 -40.166 -53.5 -59.499 -81.5c-6.66699 -9.33301 -15 -15.5 -25 -18.5s-20 -1.83301 -30 3.5zM293.002 348
l-27.499 -34.501l-27.5 -34.5c32 4.66699 64 8.33398 96 11.001l97 8c-1.33301 46 0 92 4 138s9.66699 92 17 138c-24 -40 -49.333 -78.667 -76 -116s-54.334 -74 -83.001 -110z" />
    <glyph glyph-name="Ccedilla" unicode="&#xc7;" horiz-adv-x="507" 
d="M374 -42c12.667 -4 24.6592 -9.50195 35.9922 -16.502s20.833 -15.167 28.5 -24.5s13 -20 16 -32s2.5 -25.333 -1.5 -40c-7.33301 -25.333 -21.166 -46 -41.499 -62s-42.166 -28.333 -65.499 -37c-10.667 -4 -22 -7.16699 -34 -9.5s-24 -3.16602 -36 -2.49902
s-23.5 3.16699 -34.5 7.5s-20.5 11.5 -28.5 21.5c-6.66699 8 -10.667 17.167 -12 27.5s2.33398 19.833 11.001 28.5c6.66699 7.33301 15.834 11.666 27.501 12.999s21.167 -2.33398 28.5 -11.001c9.33301 -6 14.833 -9 16.5 -9s5.16699 0.666992 10.5 2
c6 0.666992 13.167 2.5 21.5 5.5s15.833 6.5 22.5 10.5c2.66699 1.33301 5 2.66602 7 3.99902l6 4l10.5 8c1.66699 1.33301 3.16699 2.66602 4.5 3.99902l6 10.5c1.33301 2.33301 2.66602 4.83301 3.99902 7.5c-4 4 -10 7.66699 -18 11s-15.667 6 -23 8
c-9.33301 2.66699 -18.5 4.33398 -27.5 5.00098s-18.167 2.33398 -27.5 5.00098c-13.333 3.33301 -24.5 9.83301 -33.5 19.5s-14.833 21.167 -17.5 34.5c-2.66699 12 -2.5 23.667 0.5 35s3.83301 23 2.5 35c-17.333 4 -34.333 9.16699 -51 15.5
s-32.334 15.166 -47.001 26.499c-34.667 25.333 -60.667 58.333 -78 99c-16 38.667 -27 78.334 -33 119.001c-3.33301 23.333 -6.16602 46.833 -8.49902 70.5s-0.166016 47.167 6.50098 70.5c3.33301 14.667 7.66602 28.834 12.999 42.501l16 41.5
c4 10.667 6.83301 21.334 8.5 32.001s4.16699 21.667 7.5 33c6.66699 24 16.667 44.833 30 62.5s31 32.167 53 43.5c20.667 11.333 42 20.333 64 27s44.333 12 67 16c20.667 4 41.5 7 62.5 9s42.167 1.66699 63.5 -1c11.333 -1.33301 20.833 -5.33301 28.5 -12
s11.5 -15.667 11.5 -27c0 -10 -3.83301 -19.5 -11.5 -28.5s-17.167 -12.833 -28.5 -11.5c-2 0 -4 0.166992 -6 0.5s-4 0.5 -6 0.5c-20 1.33301 -40.167 0.833008 -60.5 -1.5s-40.166 -5.83301 -59.499 -10.5c-11.333 -3.33301 -22.666 -6.5 -33.999 -9.5
s-22.333 -6.83301 -33 -11.5c-7.33301 -3.33301 -14.666 -7 -21.999 -11c-5.33301 -2.66699 -9 -5 -11 -7c-12.667 -10.667 -21 -20.667 -25 -30s-7.16699 -19.166 -9.5 -29.499s-4.5 -20.833 -6.5 -31.5s-4.66699 -20.667 -8 -30l-16 -41
c-5.33301 -14 -9.66602 -28.333 -12.999 -43c-2 -10 -2.66699 -20 -2 -30s1.66699 -20 3 -30c1.33301 -17.333 3.5 -35.333 6.5 -54s7.16699 -36.667 12.5 -54s12.5 -33.833 21.5 -49.5s20.167 -29.5 33.5 -41.5c16.667 -14 35.667 -24.167 57 -30.5
s42.666 -10.833 63.999 -13.5c26.667 -4 52.667 -4.33301 78 -1s49.333 12.666 72 27.999c10.667 6.66699 20.834 8.16699 30.501 4.5s17 -9.66699 22 -18s7 -18 6 -29s-6.83301 -19.833 -17.5 -26.5c-26 -17.333 -53.5 -28.666 -82.5 -33.999s-58.5 -7.33301 -88.5 -6
l-2 -15.5l-2 -15.5c10.667 -6 21.334 -9.83301 32.001 -11.5s21.667 -4.5 33 -8.5z" />
    <glyph glyph-name="Egrave" unicode="&#xc8;" horiz-adv-x="520" 
d="M46 602c-13.333 4 -21.332 12.667 -23.999 26c-3.33301 9.33301 -2.33301 19.5 3 30.5s13.666 17.167 24.999 18.5c64.667 10 129.5 15.5 194.5 16.5s130.167 1.83301 195.5 2.5c12.667 0 22.334 -4 29.001 -12s10 -17 10 -27s-3.33301 -19.167 -10 -27.5
s-16.334 -12.5 -29.001 -12.5c-52 -1.33301 -104.333 -2 -157 -2s-105.334 -2.66699 -158.001 -8c1.33301 -26.667 3 -53.167 5 -79.5l6 -79.5c50.667 2.66699 101.167 6 151.5 10s100.833 4.66699 151.5 2c12.667 -0.666992 22.334 -5.33398 29.001 -14.001s10 -18 10 -28
s-3.33301 -19 -10 -27s-16.334 -11.667 -29.001 -11c-50 2.66699 -99.5 2 -148.5 -2s-98.5 -7.33301 -148.5 -10l11.5 -143.5c3.66699 -47.667 6.16699 -95.5 7.5 -143.5l71 15.5c24 5 48 9 72 12s48 4.5 72 4.5s48 -2 72 -6c10.667 -2 18.667 -8.33301 24 -19
s6.66602 -20.667 3.99902 -30c-3.33301 -11.333 -9.66602 -19.333 -18.999 -24s-19.666 -6 -30.999 -4c-21.333 4 -43 5.33301 -65 4s-43.667 -3.66602 -65 -6.99902c-24.667 -4 -49.167 -8.66699 -73.5 -14s-48.5 -11 -72.5 -17c-11.333 -2.66699 -22 -0.666992 -32 6
c-9.33301 1.33301 -17.666 5 -24.999 11s-11 15 -11 27c-1.33301 56.667 -3.83301 112.667 -7.5 168s-7.83398 111 -12.501 167c-7.33301 7.33301 -11.5 16.5 -12.5 27.5s1.83301 20.5 8.5 28.5c-5.33301 56.667 -9.33301 113.667 -12 171zM188.001 914
c21.333 -16.667 43.166 -31.668 65.499 -45.001s45.5 -26 69.5 -38c11.333 -6 17.833 -14 19.5 -24s-0.166016 -19.333 -5.49902 -28s-13 -15.167 -23 -19.5s-20.667 -3.5 -32 2.5c-52 26.667 -102 58.334 -150 95.001c-8.66699 7.33301 -12.667 16.833 -12 28.5
s4.66699 21.167 12 28.5c8.66699 8.66699 18 12.5 28 11.5s19.333 -4.83301 28 -11.5z" />
    <glyph glyph-name="Eacute" unicode="&#xc9;" horiz-adv-x="520" 
d="M46 602c-13.333 4 -21.332 12.667 -23.999 26c-3.33301 9.33301 -2.33301 19.5 3 30.5s13.666 17.167 24.999 18.5c64.667 10 129.5 15.5 194.5 16.5s130.167 1.83301 195.5 2.5c12.667 0 22.334 -4 29.001 -12s10 -17 10 -27s-3.33301 -19.167 -10 -27.5
s-16.334 -12.5 -29.001 -12.5c-52 -1.33301 -104.333 -2 -157 -2s-105.334 -2.66699 -158.001 -8c1.33301 -26.667 3 -53.167 5 -79.5l6 -79.5c50.667 2.66699 101.167 6 151.5 10s100.833 4.66699 151.5 2c12.667 -0.666992 22.334 -5.33398 29.001 -14.001s10 -18 10 -28
s-3.33301 -19 -10 -27s-16.334 -11.667 -29.001 -11c-50 2.66699 -99.5 2 -148.5 -2s-98.5 -7.33301 -148.5 -10l11.5 -143.5c3.66699 -47.667 6.16699 -95.5 7.5 -143.5l71 15.5c24 5 48 9 72 12s48 4.5 72 4.5s48 -2 72 -6c10.667 -2 18.667 -8.33301 24 -19
s6.66602 -20.667 3.99902 -30c-3.33301 -11.333 -9.66602 -19.333 -18.999 -24s-19.666 -6 -30.999 -4c-21.333 4 -43 5.33301 -65 4s-43.667 -3.66602 -65 -6.99902c-24.667 -4 -49.167 -8.66699 -73.5 -14s-48.5 -11 -72.5 -17c-11.333 -2.66699 -22 -0.666992 -32 6
c-9.33301 1.33301 -17.666 5 -24.999 11s-11 15 -11 27c-1.33301 56.667 -3.83301 112.667 -7.5 168s-7.83398 111 -12.501 167c-7.33301 7.33301 -11.5 16.5 -12.5 27.5s1.83301 20.5 8.5 28.5c-5.33301 56.667 -9.33301 113.667 -12 171zM325.001 935
c8.66699 6.66699 18.002 10.501 28.002 11.501s19.333 -2.83301 28 -11.5c7.33301 -7.33301 11.333 -16.833 12 -28.5s-3.33301 -21.167 -12 -28.5c-48 -36.667 -98 -68.334 -150 -95.001c-11.333 -6 -22 -6.83301 -32 -2.5s-17.5 10.833 -22.5 19.5s-6.83301 18 -5.5 28
s7.66602 18 18.999 24c24 12 47.167 24.667 69.5 38s44.166 28.333 65.499 45z" />
    <glyph glyph-name="Ecircumflex" unicode="&#xca;" horiz-adv-x="520" 
d="M46 602c-13.333 4 -21.332 12.667 -23.999 26c-3.33301 9.33301 -2.33301 19.5 3 30.5s13.666 17.167 24.999 18.5c64.667 10 129.5 15.5 194.5 16.5s130.167 1.83301 195.5 2.5c12.667 0 22.334 -4 29.001 -12s10 -17 10 -27s-3.33301 -19.167 -10 -27.5
s-16.334 -12.5 -29.001 -12.5c-52 -1.33301 -104.333 -2 -157 -2s-105.334 -2.66699 -158.001 -8c1.33301 -26.667 3 -53.167 5 -79.5l6 -79.5c50.667 2.66699 101.167 6 151.5 10s100.833 4.66699 151.5 2c12.667 -0.666992 22.334 -5.33398 29.001 -14.001s10 -18 10 -28
s-3.33301 -19 -10 -27s-16.334 -11.667 -29.001 -11c-50 2.66699 -99.5 2 -148.5 -2s-98.5 -7.33301 -148.5 -10l11.5 -143.5c3.66699 -47.667 6.16699 -95.5 7.5 -143.5l71 15.5c24 5 48 9 72 12s48 4.5 72 4.5s48 -2 72 -6c10.667 -2 18.667 -8.33301 24 -19
s6.66602 -20.667 3.99902 -30c-3.33301 -11.333 -9.66602 -19.333 -18.999 -24s-19.666 -6 -30.999 -4c-21.333 4 -43 5.33301 -65 4s-43.667 -3.66602 -65 -6.99902c-24.667 -4 -49.167 -8.66699 -73.5 -14s-48.5 -11 -72.5 -17c-11.333 -2.66699 -22 -0.666992 -32 6
c-9.33301 1.33301 -17.666 5 -24.999 11s-11 15 -11 27c-1.33301 56.667 -3.83301 112.667 -7.5 168s-7.83398 111 -12.501 167c-7.33301 7.33301 -11.5 16.5 -12.5 27.5s1.83301 20.5 8.5 28.5c-5.33301 56.667 -9.33301 113.667 -12 171zM388.001 840
c8.66699 -7.33301 12.667 -16.8301 12 -28.4971s-4.66699 -21.167 -12 -28.5c-8 -8 -17.167 -11.667 -27.5 -11s-19.833 4.33398 -28.5 11.001c-14 11.333 -27.167 23.166 -39.5 35.499s-25.5 24.166 -39.5 35.499l-41 -34c-13.333 -11.333 -26.666 -23.333 -39.999 -36
c-9.33301 -8.66699 -19.333 -12.334 -30 -11.001s-19.5 5.5 -26.5 12.5s-11 15.667 -12 26s3.16699 20.166 12.5 29.499c18 17.333 36.667 34 56 50s39.666 31.333 60.999 46c5.33301 3.33301 11.833 5 19.5 5s14.5 -1.66699 20.5 -5c22 -13.333 41.833 -29 59.5 -47
s36.167 -34.667 55.5 -50z" />
    </font>
</defs>
</svg>
